<?xml version="1.0" encoding="UTF-8" standalone="no"?>
<!-- Created with Inkscape (http://www.inkscape.org/) -->

<svg
   xmlns:dc="http://purl.org/dc/elements/1.1/"
   xmlns:cc="http://creativecommons.org/ns#"
   xmlns:rdf="http://www.w3.org/1999/02/22-rdf-syntax-ns#"
   xmlns:svg="http://www.w3.org/2000/svg"
   xmlns="http://www.w3.org/2000/svg"
   xmlns:sodipodi="http://sodipodi.sourceforge.net/DTD/sodipodi-0.dtd"
   xmlns:inkscape="http://www.inkscape.org/namespaces/inkscape"
   width="91.308807mm"
   height="55.678257mm"
   viewBox="0 0 323.53514 197.28516"
   id="svg3514"
   version="1.1"
   inkscape:version="0.91 r13725"
   sodipodi:docname="demonstration-furious.svg">
  <defs
     id="defs3516" />
  <sodipodi:namedview
     id="base"
     pagecolor="#ffffff"
     bordercolor="#666666"
     borderopacity="1.0"
     inkscape:pageopacity="0.0"
     inkscape:pageshadow="2"
     inkscape:zoom="0.35"
     inkscape:cx="-211.36579"
     inkscape:cy="102.5865"
     inkscape:document-units="px"
     inkscape:current-layer="layer1"
     showgrid="false"
     inkscape:window-width="1234"
     inkscape:window-height="787"
     inkscape:window-x="2655"
     inkscape:window-y="1183"
     inkscape:window-maximized="0"
     fit-margin-top="0"
     fit-margin-left="0"
     fit-margin-right="0"
     fit-margin-bottom="0" />
  <metadata
     id="metadata3519">
    <rdf:RDF>
      <cc:Work
         rdf:about="">
        <dc:format>image/svg+xml</dc:format>
        <dc:type
           rdf:resource="http://purl.org/dc/dcmitype/StillImage" />
        <dc:title></dc:title>
      </cc:Work>
    </rdf:RDF>
  </metadata>
  <g
     inkscape:label="Layer 1"
     inkscape:groupmode="layer"
     id="layer1"
     transform="translate(-252.08008,-437.66354)">
    <g
       style="font-style:normal;font-variant:normal;font-weight:normal;font-stretch:normal;font-size:40px;line-height:100%;font-family:'Liberation Mono';-inkscape-font-specification:'Liberation Mono';text-align:center;letter-spacing:0px;word-spacing:0px;text-anchor:middle;fill:#000000;fill-opacity:1;stroke:none;stroke-width:1px;stroke-linecap:butt;stroke-linejoin:miter;stroke-opacity:1"
       id="text3522">
      <path
         d="m 310.40039,466.64792 2.1875,-11.21094 -7.08984,0 -2.1875,11.21094 -5.76172,0 5.11719,-26.34766 5.76171,0 -2.01171,10.3711 7.08984,0 2.01172,-10.3711 5.76172,0 -5.11719,26.34766 -5.76172,0 z"
         style="font-style:italic;font-variant:normal;font-weight:bold;font-stretch:normal;font-family:'Liberation Mono';-inkscape-font-specification:'Liberation Mono Bold Italic';text-align:center;text-anchor:middle"
         id="path3607" />
      <path
         d="m 331.06445,445.51511 -2.30468,11.85546 q -0.23438,1.23047 -0.23438,2.2461 0,1.52344 0.58594,2.42187 0.58594,0.89844 1.93359,0.89844 0.83985,0 1.66016,-0.42969 0.83984,-0.44922 1.54297,-1.25 0.70312,-0.82031 1.23047,-1.93359 0.54687,-1.13281 0.80078,-2.48047 l 2.1875,-11.32812 5.48828,0 -3.1836,16.40625 q -0.13671,0.66406 -0.27343,1.40625 -0.11719,0.72265 -0.21485,1.38671 -0.0977,0.64454 -0.17578,1.17188 -0.0781,0.50781 -0.0976,0.76172 l -5.23438,0 q 0.0195,-0.23438 0.0781,-0.74219 0.0586,-0.52734 0.13671,-1.15234 0.0977,-0.625 0.19532,-1.25 0.0977,-0.625 0.17578,-1.05469 l -0.0977,0 q -1.5625,2.40234 -3.41797,3.49609 -1.85547,1.09375 -3.88672,1.09375 -1.44531,0 -2.46093,-0.39062 -0.9961,-0.39063 -1.6211,-1.09375 -0.625,-0.70313 -0.91797,-1.67969 -0.27343,-0.97656 -0.27343,-2.16797 0,-1.30859 0.29297,-2.77344 l 2.59765,-13.41796 5.48828,0 z"
         style="font-style:italic;font-variant:normal;font-weight:bold;font-stretch:normal;font-family:'Liberation Mono';-inkscape-font-specification:'Liberation Mono Bold Italic';text-align:center;text-anchor:middle"
         id="path3609" />
      <path
         d="m 367.08008,456.06198 q -0.46875,2.42188 -1.46485,4.43359 -0.99609,2.01172 -2.53906,3.47657 -1.54297,1.44531 -3.65234,2.26562 -2.08985,0.80078 -4.76563,0.80078 -2.1289,0 -3.71093,-0.54687 -1.5625,-0.56641 -2.57813,-1.58203 -1.01562,-1.03516 -1.52344,-2.48047 -0.48828,-1.46485 -0.48828,-3.26172 0,-0.74219 0.0781,-1.50391 0.0781,-0.78125 0.23437,-1.60156 0.46875,-2.36328 1.44531,-4.35547 0.97657,-2.01172 2.5,-3.47656 1.52344,-1.46484 3.61329,-2.28516 2.10937,-0.82031 4.80468,-0.82031 2.30469,0 3.90625,0.54688 1.60157,0.52734 2.59766,1.5039 1.01562,0.97656 1.46484,2.36328 0.44922,1.38672 0.44922,3.06641 0,0.82031 -0.0976,1.67969 -0.0977,0.83984 -0.27344,1.77734 z m -5.74219,0 q 0.19531,-0.99609 0.29297,-1.83594 0.0977,-0.83984 0.0977,-1.54297 0,-1.97265 -0.80079,-2.87109 -0.80078,-0.91797 -2.53906,-0.91797 -1.21094,0 -2.16797,0.42969 -0.9375,0.41016 -1.66015,1.28906 -0.72266,0.87891 -1.25,2.22656 -0.50782,1.34766 -0.87891,3.22266 -0.35156,1.83594 -0.35156,3.20313 0,2.08984 0.82031,3.0664 0.82031,0.95703 2.42188,0.95703 1.21093,0 2.16796,-0.41015 0.95704,-0.42969 1.67969,-1.3086 0.74219,-0.8789 1.26953,-2.24609 0.52735,-1.36719 0.89844,-3.26172 z"
         style="font-style:italic;font-variant:normal;font-weight:bold;font-stretch:normal;font-family:'Liberation Mono';-inkscape-font-specification:'Liberation Mono Bold Italic';text-align:center;text-anchor:middle"
         id="path3611" />
      <path
         d="m 376.5918,466.64792 2.5,-12.85156 q 0.21484,-1.17188 0.33203,-2.01172 0.11719,-0.83985 0.11719,-1.44532 0,-0.9375 -0.29297,-1.32812 -0.27344,-0.39063 -0.85938,-0.39063 -0.48828,0 -0.97656,0.48829 -0.48828,0.46875 -0.9375,1.34765 -0.44922,0.85938 -0.83984,2.08985 -0.39063,1.23046 -0.6836,2.73437 l -2.20703,11.36719 -4.47266,0 3.22266,-16.6211 q 0.13672,-0.66406 0.25391,-1.38671 0.13672,-0.74219 0.23437,-1.38672 0.11719,-0.66407 0.19531,-1.13282 0.0781,-0.46875 0.0781,-0.60546 l 4.08203,0 q 0,0.0976 -0.0586,0.50781 -0.0586,0.39062 -0.13672,0.91797 -0.0781,0.50781 -0.17578,1.05468 -0.0977,0.54688 -0.17578,0.9375 l 0.0391,0 q 0.41015,-0.76171 0.8789,-1.44531 0.48829,-0.70312 1.09375,-1.23047 0.60547,-0.52734 1.34766,-0.82031 0.74219,-0.3125 1.64063,-0.3125 1.71875,0 2.38281,0.9375 0.68359,0.9375 0.66406,2.89063 l 0.0391,0 q 0.52735,-0.91797 1.07422,-1.6211 0.56641,-0.72265 1.21094,-1.21094 0.64453,-0.48828 1.38672,-0.74218 0.76172,-0.25391 1.67969,-0.25391 1.71875,0 2.5,0.89844 0.78125,0.89844 0.78125,2.85156 0,0.76172 -0.11719,1.67969 -0.0977,0.89844 -0.3125,2.01172 l -2.73438,14.08203 -4.45312,0 2.5,-12.85156 q 0.21484,-1.17188 0.33203,-2.01172 0.11719,-0.83985 0.11719,-1.44532 0,-0.9375 -0.29297,-1.32812 -0.27344,-0.39063 -0.85938,-0.39063 -0.99609,0 -1.875,1.58204 -0.8789,1.5625 -1.48437,4.70703 l -2.28516,11.73828 -4.45312,0 z"
         style="font-style:italic;font-variant:normal;font-weight:bold;font-stretch:normal;font-family:'Liberation Mono';-inkscape-font-specification:'Liberation Mono Bold Italic';text-align:center;text-anchor:middle"
         id="path3613" />
      <path
         d="m 407.02148,462.93698 6.89454,0 -0.72266,3.71094 -20.09766,0 0.72266,-3.71094 7.71484,0 2.65625,-13.71094 -5.66406,0 0.72266,-3.71093 11.15234,0 -3.37891,17.42187 z m -1.36718,-21.23047 0.78125,-4.04297 5.48828,0 -0.78125,4.04297 -5.48828,0 z"
         style="font-style:italic;font-variant:normal;font-weight:bold;font-stretch:normal;font-family:'Liberation Mono';-inkscape-font-specification:'Liberation Mono Bold Italic';text-align:center;text-anchor:middle"
         id="path3615" />
      <path
         d="m 439.0332,456.06198 q -0.46875,2.42188 -1.46484,4.43359 -0.99609,2.01172 -2.53906,3.47657 -1.54297,1.44531 -3.65235,2.26562 -2.08984,0.80078 -4.76562,0.80078 -2.12891,0 -3.71094,-0.54687 -1.5625,-0.56641 -2.57812,-1.58203 -1.01563,-1.03516 -1.52344,-2.48047 -0.48828,-1.46485 -0.48828,-3.26172 0,-0.74219 0.0781,-1.50391 0.0781,-0.78125 0.23438,-1.60156 0.46875,-2.36328 1.44531,-4.35547 0.97656,-2.01172 2.5,-3.47656 1.52344,-1.46484 3.61328,-2.28516 2.10938,-0.82031 4.80469,-0.82031 2.30469,0 3.90625,0.54688 1.60156,0.52734 2.59765,1.5039 1.01563,0.97656 1.46485,2.36328 0.44922,1.38672 0.44922,3.06641 0,0.82031 -0.0977,1.67969 -0.0977,0.83984 -0.27344,1.77734 z m -5.74218,0 q 0.19531,-0.99609 0.29296,-1.83594 0.0977,-0.83984 0.0977,-1.54297 0,-1.97265 -0.80078,-2.87109 -0.80078,-0.91797 -2.53906,-0.91797 -1.21094,0 -2.16797,0.42969 -0.9375,0.41016 -1.66016,1.28906 -0.72265,0.87891 -1.25,2.22656 -0.50781,1.34766 -0.8789,3.22266 -0.35157,1.83594 -0.35157,3.20313 0,2.08984 0.82032,3.0664 0.82031,0.95703 2.42187,0.95703 1.21094,0 2.16797,-0.41015 0.95703,-0.42969 1.67969,-1.3086 0.74218,-0.8789 1.26953,-2.24609 0.52734,-1.36719 0.89844,-3.26172 z"
         style="font-style:italic;font-variant:normal;font-weight:bold;font-stretch:normal;font-family:'Liberation Mono';-inkscape-font-specification:'Liberation Mono Bold Italic';text-align:center;text-anchor:middle"
         id="path3617" />
      <path
         d="m 454.99023,462.93698 6.89454,0 -0.72266,3.71094 -20.09766,0 0.72266,-3.71094 7.71484,0 2.65625,-13.71094 -5.66406,0 0.72266,-3.71093 11.15234,0 -3.37891,17.42187 z m -1.36718,-21.23047 0.78125,-4.04297 5.48828,0 -0.78125,4.04297 -5.48828,0 z"
         style="font-style:italic;font-variant:normal;font-weight:bold;font-stretch:normal;font-family:'Liberation Mono';-inkscape-font-specification:'Liberation Mono Bold Italic';text-align:center;text-anchor:middle"
         id="path3619" />
      <path
         d="m 479.61914,466.64792 -3.78906,-9.57031 -2.67578,1.64062 -1.54297,7.92969 -5.48828,0 5.625,-28.98438 5.48828,0 -3.22266,16.60157 9.23828,-8.75 5.89844,0 -9.02344,8.24218 5.48828,12.89063 -5.99609,0 z"
         style="font-style:italic;font-variant:normal;font-weight:bold;font-stretch:normal;font-family:'Liberation Mono';-inkscape-font-specification:'Liberation Mono Bold Italic';text-align:center;text-anchor:middle"
         id="path3621" />
      <path
         d="m 495.22461,467.03854 q -2.61719,0 -4.04297,-1.21093 -1.40625,-1.21094 -1.40625,-3.51563 0,-0.76172 0.17578,-1.64062 0.3711,-1.875 1.23047,-3.14454 0.87891,-1.28906 2.12891,-2.07031 1.25,-0.80078 2.8125,-1.15234 1.5625,-0.3711 3.30078,-0.39063 l 4.375,-0.0781 0.19531,-1.07422 q 0.0977,-0.46875 0.13672,-0.87891 0.0586,-0.41015 0.0586,-0.76172 0,-1.34765 -0.625,-1.89453 -0.60547,-0.54687 -1.66015,-0.54687 -0.60547,0 -1.13282,0.13672 -0.52734,0.13672 -0.97656,0.48828 -0.42969,0.33203 -0.78125,0.91797 -0.35156,0.5664 -0.625,1.44531 l -5.66406,-0.27344 q 0.48828,-1.38672 1.30859,-2.51953 0.82032,-1.15234 2.05078,-1.99219 1.23047,-0.83984 2.89063,-1.28906 1.67969,-0.46875 3.84766,-0.46875 3.3789,0 5.11718,1.42578 1.75782,1.40625 1.75782,4.16016 0,0.89844 -0.21485,2.03125 l -1.48437,7.65625 q -0.0977,0.48828 -0.15625,0.91797 -0.0586,0.41015 -0.0586,0.74218 0,0.72266 0.29297,1.09375 0.3125,0.3711 1.05469,0.3711 0.625,0 1.23047,-0.11719 l -0.56641,2.96875 q -0.50781,0.11719 -0.91797,0.21484 -0.41015,0.0977 -0.82031,0.15625 -0.39062,0.0586 -0.83984,0.0977 -0.44922,0.0391 -1.03516,0.0391 -1.85547,0 -2.67578,-0.80078 -0.82031,-0.82031 -0.82031,-2.40234 0,-0.19531 0,-0.39063 0.0195,-0.19531 0.0391,-0.41015 l -0.11719,0 q -0.74219,0.97656 -1.54297,1.75781 -0.78125,0.76172 -1.67968,1.30859 -0.89844,0.52735 -1.9336,0.80078 -1.01562,0.29297 -2.22656,0.29297 z m 7.96875,-10.17578 -2.61719,0.0391 q -0.8789,0.0195 -1.66015,0.13672 -0.78125,0.0977 -1.42579,0.44922 -0.625,0.33203 -1.07421,0.9961 -0.42969,0.64453 -0.64454,1.75781 -0.11718,0.58594 -0.11718,1.05469 0,1.91406 1.875,1.91406 1.05468,0 1.95312,-0.44922 0.91797,-0.44922 1.6211,-1.17188 0.72265,-0.74218 1.21093,-1.69921 0.48828,-0.95704 0.6836,-1.95313 l 0.19531,-1.07422 z"
         style="font-style:italic;font-variant:normal;font-weight:bold;font-stretch:normal;font-family:'Liberation Mono';-inkscape-font-specification:'Liberation Mono Bold Italic';text-align:center;text-anchor:middle"
         id="path3623" />
      <path
         d="m 519.20898,467.03854 q -2.61718,0 -4.04296,-1.21093 -1.40625,-1.21094 -1.40625,-3.51563 0,-0.76172 0.17578,-1.64062 0.37109,-1.875 1.23047,-3.14454 0.8789,-1.28906 2.1289,-2.07031 1.25,-0.80078 2.8125,-1.15234 1.5625,-0.3711 3.30078,-0.39063 l 4.375,-0.0781 0.19532,-1.07422 q 0.0977,-0.46875 0.13671,-0.87891 0.0586,-0.41015 0.0586,-0.76172 0,-1.34765 -0.625,-1.89453 -0.60547,-0.54687 -1.66016,-0.54687 -0.60547,0 -1.13281,0.13672 -0.52734,0.13672 -0.97656,0.48828 -0.42969,0.33203 -0.78125,0.91797 -0.35157,0.5664 -0.625,1.44531 l -5.66407,-0.27344 q 0.48829,-1.38672 1.3086,-2.51953 0.82031,-1.15234 2.05078,-1.99219 1.23047,-0.83984 2.89062,-1.28906 1.67969,-0.46875 3.84766,-0.46875 3.37891,0 5.11719,1.42578 1.75781,1.40625 1.75781,4.16016 0,0.89844 -0.21484,2.03125 l -1.48438,7.65625 q -0.0977,0.48828 -0.15625,0.91797 -0.0586,0.41015 -0.0586,0.74218 0,0.72266 0.29297,1.09375 0.3125,0.3711 1.05468,0.3711 0.625,0 1.23047,-0.11719 l -0.5664,2.96875 q -0.50782,0.11719 -0.91797,0.21484 -0.41016,0.0977 -0.82031,0.15625 -0.39063,0.0586 -0.83985,0.0977 -0.44922,0.0391 -1.03515,0.0391 -1.85547,0 -2.67579,-0.80078 -0.82031,-0.82031 -0.82031,-2.40234 0,-0.19531 0,-0.39063 0.0195,-0.19531 0.0391,-0.41015 l -0.11718,0 q -0.74219,0.97656 -1.54297,1.75781 -0.78125,0.76172 -1.67969,1.30859 -0.89844,0.52735 -1.93359,0.80078 -1.01563,0.29297 -2.22657,0.29297 z m 7.96875,-10.17578 -2.61718,0.0391 q -0.87891,0.0195 -1.66016,0.13672 -0.78125,0.0977 -1.42578,0.44922 -0.625,0.33203 -1.07422,0.9961 -0.42969,0.64453 -0.64453,1.75781 -0.11719,0.58594 -0.11719,1.05469 0,1.91406 1.875,1.91406 1.05469,0 1.95313,-0.44922 0.91797,-0.44922 1.62109,-1.17188 0.72266,-0.74218 1.21094,-1.69921 0.48828,-0.95704 0.68359,-1.95313 l 0.19531,-1.07422 z"
         style="font-style:italic;font-variant:normal;font-weight:bold;font-stretch:normal;font-family:'Liberation Mono';-inkscape-font-specification:'Liberation Mono Bold Italic';text-align:center;text-anchor:middle"
         id="path3625" />
      <path
         d="m 330.45898,500.47604 q 0,1.52344 -0.64453,2.73438 -0.625,1.21094 -1.83593,2.07031 -1.21094,0.83984 -2.96875,1.30859 -1.75782,0.44922 -4.00391,0.44922 -2.01172,0 -3.63281,-0.29297 -1.6211,-0.29296 -2.85157,-0.95703 -1.21093,-0.68359 -2.03125,-1.75781 -0.82031,-1.07422 -1.23046,-2.65625 l 4.82421,-0.72266 q 0.23438,0.87891 0.64454,1.42579 0.41015,0.54687 1.01562,0.83984 0.60547,0.29297 1.40625,0.39062 0.82031,0.0977 1.85547,0.0977 0.9375,0 1.73828,-0.0977 0.82031,-0.11718 1.40625,-0.37109 0.60547,-0.27344 0.9375,-0.74219 0.33203,-0.48828 0.33203,-1.21093 0,-0.82032 -0.48828,-1.28907 -0.46875,-0.48828 -1.30859,-0.78125 -0.82032,-0.3125 -1.95313,-0.52734 -1.11328,-0.23438 -2.38281,-0.52734 -1.32813,-0.29297 -2.61719,-0.70313 -1.28906,-0.41016 -2.30469,-1.11328 -1.01562,-0.70313 -1.64062,-1.77734 -0.625,-1.09375 -0.625,-2.75391 0,-1.50391 0.58594,-2.67578 0.58593,-1.19141 1.71875,-2.01172 1.13281,-0.83984 2.79297,-1.26953 1.67968,-0.44922 3.84765,-0.44922 1.71875,0 3.20313,0.33203 1.48437,0.3125 2.65625,1.01563 1.17187,0.68359 1.95312,1.75781 0.80078,1.07422 1.11328,2.59765 l -4.86328,0.50782 q -0.13672,-0.76172 -0.48828,-1.25 -0.35156,-0.50782 -0.87891,-0.80078 -0.50781,-0.29297 -1.1914,-0.39063 -0.6836,-0.11719 -1.50391,-0.11719 -1.95312,0 -2.92969,0.50782 -0.97656,0.48828 -0.97656,1.66015 0,0.72266 0.39063,1.15235 0.41015,0.42968 1.13281,0.72265 0.74219,0.27344 1.73828,0.48828 1.01563,0.19532 2.20703,0.48828 1.46485,0.3125 2.8711,0.74219 1.42578,0.41016 2.51953,1.15235 1.11328,0.72265 1.77734,1.875 0.68359,1.15234 0.68359,2.92968 z"
         style="font-style:normal;font-variant:normal;font-weight:bold;font-stretch:normal;font-family:'Liberation Mono';-inkscape-font-specification:'Liberation Mono Bold';text-align:center;text-anchor:middle"
         id="path3627" />
      <path
         d="m 345.10742,507.03854 q -2.28515,0 -4.17969,-0.66406 -1.89453,-0.68359 -3.24218,-2.05078 -1.34766,-1.38672 -2.10938,-3.45703 -0.74219,-2.08985 -0.74219,-4.88281 0,-3.02735 0.85938,-5.09766 0.87891,-2.07031 2.32422,-3.33984 1.44531,-1.28907 3.30078,-1.85547 1.875,-0.56641 3.86719,-0.56641 2.5,0 4.3164,0.87891 1.83594,0.85937 3.04688,2.42187 1.21094,1.5625 1.79687,3.75 0.58594,2.16797 0.58594,4.80469 l 0,0.15625 -14.33594,0 q 0,1.32812 0.29297,2.48047 0.3125,1.13281 0.89844,1.97265 0.60547,0.82032 1.50391,1.3086 0.89843,0.46875 2.08984,0.46875 1.44531,0 2.55859,-0.60547 1.11328,-0.625 1.50391,-1.91406 l 5.17578,0.44922 q -0.35156,0.89843 -1.05469,1.91406 -0.68359,1.01562 -1.8164,1.875 -1.13282,0.83984 -2.77344,1.40625 -1.62109,0.54687 -3.86719,0.54687 z m 0,-18.45703 q -0.83984,0 -1.64062,0.29297 -0.78125,0.27344 -1.40625,0.89844 -0.60547,0.60547 -0.9961,1.58203 -0.39062,0.97656 -0.42968,2.34375 l 8.98437,0 q -0.0781,-1.26953 -0.46875,-2.22656 -0.37109,-0.95703 -0.97656,-1.60157 -0.58594,-0.64453 -1.38672,-0.95703 -0.78125,-0.33203 -1.67969,-0.33203 z"
         style="font-style:normal;font-variant:normal;font-weight:bold;font-stretch:normal;font-family:'Liberation Mono';-inkscape-font-specification:'Liberation Mono Bold';text-align:center;text-anchor:middle"
         id="path3629" />
      <path
         d="m 372.37305,502.93698 6.89453,0 0,3.71094 -20.09766,0 0,-3.71094 7.71485,0 0,-13.71094 -5.66407,0 0,-3.71093 11.15235,0 0,17.42187 z m -5.48828,-21.23047 0,-4.04297 5.48828,0 0,4.04297 -5.48828,0 z"
         style="font-style:normal;font-variant:normal;font-weight:bold;font-stretch:normal;font-family:'Liberation Mono';-inkscape-font-specification:'Liberation Mono Bold';text-align:center;text-anchor:middle"
         id="path3631" />
      <path
         d="m 397.72461,506.64792 -5.64453,-9.57031 -2.36328,1.64062 0,7.92969 -5.48828,0 0,-28.98438 5.48828,0 0,16.60157 7.53906,-8.75 5.89844,0 -7.42188,8.24218 7.98828,12.89063 -5.99609,0 z"
         style="font-style:normal;font-variant:normal;font-weight:bold;font-stretch:normal;font-family:'Liberation Mono';-inkscape-font-specification:'Liberation Mono Bold';text-align:center;text-anchor:middle"
         id="path3633" />
      <path
         d="m 421.70898,506.64792 -5.64453,-9.57031 -2.36328,1.64062 0,7.92969 -5.48828,0 0,-28.98438 5.48828,0 0,16.60157 7.53906,-8.75 5.89844,0 -7.42187,8.24218 7.98828,12.89063 -5.9961,0 z"
         style="font-style:normal;font-variant:normal;font-weight:bold;font-stretch:normal;font-family:'Liberation Mono';-inkscape-font-specification:'Liberation Mono Bold';text-align:center;text-anchor:middle"
         id="path3635" />
      <path
         d="m 451.02539,496.06198 q 0,2.42188 -0.60547,4.43359 -0.60547,2.01172 -1.875,3.47657 -1.25,1.44531 -3.20312,2.26562 -1.9336,0.80078 -4.60938,0.80078 -2.57812,0 -4.47265,-0.80078 -1.89454,-0.80078 -3.16407,-2.24609 -1.25,-1.44531 -1.875,-3.45703 -0.60547,-2.03125 -0.60547,-4.47266 0,-2.36328 0.58594,-4.35547 0.58594,-2.01172 1.81641,-3.47656 1.25,-1.46484 3.18359,-2.28516 1.95313,-0.82031 4.64844,-0.82031 2.85156,0 4.78516,0.82031 1.95312,0.82032 3.14453,2.28516 1.21093,1.44531 1.71875,3.45703 0.52734,1.99219 0.52734,4.375 z m -5.74219,0 q 0,-1.875 -0.2539,-3.22266 -0.23438,-1.36718 -0.76172,-2.24609 -0.50781,-0.87891 -1.34766,-1.28906 -0.82031,-0.41016 -1.99219,-0.41016 -2.42187,0 -3.49609,1.71875 -1.05469,1.71875 -1.05469,5.44922 0,3.76953 1.07422,5.50781 1.09375,1.71875 3.22266,1.71875 1.21094,0 2.08984,-0.41015 0.87891,-0.42969 1.42578,-1.3086 0.56641,-0.8789 0.82032,-2.24609 0.27343,-1.36719 0.27343,-3.26172 z"
         style="font-style:normal;font-variant:normal;font-weight:bold;font-stretch:normal;font-family:'Liberation Mono';-inkscape-font-specification:'Liberation Mono Bold';text-align:center;text-anchor:middle"
         id="path3637" />
      <path
         d="m 469.67773,506.90182 q 0,2.12891 -0.74218,3.65235 -0.74219,1.52344 -1.99219,2.5 -1.25,0.97656 -2.87109,1.42578 -1.6211,0.46875 -3.35938,0.46875 -0.80078,0 -1.60156,-0.0781 -0.80078,-0.0586 -1.54297,-0.17578 -0.74219,-0.11718 -1.38672,-0.27343 -0.625,-0.13672 -1.09375,-0.3125 l 0,-4.10157 q 0.85938,0.21485 2.20703,0.42969 1.34766,0.23438 2.92969,0.23438 0.83984,0 1.5625,-0.17579 0.72266,-0.15625 1.25,-0.625 0.52734,-0.46875 0.82031,-1.28906 0.3125,-0.82031 0.3125,-2.1289 l 0,-17.22657 -6.91406,0 0,-3.71093 12.42187,0 0,21.38671 z m -5.48828,-25.19531 0,-4.04297 5.48828,0 0,4.04297 -5.48828,0 z"
         style="font-style:normal;font-variant:normal;font-weight:bold;font-stretch:normal;font-family:'Liberation Mono';-inkscape-font-specification:'Liberation Mono Bold';text-align:center;text-anchor:middle"
         id="path3639" />
      <path
         d="m 485.36133,507.03854 q -1.52344,0 -2.73438,-0.41015 -1.1914,-0.42969 -2.03125,-1.23047 -0.83984,-0.82031 -1.28906,-2.01172 -0.44922,-1.19141 -0.44922,-2.71484 0,-1.875 0.625,-3.14454 0.625,-1.28906 1.71875,-2.07031 1.09375,-0.80078 2.57813,-1.15234 1.5039,-0.3711 3.22265,-0.39063 l 4.35547,-0.0781 0,-1.07422 q 0,-1.15234 -0.21484,-1.91406 -0.19531,-0.78125 -0.56641,-1.26953 -0.37109,-0.48829 -0.91797,-0.6836 -0.52734,-0.21484 -1.1914,-0.21484 -0.60547,0 -1.11328,0.13672 -0.50782,0.13672 -0.87891,0.48828 -0.37109,0.33203 -0.60547,0.91797 -0.23437,0.5664 -0.33203,1.44531 l -5.72266,-0.27344 q 0.23438,-1.38672 0.82032,-2.51953 0.60546,-1.15234 1.66015,-1.99219 1.07422,-0.83984 2.65625,-1.28906 1.58203,-0.46875 3.75,-0.46875 3.94531,0 6.03516,1.93359 2.10937,1.9336 2.10937,5.6836 l 0,7.65625 q 0,0.74219 0.0586,1.32812 0.0781,0.58594 0.2539,0.9961 0.19532,0.39062 0.52735,0.60547 0.35156,0.19531 0.89843,0.19531 0.625,0 1.21094,-0.11719 l 0,2.96875 q -0.48828,0.11719 -0.8789,0.21484 -0.39063,0.0977 -0.78125,0.15625 -0.39063,0.0586 -0.83985,0.0977 -0.42969,0.0391 -1.01562,0.0391 -2.07032,0 -3.06641,-1.01562 -0.97656,-1.01563 -1.17187,-2.98828 l -0.11719,0 q -0.54688,0.97656 -1.19141,1.75781 -0.625,0.76172 -1.42578,1.30859 -0.78125,0.52735 -1.75781,0.80078 -0.97656,0.29297 -2.1875,0.29297 z m 5.99609,-10.17578 -2.61719,0.0391 q -0.8789,0.0195 -1.64062,0.13672 -0.76172,0.0977 -1.32813,0.44922 -0.54687,0.33203 -0.8789,0.9961 -0.3125,0.64453 -0.3125,1.75781 0,1.5039 0.58594,2.24609 0.60546,0.72266 1.75781,0.72266 1.05469,0 1.875,-0.44922 0.82031,-0.44922 1.38672,-1.17188 0.58593,-0.74218 0.8789,-1.69921 0.29297,-0.95704 0.29297,-1.95313 l 0,-1.07422 z"
         style="font-style:normal;font-variant:normal;font-weight:bold;font-stretch:normal;font-family:'Liberation Mono';-inkscape-font-specification:'Liberation Mono Bold';text-align:center;text-anchor:middle"
         id="path3641" />
      <path
         d="m 515.0293,498.32761 -4.49219,0 -0.625,-18.02735 5.74219,0 -0.625,18.02735 z m -5.11719,8.32031 0,-5.27344 5.625,0 0,5.27344 -5.625,0 z"
         style="font-style:normal;font-variant:normal;font-weight:bold;font-stretch:normal;font-family:'Liberation Mono';-inkscape-font-specification:'Liberation Mono Bold';text-align:center;text-anchor:middle"
         id="path3643" />
      <path
         d="m 307.09961,579.0112 q -0.33203,1.71875 -1.28906,3.20312 -0.95703,1.46485 -2.51953,2.53907 -1.54297,1.07422 -3.69141,1.67968 -2.14844,0.60547 -4.88281,0.60547 -2.28516,0 -4.08203,-0.48828 -1.77735,-0.48828 -3.02735,-1.44531 -1.23047,-0.95703 -1.89453,-2.36328 -0.66406,-1.42578 -0.72266,-3.26172 l 5.72266,-0.72266 q 0.0977,1.83594 1.30859,2.91016 1.21094,1.05469 3.69141,1.05469 1.17188,0 2.12891,-0.17578 0.97656,-0.17579 1.69922,-0.56641 0.74218,-0.39063 1.23046,-1.03516 0.48829,-0.66406 0.66407,-1.60156 0.0586,-0.29297 0.0586,-0.56641 0,-0.8789 -0.54687,-1.44531 -0.54688,-0.5664 -1.38672,-0.95703 -0.83985,-0.39062 -1.875,-0.64453 -1.01563,-0.27344 -1.95313,-0.52734 -1.1914,-0.33204 -2.48047,-0.78125 -1.26953,-0.46875 -2.32422,-1.19141 -1.05468,-0.72266 -1.73828,-1.77734 -0.68359,-1.07422 -0.68359,-2.65625 0,-0.66407 0.15625,-1.50391 0.37109,-1.91406 1.46484,-3.30078 1.09375,-1.40625 2.65625,-2.30469 1.5625,-0.91797 3.4375,-1.34766 1.89453,-0.44921 3.84766,-0.44921 4.375,0 6.50391,1.73828 2.1289,1.71875 2.14843,5.35156 l -5.70312,0.56641 q -0.0781,-1.77735 -1.01563,-2.67579 -0.9375,-0.89843 -2.83203,-0.89843 -1.23047,0 -2.10937,0.2539 -0.85938,0.23438 -1.42578,0.66407 -0.56641,0.41015 -0.87891,0.95703 -0.3125,0.52734 -0.42969,1.11328 -0.0586,0.29297 -0.0586,0.5664 0,0.76172 0.42969,1.26954 0.42968,0.50781 1.13281,0.8789 0.70312,0.35156 1.58203,0.60547 0.89844,0.25391 1.83594,0.50781 0.8789,0.23438 1.8164,0.52735 0.9375,0.27343 1.81641,0.64453 0.89844,0.37109 1.67969,0.8789 0.80078,0.48829 1.38672,1.15235 0.60546,0.66406 0.95703,1.52344 0.35156,0.85937 0.35156,1.97265 0,0.35156 -0.0391,0.74219 -0.0391,0.37109 -0.11719,0.78125 z"
         style="font-style:italic;font-variant:normal;font-weight:bold;font-stretch:normal;font-family:'Liberation Mono';-inkscape-font-specification:'Liberation Mono Bold Italic';text-align:center;text-anchor:middle"
         id="path3645" />
      <path
         d="m 319.07227,565.51511 -2.30469,11.85546 q -0.23438,1.23047 -0.23438,2.2461 0,1.52344 0.58594,2.42187 0.58594,0.89844 1.93359,0.89844 0.83985,0 1.66016,-0.42969 0.83984,-0.44922 1.54297,-1.25 0.70312,-0.82031 1.23047,-1.93359 0.54687,-1.13281 0.80078,-2.48047 l 2.1875,-11.32812 5.48828,0 -3.18359,16.40625 q -0.13672,0.66406 -0.27344,1.40625 -0.11719,0.72265 -0.21484,1.38671 -0.0977,0.64454 -0.17579,1.17188 -0.0781,0.50781 -0.0976,0.76172 l -5.23438,0 q 0.0195,-0.23438 0.0781,-0.74219 0.0586,-0.52734 0.13672,-1.15234 0.0977,-0.625 0.19531,-1.25 0.0977,-0.625 0.17578,-1.05469 l -0.0977,0 q -1.5625,2.40234 -3.41796,3.49609 -1.85547,1.09375 -3.88672,1.09375 -1.44532,0 -2.46094,-0.39062 -0.99609,-0.39063 -1.62109,-1.09375 -0.625,-0.70313 -0.91797,-1.67969 -0.27344,-0.97656 -0.27344,-2.16797 0,-1.30859 0.29297,-2.77344 l 2.59765,-13.41796 5.48829,0 z"
         style="font-style:italic;font-variant:normal;font-weight:bold;font-stretch:normal;font-family:'Liberation Mono';-inkscape-font-specification:'Liberation Mono Bold Italic';text-align:center;text-anchor:middle"
         id="path3647" />
      <path
         d="m 355.08789,576.06198 q -0.46875,2.42188 -1.46484,4.43359 -0.9961,2.01172 -2.53907,3.47657 -1.54296,1.44531 -3.65234,2.26562 -2.08984,0.80078 -4.76562,0.80078 -2.12891,0 -3.71094,-0.54687 -1.5625,-0.56641 -2.57813,-1.58203 -1.01562,-1.03516 -1.52343,-2.48047 -0.48829,-1.46485 -0.48829,-3.26172 0,-0.74219 0.0781,-1.50391 0.0781,-0.78125 0.23437,-1.60156 0.46875,-2.36328 1.44532,-4.35547 0.97656,-2.01172 2.5,-3.47656 1.52343,-1.46484 3.61328,-2.28516 2.10937,-0.82031 4.80469,-0.82031 2.30468,0 3.90625,0.54688 1.60156,0.52734 2.59765,1.5039 1.01563,0.97656 1.46485,2.36328 0.44921,1.38672 0.44921,3.06641 0,0.82031 -0.0976,1.67969 -0.0977,0.83984 -0.27344,1.77734 z m -5.74219,0 q 0.19532,-0.99609 0.29297,-1.83594 0.0977,-0.83984 0.0977,-1.54297 0,-1.97265 -0.80078,-2.87109 -0.80078,-0.91797 -2.53907,-0.91797 -1.21093,0 -2.16796,0.42969 -0.9375,0.41016 -1.66016,1.28906 -0.72266,0.87891 -1.25,2.22656 -0.50781,1.34766 -0.87891,3.22266 -0.35156,1.83594 -0.35156,3.20313 0,2.08984 0.82031,3.0664 0.82032,0.95703 2.42188,0.95703 1.21094,0 2.16797,-0.41015 0.95703,-0.42969 1.67968,-1.3086 0.74219,-0.8789 1.26954,-2.24609 0.52734,-1.36719 0.89843,-3.26172 z"
         style="font-style:italic;font-variant:normal;font-weight:bold;font-stretch:normal;font-family:'Liberation Mono';-inkscape-font-specification:'Liberation Mono Bold Italic';text-align:center;text-anchor:middle"
         id="path3649" />
      <path
         d="m 379.15039,570.08542 q -0.87891,-0.15625 -1.875,-0.25391 -0.97656,-0.11719 -2.1875,-0.11719 -1.64062,0 -3.02734,0.66407 -1.36719,0.66406 -2.42188,1.8164 -1.05469,1.13282 -1.77734,2.65625 -0.70313,1.52344 -1.03516,3.24219 l -1.66015,8.55469 -5.46875,0 2.65625,-13.69141 q 0.27343,-1.48437 0.37109,-2.96875 0.11719,-1.5039 0.11719,-2.67578 0,-0.56641 -0.0195,-1.01562 -0.0195,-0.46875 -0.0391,-0.78125 l 5.29297,0 q 0.0391,0.50781 0.0781,1.15234 0.0391,0.625 0.0391,1.32812 0,0.50782 -0.0195,1.01563 -0.0195,0.50781 -0.0586,0.95703 l 0.0781,0 q 0.625,-1.11328 1.34766,-2.01172 0.74218,-0.89844 1.67968,-1.52344 0.95703,-0.625 2.14844,-0.95703 1.19141,-0.35156 2.71484,-0.35156 1.09375,0 2.12891,0.0977 1.05469,0.0977 1.83594,0.23437 l -0.89844,4.62891 z"
         style="font-style:italic;font-variant:normal;font-weight:bold;font-stretch:normal;font-family:'Liberation Mono';-inkscape-font-specification:'Liberation Mono Bold Italic';text-align:center;text-anchor:middle"
         id="path3651" />
      <path
         d="m 395.0293,582.93698 6.89453,0 -0.72266,3.71094 -20.09765,0 0.72265,-3.71094 7.71485,0 2.65625,-13.71094 -5.66407,0 0.72266,-3.71093 11.15234,0 -3.3789,17.42187 z m -1.36719,-21.23047 0.78125,-4.04297 5.48828,0 -0.78125,4.04297 -5.48828,0 z"
         style="font-style:italic;font-variant:normal;font-weight:bold;font-stretch:normal;font-family:'Liberation Mono';-inkscape-font-specification:'Liberation Mono Bold Italic';text-align:center;text-anchor:middle"
         id="path3653" />
      <path
         d="m 412.56836,569.22604 -3.26172,0 0.72266,-3.71093 3.53515,0 2.79297,-5.50782 3.4375,0 -1.07422,5.50782 7.51953,0 -0.72265,3.71093 -7.51953,0 -2.01172,10.35157 q -0.0781,0.42968 -0.15625,0.83984 -0.0586,0.41016 -0.0586,0.78125 0,0.42969 0.11719,0.80078 0.13672,0.35156 0.44922,0.625 0.33203,0.25391 0.89844,0.41016 0.58594,0.13672 1.46484,0.13672 1.25,0 2.51953,-0.13672 1.26953,-0.13672 2.5586,-0.39063 l -0.70313,3.63281 q -0.76172,0.11719 -1.5039,0.23438 -0.72266,0.11719 -1.50391,0.19531 -0.76172,0.0977 -1.62109,0.13672 -0.83985,0.0586 -1.83594,0.0586 -1.95313,0 -3.20313,-0.37109 -1.25,-0.39062 -1.97265,-1.01562 -0.72266,-0.64454 -0.9961,-1.48438 -0.27343,-0.83984 -0.27343,-1.75781 0,-0.54688 0.0781,-1.09375 0.0781,-0.54688 0.17578,-1.09375 l 2.14844,-10.85938 z"
         style="font-style:italic;font-variant:normal;font-weight:bold;font-stretch:normal;font-family:'Liberation Mono';-inkscape-font-specification:'Liberation Mono Bold Italic';text-align:center;text-anchor:middle"
         id="path3655" />
      <path
         d="m 436.55273,569.22604 -3.26171,0 0.72265,-3.71093 3.53516,0 2.79297,-5.50782 3.4375,0 -1.07422,5.50782 7.51953,0 -0.72266,3.71093 -7.51953,0 -2.01172,10.35157 q -0.0781,0.42968 -0.15625,0.83984 -0.0586,0.41016 -0.0586,0.78125 0,0.42969 0.11719,0.80078 0.13672,0.35156 0.44922,0.625 0.33203,0.25391 0.89843,0.41016 0.58594,0.13672 1.46485,0.13672 1.25,0 2.51953,-0.13672 1.26953,-0.13672 2.55859,-0.39063 l -0.70312,3.63281 q -0.76172,0.11719 -1.50391,0.23438 -0.72266,0.11719 -1.50391,0.19531 -0.76171,0.0977 -1.62109,0.13672 -0.83984,0.0586 -1.83594,0.0586 -1.95312,0 -3.20312,-0.37109 -1.25,-0.39062 -1.97266,-1.01562 -0.72265,-0.64454 -0.99609,-1.48438 -0.27344,-0.83984 -0.27344,-1.75781 0,-0.54688 0.0781,-1.09375 0.0781,-0.54688 0.17578,-1.09375 l 2.14843,-10.85938 z"
         style="font-style:italic;font-variant:normal;font-weight:bold;font-stretch:normal;font-family:'Liberation Mono';-inkscape-font-specification:'Liberation Mono Bold Italic';text-align:center;text-anchor:middle"
         id="path3657" />
      <path
         d="m 459.24805,587.03854 q -2.61719,0 -4.04297,-1.21093 -1.40625,-1.21094 -1.40625,-3.51563 0,-0.76172 0.17578,-1.64062 0.37109,-1.875 1.23047,-3.14454 0.8789,-1.28906 2.1289,-2.07031 1.25,-0.80078 2.8125,-1.15234 1.5625,-0.3711 3.30079,-0.39063 l 4.375,-0.0781 0.19531,-1.07422 q 0.0976,-0.46875 0.13672,-0.87891 0.0586,-0.41015 0.0586,-0.76172 0,-1.34765 -0.625,-1.89453 -0.60547,-0.54687 -1.66016,-0.54687 -0.60546,0 -1.13281,0.13672 -0.52734,0.13672 -0.97656,0.48828 -0.42969,0.33203 -0.78125,0.91797 -0.35156,0.5664 -0.625,1.44531 l -5.66406,-0.27344 q 0.48828,-1.38672 1.30859,-2.51953 0.82031,-1.15234 2.05078,-1.99219 1.23047,-0.83984 2.89063,-1.28906 1.67968,-0.46875 3.84765,-0.46875 3.37891,0 5.11719,1.42578 1.75781,1.40625 1.75781,4.16016 0,0.89844 -0.21484,2.03125 l -1.48438,7.65625 q -0.0976,0.48828 -0.15625,0.91797 -0.0586,0.41015 -0.0586,0.74218 0,0.72266 0.29297,1.09375 0.3125,0.3711 1.05469,0.3711 0.625,0 1.23047,-0.11719 l -0.56641,2.96875 q -0.50781,0.11719 -0.91797,0.21484 -0.41016,0.0977 -0.82031,0.15625 -0.39063,0.0586 -0.83985,0.0977 -0.44921,0.0391 -1.03515,0.0391 -1.85547,0 -2.67578,-0.80078 -0.82032,-0.82031 -0.82032,-2.40234 0,-0.19531 0,-0.39063 0.0195,-0.19531 0.0391,-0.41015 l -0.11719,0 q -0.74219,0.97656 -1.54297,1.75781 -0.78125,0.76172 -1.67969,1.30859 -0.89843,0.52735 -1.93359,0.80078 -1.01563,0.29297 -2.22656,0.29297 z m 7.96875,-10.17578 -2.61719,0.0391 q -0.87891,0.0195 -1.66016,0.13672 -0.78125,0.0977 -1.42578,0.44922 -0.625,0.33203 -1.07422,0.9961 -0.42968,0.64453 -0.64453,1.75781 -0.11719,0.58594 -0.11719,1.05469 0,1.91406 1.875,1.91406 1.05469,0 1.95313,-0.44922 0.91797,-0.44922 1.62109,-1.17188 0.72266,-0.74218 1.21094,-1.69921 0.48828,-0.95704 0.68359,-1.95313 l 0.19532,-1.07422 z"
         style="font-style:italic;font-variant:normal;font-weight:bold;font-stretch:normal;font-family:'Liberation Mono';-inkscape-font-specification:'Liberation Mono Bold Italic';text-align:center;text-anchor:middle"
         id="path3659" />
      <path
         d="m 491.61133,586.64792 -3.78906,-9.57031 -2.67579,1.64062 -1.54296,7.92969 -5.48829,0 5.625,-28.98438 5.48829,0 -3.22266,16.60157 9.23828,-8.75 5.89844,0 -9.02344,8.24218 5.48828,12.89063 -5.99609,0 z"
         style="font-style:italic;font-variant:normal;font-weight:bold;font-stretch:normal;font-family:'Liberation Mono';-inkscape-font-specification:'Liberation Mono Bold Italic';text-align:center;text-anchor:middle"
         id="path3661" />
      <path
         d="m 507.2168,587.03854 q -2.61719,0 -4.04297,-1.21093 -1.40625,-1.21094 -1.40625,-3.51563 0,-0.76172 0.17578,-1.64062 0.37109,-1.875 1.23047,-3.14454 0.8789,-1.28906 2.1289,-2.07031 1.25,-0.80078 2.8125,-1.15234 1.5625,-0.3711 3.30079,-0.39063 l 4.375,-0.0781 0.19531,-1.07422 q 0.0977,-0.46875 0.13672,-0.87891 0.0586,-0.41015 0.0586,-0.76172 0,-1.34765 -0.625,-1.89453 -0.60547,-0.54687 -1.66016,-0.54687 -0.60546,0 -1.13281,0.13672 -0.52734,0.13672 -0.97656,0.48828 -0.42969,0.33203 -0.78125,0.91797 -0.35156,0.5664 -0.625,1.44531 l -5.66406,-0.27344 q 0.48828,-1.38672 1.30859,-2.51953 0.82031,-1.15234 2.05078,-1.99219 1.23047,-0.83984 2.89063,-1.28906 1.67968,-0.46875 3.84765,-0.46875 3.37891,0 5.11719,1.42578 1.75781,1.40625 1.75781,4.16016 0,0.89844 -0.21484,2.03125 l -1.48438,7.65625 q -0.0977,0.48828 -0.15625,0.91797 -0.0586,0.41015 -0.0586,0.74218 0,0.72266 0.29297,1.09375 0.3125,0.3711 1.05469,0.3711 0.625,0 1.23047,-0.11719 l -0.56641,2.96875 q -0.50781,0.11719 -0.91797,0.21484 -0.41016,0.0977 -0.82031,0.15625 -0.39063,0.0586 -0.83985,0.0977 -0.44921,0.0391 -1.03515,0.0391 -1.85547,0 -2.67578,-0.80078 -0.82032,-0.82031 -0.82032,-2.40234 0,-0.19531 0,-0.39063 0.0195,-0.19531 0.0391,-0.41015 l -0.11719,0 q -0.74219,0.97656 -1.54297,1.75781 -0.78125,0.76172 -1.67969,1.30859 -0.89843,0.52735 -1.93359,0.80078 -1.01563,0.29297 -2.22656,0.29297 z m 7.96875,-10.17578 -2.61719,0.0391 q -0.87891,0.0195 -1.66016,0.13672 -0.78125,0.0977 -1.42578,0.44922 -0.625,0.33203 -1.07422,0.9961 -0.42968,0.64453 -0.64453,1.75781 -0.11719,0.58594 -0.11719,1.05469 0,1.91406 1.875,1.91406 1.05469,0 1.95313,-0.44922 0.91797,-0.44922 1.62109,-1.17188 0.72266,-0.74218 1.21094,-1.69921 0.48828,-0.95704 0.68359,-1.95313 l 0.19532,-1.07422 z"
         style="font-style:italic;font-variant:normal;font-weight:bold;font-stretch:normal;font-family:'Liberation Mono';-inkscape-font-specification:'Liberation Mono Bold Italic';text-align:center;text-anchor:middle"
         id="path3663" />
      <path
         d="m 531.20117,587.03854 q -2.61719,0 -4.04297,-1.21093 -1.40625,-1.21094 -1.40625,-3.51563 0,-0.76172 0.17578,-1.64062 0.3711,-1.875 1.23047,-3.14454 0.87891,-1.28906 2.12891,-2.07031 1.25,-0.80078 2.8125,-1.15234 1.5625,-0.3711 3.30078,-0.39063 l 4.375,-0.0781 0.19531,-1.07422 q 0.0977,-0.46875 0.13672,-0.87891 0.0586,-0.41015 0.0586,-0.76172 0,-1.34765 -0.625,-1.89453 -0.60547,-0.54687 -1.66016,-0.54687 -0.60547,0 -1.13281,0.13672 -0.52735,0.13672 -0.97657,0.48828 -0.42968,0.33203 -0.78125,0.91797 -0.35156,0.5664 -0.625,1.44531 l -5.66406,-0.27344 q 0.48828,-1.38672 1.3086,-2.51953 0.82031,-1.15234 2.05078,-1.99219 1.23047,-0.83984 2.89062,-1.28906 1.67969,-0.46875 3.84766,-0.46875 3.3789,0 5.11719,1.42578 1.75781,1.40625 1.75781,4.16016 0,0.89844 -0.21485,2.03125 l -1.48437,7.65625 q -0.0977,0.48828 -0.15625,0.91797 -0.0586,0.41015 -0.0586,0.74218 0,0.72266 0.29296,1.09375 0.3125,0.3711 1.05469,0.3711 0.625,0 1.23047,-0.11719 l -0.56641,2.96875 q -0.50781,0.11719 -0.91796,0.21484 -0.41016,0.0977 -0.82032,0.15625 -0.39062,0.0586 -0.83984,0.0977 -0.44922,0.0391 -1.03516,0.0391 -1.85547,0 -2.67578,-0.80078 -0.82031,-0.82031 -0.82031,-2.40234 0,-0.19531 0,-0.39063 0.0195,-0.19531 0.0391,-0.41015 l -0.11719,0 q -0.74218,0.97656 -1.54296,1.75781 -0.78125,0.76172 -1.67969,1.30859 -0.89844,0.52735 -1.9336,0.80078 -1.01562,0.29297 -2.22656,0.29297 z m 7.96875,-10.17578 -2.61719,0.0391 q -0.8789,0.0195 -1.66015,0.13672 -0.78125,0.0977 -1.42578,0.44922 -0.625,0.33203 -1.07422,0.9961 -0.42969,0.64453 -0.64453,1.75781 -0.11719,0.58594 -0.11719,1.05469 0,1.91406 1.875,1.91406 1.05469,0 1.95312,-0.44922 0.91797,-0.44922 1.6211,-1.17188 0.72265,-0.74218 1.21094,-1.69921 0.48828,-0.95704 0.68359,-1.95313 l 0.19531,-1.07422 z"
         style="font-style:italic;font-variant:normal;font-weight:bold;font-stretch:normal;font-family:'Liberation Mono';-inkscape-font-specification:'Liberation Mono Bold Italic';text-align:center;text-anchor:middle"
         id="path3665" />
      <path
         d="m 255.3418,609.22604 -3.26172,0 0,-3.71093 3.53515,0 1.71875,-5.50782 3.4375,0 0,5.50782 7.51954,0 0,3.71093 -7.51954,0 0,10.35157 q 0,0.70312 0.0391,1.34765 0.0586,0.64453 0.37109,1.15235 0.33203,0.48828 1.01563,0.80078 0.70312,0.29297 1.97265,0.29297 1.25,0 2.5,-0.13672 1.25,-0.13672 2.48047,-0.39063 l 0,3.63281 q -0.72266,0.11719 -1.44531,0.23438 -0.70313,0.11719 -1.46485,0.19531 -0.74218,0.0977 -1.58203,0.13672 -0.83984,0.0586 -1.83593,0.0586 -1.67969,0 -2.89063,-0.27343 -1.21094,-0.29297 -2.05078,-0.78125 -0.82031,-0.48828 -1.34766,-1.15235 -0.50781,-0.66406 -0.78125,-1.40625 -0.27343,-0.76172 -0.37109,-1.58203 -0.0781,-0.82031 -0.0781,-1.62109 l 0.0391,-10.85938 z"
         style="font-style:normal;font-variant:normal;font-weight:bold;font-stretch:normal;font-family:'Liberation Mono';-inkscape-font-specification:'Liberation Mono Bold';text-align:center;text-anchor:middle"
         id="path3667" />
      <path
         d="m 295.12695,616.06198 q 0,2.42188 -0.60547,4.43359 -0.60546,2.01172 -1.875,3.47657 -1.25,1.44531 -3.20312,2.26562 -1.93359,0.80078 -4.60938,0.80078 -2.57812,0 -4.47265,-0.80078 -1.89453,-0.80078 -3.16406,-2.24609 -1.25,-1.44531 -1.875,-3.45703 -0.60547,-2.03125 -0.60547,-4.47266 0,-2.36328 0.58593,-4.35547 0.58594,-2.01172 1.81641,-3.47656 1.25,-1.46484 3.18359,-2.28516 1.95313,-0.82031 4.64844,-0.82031 2.85156,0 4.78516,0.82031 1.95312,0.82032 3.14453,2.28516 1.21094,1.44531 1.71875,3.45703 0.52734,1.99219 0.52734,4.375 z m -5.74218,0 q 0,-1.875 -0.25391,-3.22266 -0.23438,-1.36718 -0.76172,-2.24609 -0.50781,-0.87891 -1.34766,-1.28906 -0.82031,-0.41016 -1.99218,-0.41016 -2.42188,0 -3.4961,1.71875 -1.05468,1.71875 -1.05468,5.44922 0,3.76953 1.07421,5.50781 1.09375,1.71875 3.22266,1.71875 1.21094,0 2.08984,-0.41015 0.87891,-0.42969 1.42579,-1.3086 0.5664,-0.8789 0.82031,-2.24609 0.27344,-1.36719 0.27344,-3.26172 z"
         style="font-style:normal;font-variant:normal;font-weight:bold;font-stretch:normal;font-family:'Liberation Mono';-inkscape-font-specification:'Liberation Mono Bold';text-align:center;text-anchor:middle"
         id="path3669" />
      <path
         d="m 312.41211,622.93698 6.89453,0 0,3.71094 -20.09766,0 0,-3.71094 7.71485,0 0,-13.71094 -5.66406,0 0,-3.71093 11.15234,0 0,17.42187 z m -5.48828,-21.23047 0,-4.04297 5.48828,0 0,4.04297 -5.48828,0 z"
         style="font-style:normal;font-variant:normal;font-weight:bold;font-stretch:normal;font-family:'Liberation Mono';-inkscape-font-specification:'Liberation Mono Bold';text-align:center;text-anchor:middle"
         id="path3671" />
      <path
         d="m 330.67383,626.64792 0,-12.85156 q 0,-1.48438 -0.0977,-2.48047 -0.0781,-0.9961 -0.27344,-1.58203 -0.19531,-0.60547 -0.52734,-0.85938 -0.33203,-0.25391 -0.80078,-0.25391 -0.48828,0 -0.89844,0.48829 -0.39062,0.46875 -0.66406,1.34765 -0.27344,0.85938 -0.42969,2.08985 -0.15625,1.23046 -0.15625,2.73437 l 0,11.36719 -4.47265,0 0,-16.6211 q 0,-0.66406 -0.0195,-1.38671 0,-0.74219 -0.0195,-1.38672 -0.0195,-0.66407 -0.0391,-1.13282 -0.0195,-0.46875 -0.0391,-0.60546 l 4.08203,0 q 0.0195,0.0976 0.0391,0.50781 0.0195,0.39062 0.0391,0.91797 0.0195,0.50781 0.0195,1.05468 0.0195,0.54688 0.0195,0.9375 l 0.0391,0 q 0.25391,-0.76171 0.60547,-1.44531 0.35156,-0.70312 0.83984,-1.23047 0.50781,-0.52734 1.19141,-0.82031 0.68359,-0.3125 1.58203,-0.3125 1.71875,0 2.55859,0.9375 0.85938,0.9375 1.23047,2.89063 l 0.0391,0 q 0.35157,-0.91797 0.76172,-1.6211 0.42969,-0.72265 0.97657,-1.21094 0.54687,-0.48828 1.25,-0.74218 0.70312,-0.25391 1.62109,-0.25391 1.19141,0 2.01172,0.42969 0.82031,0.42969 1.32812,1.32812 0.50782,0.89844 0.72266,2.30469 0.23437,1.40625 0.23437,3.37891 l 0,14.08203 -4.45312,0 0,-12.85156 q 0,-1.48438 -0.0977,-2.48047 -0.0781,-0.9961 -0.27343,-1.58203 -0.19532,-0.60547 -0.52735,-0.85938 -0.33203,-0.25391 -0.80078,-0.25391 -0.99609,0 -1.58203,1.58204 -0.56641,1.5625 -0.56641,4.70703 l 0,11.73828 -4.45312,0 z"
         style="font-style:normal;font-variant:normal;font-weight:bold;font-stretch:normal;font-family:'Liberation Mono';-inkscape-font-specification:'Liberation Mono Bold';text-align:center;text-anchor:middle"
         id="path3673" />
      <path
         d="m 357.09961,627.03854 q -2.28516,0 -4.17969,-0.66406 -1.89453,-0.68359 -3.24219,-2.05078 -1.34765,-1.38672 -2.10937,-3.45703 -0.74219,-2.08985 -0.74219,-4.88281 0,-3.02735 0.85938,-5.09766 0.8789,-2.07031 2.32422,-3.33984 1.44531,-1.28907 3.30078,-1.85547 1.875,-0.56641 3.86718,-0.56641 2.5,0 4.31641,0.87891 1.83594,0.85937 3.04688,2.42187 1.21093,1.5625 1.79687,3.75 0.58594,2.16797 0.58594,4.80469 l 0,0.15625 -14.33594,0 q 0,1.32812 0.29297,2.48047 0.3125,1.13281 0.89844,1.97265 0.60547,0.82032 1.5039,1.3086 0.89844,0.46875 2.08985,0.46875 1.44531,0 2.55859,-0.60547 1.11328,-0.625 1.50391,-1.91406 l 5.17578,0.44922 q -0.35156,0.89843 -1.05469,1.91406 -0.68359,1.01562 -1.81641,1.875 -1.13281,0.83984 -2.77343,1.40625 -1.6211,0.54687 -3.86719,0.54687 z m 0,-18.45703 q -0.83984,0 -1.64063,0.29297 -0.78125,0.27344 -1.40625,0.89844 -0.60546,0.60547 -0.99609,1.58203 -0.39062,0.97656 -0.42969,2.34375 l 8.98438,0 q -0.0781,-1.26953 -0.46875,-2.22656 -0.3711,-0.95703 -0.97656,-1.60157 -0.58594,-0.64453 -1.38672,-0.95703 -0.78125,-0.33203 -1.67969,-0.33203 z"
         style="font-style:normal;font-variant:normal;font-weight:bold;font-stretch:normal;font-family:'Liberation Mono';-inkscape-font-specification:'Liberation Mono Bold';text-align:center;text-anchor:middle"
         id="path3675" />
      <path
         d="m 384.95117,626.64792 0,-12.08985 q 0,-2.7539 -0.76172,-4.04296 -0.74218,-1.28907 -2.57812,-1.28907 -0.9961,0 -1.81641,0.44922 -0.82031,0.42969 -1.40625,1.25 -0.58594,0.80078 -0.91797,1.9336 -0.33203,1.11328 -0.33203,2.46093 l 0,11.32813 -5.48828,0 0,-16.40625 q 0,-0.6836 -0.0195,-1.40625 0,-0.72266 -0.0391,-1.36719 -0.0195,-0.66406 -0.0391,-1.17187 -0.0195,-0.52735 -0.0586,-0.78125 l 5.23438,0 q 0.0391,0.23437 0.0781,0.76171 0.0391,0.50782 0.0781,1.13282 0.0391,0.625 0.0586,1.25 0.0391,0.625 0.0391,1.05468 l 0.0781,0 q 1.11328,-2.42187 2.79297,-3.51562 1.67968,-1.09375 4.0039,-1.09375 1.71875,0 2.94922,0.56641 1.25,0.54687 2.05078,1.60156 0.80078,1.03515 1.17188,2.53906 0.39062,1.50391 0.39062,3.41797 l 0,13.41797 -5.46875,0 z"
         style="font-style:normal;font-variant:normal;font-weight:bold;font-stretch:normal;font-family:'Liberation Mono';-inkscape-font-specification:'Liberation Mono Bold';text-align:center;text-anchor:middle"
         id="path3677" />
      <path
         d="m 400.88867,605.51511 q 0.0391,0.13671 0.0977,0.54687 0.0586,0.41016 0.0976,0.91797 0.0391,0.50781 0.0586,1.03516 0.0391,0.52734 0.0391,0.9375 l 0.0781,0 q 0.52734,-1.05469 1.21093,-1.77735 0.70313,-0.74219 1.50391,-1.1914 0.80078,-0.46875 1.67969,-0.66407 0.8789,-0.21484 1.77734,-0.21484 1.85547,0 3.26172,0.82031 1.40625,0.82031 2.34375,2.28516 0.95703,1.46484 1.42578,3.47656 0.48828,1.99219 0.48828,4.35547 0,2.40234 -0.46875,4.41406 -0.46875,2.01172 -1.42578,3.47656 -0.95703,1.46485 -2.42187,2.28516 -1.44532,0.82031 -3.41797,0.82031 -0.87891,0 -1.75782,-0.19531 -0.8789,-0.19531 -1.67968,-0.625 -0.78125,-0.44922 -1.44532,-1.15234 -0.64453,-0.72266 -1.11328,-1.75782 l -0.0391,0 q 0,0.19532 0,0.58594 0.0195,0.3711 0.0195,0.85938 0,0.48828 0,1.01562 0.0195,0.52735 0.0195,1.01563 l 0,8.16406 -5.48828,0 0,-24.82422 q 0,-1.54297 -0.0586,-2.73437 -0.0586,-1.21094 -0.0977,-1.875 l 5.3125,0 z m 0.25391,10.66406 q 0,2.08984 0.37109,3.47656 0.39063,1.36719 0.9961,2.1875 0.60546,0.80078 1.32812,1.13281 0.72266,0.33203 1.42578,0.33203 0.89844,0 1.6211,-0.41015 0.74218,-0.41016 1.25,-1.28906 0.52734,-0.87891 0.80078,-2.2461 0.29297,-1.38672 0.29297,-3.32031 0,-3.59375 -1.03516,-5.39063 -1.01563,-1.79687 -2.89063,-1.79687 -0.68359,0 -1.42578,0.35156 -0.72265,0.35156 -1.34765,1.19141 -0.60547,0.83984 -0.9961,2.26562 -0.39062,1.40625 -0.39062,3.51563 z"
         style="font-style:normal;font-variant:normal;font-weight:bold;font-stretch:normal;font-family:'Liberation Mono';-inkscape-font-specification:'Liberation Mono Bold';text-align:center;text-anchor:middle"
         id="path3679" />
      <path
         d="m 432.33398,622.93698 6.89454,0 0,3.71094 -20.09766,0 0,-3.71094 7.71484,0 0,-13.71094 -5.66406,0 0,-3.71093 11.15234,0 0,17.42187 z m -5.48828,-21.23047 0,-4.04297 5.48828,0 0,4.04297 -5.48828,0 z"
         style="font-style:normal;font-variant:normal;font-weight:bold;font-stretch:normal;font-family:'Liberation Mono';-inkscape-font-specification:'Liberation Mono Bold';text-align:center;text-anchor:middle"
         id="path3681" />
      <path
         d="m 447.2168,609.22604 -3.26172,0 0,-3.71093 3.53515,0 1.71875,-5.50782 3.4375,0 0,5.50782 7.51954,0 0,3.71093 -7.51954,0 0,10.35157 q 0,0.70312 0.0391,1.34765 0.0586,0.64453 0.37109,1.15235 0.33203,0.48828 1.01563,0.80078 0.70312,0.29297 1.97265,0.29297 1.25,0 2.5,-0.13672 1.25,-0.13672 2.48047,-0.39063 l 0,3.63281 q -0.72266,0.11719 -1.44531,0.23438 -0.70313,0.11719 -1.46485,0.19531 -0.74218,0.0977 -1.58203,0.13672 -0.83984,0.0586 -1.83593,0.0586 -1.67969,0 -2.89063,-0.27343 -1.21094,-0.29297 -2.05078,-0.78125 -0.82031,-0.48828 -1.34766,-1.15235 -0.50781,-0.66406 -0.78125,-1.40625 -0.27343,-0.76172 -0.37109,-1.58203 -0.0781,-0.82031 -0.0781,-1.62109 l 0.0391,-10.85938 z"
         style="font-style:normal;font-variant:normal;font-weight:bold;font-stretch:normal;font-family:'Liberation Mono';-inkscape-font-specification:'Liberation Mono Bold';text-align:center;text-anchor:middle"
         id="path3683" />
      <path
         d="m 477.02148,627.03854 q -2.28515,0 -4.17968,-0.66406 -1.89453,-0.68359 -3.24219,-2.05078 -1.34766,-1.38672 -2.10938,-3.45703 -0.74218,-2.08985 -0.74218,-4.88281 0,-3.02735 0.85937,-5.09766 0.87891,-2.07031 2.32422,-3.33984 1.44531,-1.28907 3.30078,-1.85547 1.875,-0.56641 3.86719,-0.56641 2.5,0 4.31641,0.87891 1.83593,0.85937 3.04687,2.42187 1.21094,1.5625 1.79688,3.75 0.58593,2.16797 0.58593,4.80469 l 0,0.15625 -14.33593,0 q 0,1.32812 0.29296,2.48047 0.3125,1.13281 0.89844,1.97265 0.60547,0.82032 1.50391,1.3086 0.89844,0.46875 2.08984,0.46875 1.44531,0 2.5586,-0.60547 1.11328,-0.625 1.5039,-1.91406 l 5.17578,0.44922 q -0.35156,0.89843 -1.05468,1.91406 -0.6836,1.01562 -1.81641,1.875 -1.13281,0.83984 -2.77344,1.40625 -1.62109,0.54687 -3.86719,0.54687 z m 0,-18.45703 q -0.83984,0 -1.64062,0.29297 -0.78125,0.27344 -1.40625,0.89844 -0.60547,0.60547 -0.99609,1.58203 -0.39063,0.97656 -0.42969,2.34375 l 8.98437,0 q -0.0781,-1.26953 -0.46875,-2.22656 -0.37109,-0.95703 -0.97656,-1.60157 -0.58594,-0.64453 -1.38672,-0.95703 -0.78125,-0.33203 -1.67969,-0.33203 z"
         style="font-style:normal;font-variant:normal;font-weight:bold;font-stretch:normal;font-family:'Liberation Mono';-inkscape-font-specification:'Liberation Mono Bold';text-align:center;text-anchor:middle"
         id="path3685" />
      <path
         d="m 504.28711,622.93698 6.89453,0 0,3.71094 -20.09766,0 0,-3.71094 7.71485,0 0,-13.71094 -5.66406,0 0,-3.71093 11.15234,0 0,17.42187 z m -5.48828,-21.23047 0,-4.04297 5.48828,0 0,4.04297 -5.48828,0 z"
         style="font-style:normal;font-variant:normal;font-weight:bold;font-stretch:normal;font-family:'Liberation Mono';-inkscape-font-specification:'Liberation Mono Bold';text-align:center;text-anchor:middle"
         id="path3687" />
      <path
         d="m 519.16992,609.22604 -3.26172,0 0,-3.71093 3.53516,0 1.71875,-5.50782 3.4375,0 0,5.50782 7.51953,0 0,3.71093 -7.51953,0 0,10.35157 q 0,0.70312 0.0391,1.34765 0.0586,0.64453 0.3711,1.15235 0.33203,0.48828 1.01562,0.80078 0.70313,0.29297 1.97266,0.29297 1.25,0 2.5,-0.13672 1.25,-0.13672 2.48047,-0.39063 l 0,3.63281 q -0.72266,0.11719 -1.44532,0.23438 -0.70312,0.11719 -1.46484,0.19531 -0.74219,0.0977 -1.58203,0.13672 -0.83985,0.0586 -1.83594,0.0586 -1.67969,0 -2.89062,-0.27343 -1.21094,-0.29297 -2.05079,-0.78125 -0.82031,-0.48828 -1.34765,-1.15235 -0.50781,-0.66406 -0.78125,-1.40625 -0.27344,-0.76172 -0.3711,-1.58203 -0.0781,-0.82031 -0.0781,-1.62109 l 0.0391,-10.85938 z"
         style="font-style:normal;font-variant:normal;font-weight:bold;font-stretch:normal;font-family:'Liberation Mono';-inkscape-font-specification:'Liberation Mono Bold';text-align:center;text-anchor:middle"
         id="path3689" />
      <path
         d="m 545.32227,627.03854 q -1.52344,0 -2.73438,-0.41015 -1.19141,-0.42969 -2.03125,-1.23047 -0.83984,-0.82031 -1.28906,-2.01172 -0.44922,-1.19141 -0.44922,-2.71484 0,-1.875 0.625,-3.14454 0.625,-1.28906 1.71875,-2.07031 1.09375,-0.80078 2.57812,-1.15234 1.50391,-0.3711 3.22266,-0.39063 l 4.35547,-0.0781 0,-1.07422 q 0,-1.15234 -0.21484,-1.91406 -0.19532,-0.78125 -0.56641,-1.26953 -0.37109,-0.48829 -0.91797,-0.6836 -0.52734,-0.21484 -1.19141,-0.21484 -0.60546,0 -1.11328,0.13672 -0.50781,0.13672 -0.8789,0.48828 -0.3711,0.33203 -0.60547,0.91797 -0.23438,0.5664 -0.33203,1.44531 l -5.72266,-0.27344 q 0.23438,-1.38672 0.82031,-2.51953 0.60547,-1.15234 1.66016,-1.99219 1.07422,-0.83984 2.65625,-1.28906 1.58203,-0.46875 3.75,-0.46875 3.94531,0 6.03516,1.93359 2.10937,1.9336 2.10937,5.6836 l 0,7.65625 q 0,0.74219 0.0586,1.32812 0.0781,0.58594 0.25391,0.9961 0.19531,0.39062 0.52734,0.60547 0.35157,0.19531 0.89844,0.19531 0.625,0 1.21094,-0.11719 l 0,2.96875 q -0.48828,0.11719 -0.87891,0.21484 -0.39062,0.0977 -0.78125,0.15625 -0.39062,0.0586 -0.83984,0.0977 -0.42969,0.0391 -1.01563,0.0391 -2.07031,0 -3.0664,-1.01562 -0.97656,-1.01563 -1.17188,-2.98828 l -0.11718,0 q -0.54688,0.97656 -1.19141,1.75781 -0.625,0.76172 -1.42578,1.30859 -0.78125,0.52735 -1.75781,0.80078 -0.97657,0.29297 -2.1875,0.29297 z m 5.99609,-10.17578 -2.61719,0.0391 q -0.8789,0.0195 -1.64062,0.13672 -0.76172,0.0977 -1.32813,0.44922 -0.54687,0.33203 -0.8789,0.9961 -0.3125,0.64453 -0.3125,1.75781 0,1.5039 0.58593,2.24609 0.60547,0.72266 1.75782,0.72266 1.05468,0 1.875,-0.44922 0.82031,-0.44922 1.38671,-1.17188 0.58594,-0.74218 0.87891,-1.69921 0.29297,-0.95704 0.29297,-1.95313 l 0,-1.07422 z m -0.95703,-14.02344 0,-4.27734 4.43359,0 0,4.27734 -4.43359,0 z m -8.28125,0 0,-4.27734 4.375,0 0,4.27734 -4.375,0 z"
         style="font-style:normal;font-variant:normal;font-weight:bold;font-stretch:normal;font-family:'Liberation Mono';-inkscape-font-specification:'Liberation Mono Bold';text-align:center;text-anchor:middle"
         id="path3691" />
      <path
         d="m 574.99023,618.32761 -4.49218,0 -0.625,-18.02735 5.74218,0 -0.625,18.02735 z m -5.11718,8.32031 0,-5.27344 5.625,0 0,5.27344 -5.625,0 z"
         style="font-style:normal;font-variant:normal;font-weight:bold;font-stretch:normal;font-family:'Liberation Mono';-inkscape-font-specification:'Liberation Mono Bold';text-align:center;text-anchor:middle"
         id="path3693" />
    </g>
  </g>
</svg>
