<?xml version="1.0" encoding="UTF-8" standalone="no"?>
<!-- Created with Inkscape (http://www.inkscape.org/) -->

<svg
   xmlns:dc="http://purl.org/dc/elements/1.1/"
   xmlns:cc="http://creativecommons.org/ns#"
   xmlns:rdf="http://www.w3.org/1999/02/22-rdf-syntax-ns#"
   xmlns:svg="http://www.w3.org/2000/svg"
   xmlns="http://www.w3.org/2000/svg"
   xmlns:sodipodi="http://sodipodi.sourceforge.net/DTD/sodipodi-0.dtd"
   xmlns:inkscape="http://www.inkscape.org/namespaces/inkscape"
   width="92.681335mm"
   height="53.445835mm"
   viewBox="0 0 328.39843 189.37501"
   id="svg2"
   version="1.1"
   inkscape:version="0.91 r13725"
   sodipodi:docname="demonstration-laconic.svg">
  <defs
     id="defs4" />
  <sodipodi:namedview
     id="base"
     pagecolor="#ffffff"
     bordercolor="#666666"
     borderopacity="1.0"
     inkscape:pageopacity="0.0"
     inkscape:pageshadow="2"
     inkscape:zoom="0.98994949"
     inkscape:cx="84.938532"
     inkscape:cy="-11.037947"
     inkscape:document-units="px"
     inkscape:current-layer="layer1"
     showgrid="false"
     inkscape:window-width="1419"
     inkscape:window-height="1050"
     inkscape:window-x="2699"
     inkscape:window-y="1047"
     inkscape:window-maximized="0"
     fit-margin-top="0"
     fit-margin-left="0"
     fit-margin-right="0"
     fit-margin-bottom="0" />
  <metadata
     id="metadata7">
    <rdf:RDF>
      <cc:Work
         rdf:about="">
        <dc:format>image/svg+xml</dc:format>
        <dc:type
           rdf:resource="http://purl.org/dc/dcmitype/StillImage" />
        <dc:title></dc:title>
      </cc:Work>
    </rdf:RDF>
  </metadata>
  <g
     inkscape:label="Layer 1"
     inkscape:groupmode="layer"
     id="layer1"
     transform="translate(-255.75894,-337.66354)">
    <g
       style="font-style:normal;font-variant:normal;font-weight:normal;font-stretch:normal;font-size:40px;line-height:100%;font-family:'Liberation Mono';-inkscape-font-specification:'Liberation Mono';text-align:center;letter-spacing:0px;word-spacing:0px;text-anchor:middle;fill:#000000;fill-opacity:1;stroke:none;stroke-width:1px;stroke-linecap:butt;stroke-linejoin:miter;stroke-opacity:1"
       id="text3336">
      <path
         d="m 369.13785,360.61276 q 0,1.48438 -0.58594,2.67578 -0.56641,1.19141 -1.66016,2.03125 -1.09375,0.82032 -2.69531,1.26953 -1.58203,0.44922 -3.63281,0.44922 -1.83594,0 -3.32031,-0.27343 -1.46485,-0.25391 -2.57813,-0.85938 -1.11328,-0.60547 -1.875,-1.60156 -0.74219,-1.01563 -1.09375,-2.5 l 3.10547,-0.60547 q 0.23438,1.07422 0.74219,1.71875 0.52734,0.625 1.25,0.95703 0.74219,0.33203 1.69922,0.44922 0.95703,0.0977 2.07031,0.0977 1.13281,0 2.08984,-0.15625 0.97657,-0.17579 1.67969,-0.56641 0.70313,-0.41016 1.09375,-1.03516 0.41016,-0.64453 0.41016,-1.58203 0,-0.97656 -0.50782,-1.5625 -0.48828,-0.60547 -1.34765,-1.01562 -0.85938,-0.41016 -2.05078,-0.70313 -1.17188,-0.29297 -2.5586,-0.66406 -1.25,-0.33203 -2.48047,-0.72266 -1.23046,-0.39062 -2.20703,-1.01562 -0.95703,-0.64453 -1.5625,-1.6211 -0.58593,-0.97656 -0.58593,-2.48046 0,-2.8711 2.07031,-4.49219 2.07031,-1.6211 5.99609,-1.6211 1.54297,0 2.89063,0.29297 1.34765,0.27344 2.40234,0.89844 1.05469,0.60547 1.75781,1.58203 0.72266,0.95703 0.9961,2.30469 l -3.16407,0.39062 q -0.13671,-0.8789 -0.58593,-1.42578 -0.44922,-0.54687 -1.11328,-0.85937 -0.64454,-0.33203 -1.46485,-0.44922 -0.82031,-0.11719 -1.71875,-0.11719 -4.78515,0 -4.78515,2.94922 0,0.89844 0.41015,1.46484 0.42969,0.54688 1.19141,0.91797 0.76172,0.3711 1.8164,0.64453 1.05469,0.25391 2.32422,0.58594 1.26953,0.3125 2.59766,0.72266 1.34766,0.41015 2.44141,1.09375 1.11328,0.68359 1.8164,1.75781 0.72266,1.05469 0.72266,2.67578 z"
         style=""
         id="path3424" />
      <path
         d="m 378.70816,356.8237 q 0,1.66016 0.37109,3.06641 0.3711,1.38671 1.11329,2.40234 0.74218,0.99609 1.83593,1.5625 1.11328,0.54687 2.5586,0.54687 1.07422,0 1.97265,-0.23437 0.91797,-0.25391 1.64063,-0.68359 0.72265,-0.42969 1.21094,-1.01563 0.48828,-0.60547 0.72265,-1.30859 l 3.08594,0.8789 q -0.3125,0.87891 -0.9375,1.77735 -0.625,0.8789 -1.66016,1.60156 -1.03515,0.70312 -2.51953,1.17187 -1.48437,0.44922 -3.51562,0.44922 -2.2461,0 -4.02344,-0.70312 -1.77734,-0.70313 -3.00781,-2.08985 -1.23047,-1.38671 -1.89453,-3.45703 -0.64454,-2.08984 -0.64454,-4.84375 0,-3.04687 0.76172,-5.11718 0.78125,-2.07032 2.08985,-3.33985 1.30859,-1.26953 3.00781,-1.8164 1.71875,-0.54688 3.59375,-0.54688 2.55859,0 4.31641,0.82031 1.77734,0.82032 2.89062,2.30469 1.11328,1.46484 1.60156,3.53516 0.50782,2.07031 0.50782,4.57031 l 0,0.46875 -15.07813,0 z m 5.80078,-9.10156 q -0.89844,0 -1.89453,0.29297 -0.97656,0.27343 -1.81641,0.99609 -0.83984,0.72266 -1.42578,1.97266 -0.5664,1.23046 -0.625,3.14453 l 11.40625,0 q -0.15625,-1.83594 -0.66406,-3.06641 -0.50781,-1.23047 -1.26953,-1.97266 -0.74219,-0.74218 -1.69922,-1.05468 -0.95703,-0.3125 -2.01172,-0.3125 z"
         style=""
         id="path3426" />
      <path
         d="m 410.95425,363.87448 7.42188,0 0,2.77344 -19.17969,0 0,-2.77344 8.24219,0 0,-15.58594 -6.23047,0 0,-2.77343 9.74609,0 0,18.35937 z m -3.90625,-22.46094 0,-3.75 3.90625,0 0,3.75 -3.90625,0 z"
         style=""
         id="path3428" />
      <path
         d="m 438.23941,366.64792 -7.14844,-9.7461 -2.57812,1.91407 0,7.83203 -3.51563,0 0,-28.98438 3.51563,0 0,18.10547 9.27734,-10.2539 4.1211,0 -8.57422,9.08203 9.02343,12.05078 -4.12109,0 z"
         style=""
         id="path3430" />
      <path
         d="m 465.87613,364.47995 q 0.29297,0 0.58594,-0.0391 0.29297,-0.0391 0.5664,-0.0977 l 0,2.1875 q -0.66406,0.15625 -1.32812,0.23438 -0.64453,0.0781 -1.38672,0.0781 -0.99609,0 -1.71875,-0.25391 -0.70313,-0.27343 -1.15234,-0.80078 -0.44922,-0.54687 -0.6836,-1.32812 -0.23437,-0.80078 -0.29297,-1.85547 l -0.11718,0 q -0.54688,1.01562 -1.21094,1.83594 -0.66406,0.82031 -1.52344,1.40625 -0.85937,0.5664 -1.97266,0.8789 -1.11328,0.3125 -2.55859,0.3125 -3.08594,0 -4.64844,-1.67968 -1.5625,-1.67969 -1.5625,-4.60938 0,-2.08984 0.76172,-3.41797 0.78125,-1.34765 2.03125,-2.10937 1.25,-0.76172 2.83203,-1.05469 1.60157,-0.3125 3.24219,-0.33203 l 4.60938,-0.0781 0,-1.15234 q 0,-1.30859 -0.27344,-2.22656 -0.25391,-0.91797 -0.80078,-1.48438 -0.52735,-0.5664 -1.34766,-0.82031 -0.82031,-0.27344 -1.91406,-0.27344 -0.97656,0 -1.77735,0.15625 -0.78125,0.13672 -1.34765,0.52735 -0.56641,0.37109 -0.9375,1.03515 -0.35156,0.64453 -0.46875,1.64063 l -3.67188,-0.33203 q 0.19532,-1.25 0.72266,-2.28516 0.54687,-1.05469 1.52344,-1.81641 0.97656,-0.76172 2.4414,-1.17187 1.48438,-0.42969 3.57422,-0.42969 3.90625,0 5.85938,1.83594 1.97265,1.8164 1.97265,5.27344 l 0,9.10156 q 0,1.5625 0.41016,2.36328 0.41016,0.78125 1.5625,0.78125 z m -11.89453,-0.11719 q 1.62109,0 2.8125,-0.60547 1.1914,-0.625 1.97265,-1.5625 0.80079,-0.9375 1.19141,-2.07031 0.39063,-1.13281 0.39063,-2.16797 l 0,-1.73828 -3.71094,0.0781 q -1.07422,0.0195 -2.16797,0.17578 -1.07422,0.13672 -1.95313,0.60547 -0.85937,0.46875 -1.40625,1.36718 -0.54687,0.87891 -0.54687,2.36328 0,1.60157 0.85937,2.57813 0.87891,0.97656 2.5586,0.97656 z"
         style=""
         id="path3432" />
      <path
         d="m 472.06754,348.28854 0,-2.77343 3.32031,0 1.13281,-5.50782 2.34375,0 0,5.50782 8.4375,0 0,2.77343 -8.4375,0 0,12.73438 q 0,1.54297 0.82031,2.28515 0.83985,0.74219 2.73438,0.74219 0.78125,0 1.60156,-0.0586 0.83984,-0.0781 1.60156,-0.17578 0.78125,-0.0977 1.44532,-0.21485 0.68359,-0.11718 1.15234,-0.21484 l 0,2.67578 q -0.42969,0.11719 -1.11328,0.27344 -0.6836,0.15625 -1.54297,0.29297 -0.83984,0.13672 -1.83594,0.23437 -0.99609,0.0977 -2.05078,0.0977 -3.16406,0 -4.74609,-1.32813 -1.58203,-1.34765 -1.58203,-4.23828 l 0,-13.10547 -3.28125,0 z"
         style=""
         id="path3434" />
      <path
         d="m 268.10269,377.66354 3.53516,0 0,7.61719 q 0,0.97656 -0.0586,1.97266 -0.0586,0.97656 -0.11718,1.875 l 0.0586,0 q 0.46875,-0.91797 1.09375,-1.66016 0.625,-0.74219 1.42578,-1.25 0.80078,-0.52734 1.81641,-0.80078 1.03515,-0.29297 2.28515,-0.29297 1.6211,0 2.89063,0.42969 1.26953,0.42969 2.14844,1.32812 0.8789,0.89844 1.32812,2.30469 0.46875,1.40625 0.46875,3.37891 l 0,14.08203 -3.53515,0 0,-13.57422 q 0,-1.5625 -0.33204,-2.55859 -0.3125,-1.01563 -0.89843,-1.60157 -0.56641,-0.60547 -1.34766,-0.83984 -0.78125,-0.23438 -1.71875,-0.23438 -1.15234,0 -2.16797,0.44922 -0.99609,0.42969 -1.75781,1.26953 -0.74219,0.82032 -1.17188,2.05079 -0.42968,1.21093 -0.42968,2.79296 l 0,12.2461 -3.51563,0 0,-28.98438 z"
         style=""
         id="path3436" />
      <path
         d="m 295.60269,385.51511 0,13.39843 q 0,1.54297 0.21485,2.57813 0.23437,1.03515 0.74218,1.67969 0.52735,0.625 1.34766,0.89843 0.83984,0.25391 2.07031,0.25391 1.25,0 2.2461,-0.42969 1.01562,-0.44922 1.71875,-1.26953 0.72265,-0.83984 1.09375,-2.05078 0.39062,-1.23047 0.39062,-2.8125 l 0,-12.24609 3.53516,0 0,16.62109 q 0,0.66406 0,1.40625 0.0195,0.72266 0.0391,1.38672 0.0195,0.64453 0.0391,1.11328 0.0195,0.46875 0.0391,0.60547 l -3.32031,0 q -0.0195,-0.0977 -0.0391,-0.52735 -0.0195,-0.42968 -0.0586,-0.97656 -0.0195,-0.5664 -0.0391,-1.13281 -0.0195,-0.58594 -0.0195,-0.97656 l -0.0586,0 q -0.50781,0.91797 -1.11328,1.66015 -0.60547,0.74219 -1.40625,1.26953 -0.80078,0.50782 -1.83594,0.78125 -1.03516,0.29297 -2.40234,0.29297 -1.75782,0 -3.02735,-0.42968 -1.26953,-0.42969 -2.08984,-1.32813 -0.82031,-0.89844 -1.21094,-2.30469 -0.37109,-1.42578 -0.37109,-3.3789 l 0,-14.08203 3.51562,0 z"
         style=""
         id="path3438" />
      <path
         d="m 333.88394,396.06198 q 0,2.77344 -0.66406,4.84375 -0.64453,2.05078 -1.875,3.41797 -1.23047,1.36719 -3.00781,2.05078 -1.75782,0.66406 -3.98438,0.66406 -2.1289,0 -3.86719,-0.66406 -1.71875,-0.66406 -2.94921,-2.03125 -1.21094,-1.36719 -1.875,-3.41797 -0.66407,-2.07031 -0.66407,-4.86328 0,-5.44922 2.46094,-8.18359 2.48047,-2.75391 7.01172,-2.75391 4.76562,0 7.08984,2.71484 2.32422,2.71485 2.32422,8.22266 z m -3.6914,0 q 0,-2.46094 -0.42969,-4.0625 -0.41016,-1.60156 -1.17188,-2.55859 -0.74218,-0.95703 -1.77734,-1.32813 -1.03516,-0.39062 -2.28516,-0.39062 -1.26953,0 -2.34375,0.41015 -1.07422,0.39063 -1.85547,1.36719 -0.76171,0.95703 -1.21093,2.55859 -0.42969,1.60157 -0.42969,4.00391 0,2.46094 0.44922,4.08203 0.46875,1.60156 1.23047,2.5586 0.78125,0.95703 1.79687,1.34765 1.03516,0.39063 2.14844,0.39063 1.26953,0 2.34375,-0.3711 1.09375,-0.39062 1.875,-1.34765 0.78125,-0.95703 1.21094,-2.57813 0.44922,-1.62109 0.44922,-4.08203 z"
         style=""
         id="path3440" />
      <path
         d="m 346.81363,406.64792 0,-13.39844 q 0,-1.54297 -0.11719,-2.57812 -0.11719,-1.03516 -0.39062,-1.66016 -0.25391,-0.64453 -0.6836,-0.89844 -0.41015,-0.27344 -1.03515,-0.27344 -0.64453,0 -1.15235,0.50782 -0.50781,0.48828 -0.8789,1.40625 -0.3711,0.89843 -0.56641,2.1875 -0.19531,1.26953 -0.19531,2.85156 l 0,11.85547 -3.30078,0 0,-16.6211 q 0,-0.66406 -0.0195,-1.38671 0,-0.74219 -0.0195,-1.38672 -0.0195,-0.66407 -0.0391,-1.13282 -0.0195,-0.46875 -0.0391,-0.60546 l 2.91016,0 q 0.0195,0.0976 0.0391,0.50781 0.0195,0.39062 0.0391,0.91797 0.0195,0.50781 0.0195,1.05468 0.0195,0.54688 0.0195,0.9375 l 0.0391,0 q 0.2539,-0.76171 0.60546,-1.44531 0.35157,-0.70312 0.83985,-1.23047 0.50781,-0.52734 1.1914,-0.82031 0.6836,-0.3125 1.58204,-0.3125 1.71875,0 2.55859,0.9375 0.85937,0.9375 1.23047,2.89063 l 0.0391,0 q 0.35156,-0.91797 0.76172,-1.6211 0.42969,-0.72265 0.97656,-1.21094 0.54688,-0.48828 1.25,-0.74218 0.70313,-0.25391 1.6211,-0.25391 1.1914,0 2.01171,0.42969 0.82032,0.42969 1.32813,1.32812 0.50781,0.89844 0.72266,2.30469 0.23437,1.40625 0.23437,3.37891 l 0,14.08203 -3.28125,0 0,-13.39844 q 0,-1.54297 -0.11719,-2.57812 -0.11718,-1.03516 -0.39062,-1.66016 -0.25391,-0.64453 -0.6836,-0.89844 -0.41015,-0.27344 -1.03515,-0.27344 -1.28906,0 -2.05078,1.64063 -0.74219,1.64062 -0.74219,4.92187 l 0,12.2461 -3.28125,0 z"
         style=""
         id="path3442" />
      <path
         d="m 374.97769,403.87448 7.42188,0 0,2.77344 -19.17969,0 0,-2.77344 8.24219,0 0,-15.58594 -6.23047,0 0,-2.77343 9.74609,0 0,18.35937 z m -3.90625,-22.46094 0,-3.75 3.90625,0 0,3.75 -3.90625,0 z"
         style=""
         id="path3444" />
      <path
         d="m 405.83707,396.06198 q 0,2.77344 -0.66407,4.84375 -0.64453,2.05078 -1.875,3.41797 -1.23046,1.36719 -3.00781,2.05078 -1.75781,0.66406 -3.98437,0.66406 -2.12891,0 -3.86719,-0.66406 -1.71875,-0.66406 -2.94922,-2.03125 -1.21094,-1.36719 -1.875,-3.41797 -0.66406,-2.07031 -0.66406,-4.86328 0,-5.44922 2.46094,-8.18359 2.48046,-2.75391 7.01171,-2.75391 4.76563,0 7.08985,2.71484 2.32422,2.71485 2.32422,8.22266 z m -3.69141,0 q 0,-2.46094 -0.42969,-4.0625 -0.41015,-1.60156 -1.17187,-2.55859 -0.74219,-0.95703 -1.77735,-1.32813 -1.03515,-0.39062 -2.28515,-0.39062 -1.26953,0 -2.34375,0.41015 -1.07422,0.39063 -1.85547,1.36719 -0.76172,0.95703 -1.21094,2.55859 -0.42969,1.60157 -0.42969,4.00391 0,2.46094 0.44922,4.08203 0.46875,1.60156 1.23047,2.5586 0.78125,0.95703 1.79688,1.34765 1.03515,0.39063 2.14843,0.39063 1.26954,0 2.34375,-0.3711 1.09375,-0.39062 1.875,-1.34765 0.78125,-0.95703 1.21094,-2.57813 0.44922,-1.62109 0.44922,-4.08203 z"
         style=""
         id="path3446" />
      <path
         d="m 422.94644,403.87448 7.42188,0 0,2.77344 -19.17969,0 0,-2.77344 8.24219,0 0,-15.58594 -6.23047,0 0,-2.77343 9.74609,0 0,18.35937 z m -3.90625,-22.46094 0,-3.75 3.90625,0 0,3.75 -3.90625,0 z"
         style=""
         id="path3448" />
      <path
         d="m 436.09097,388.28854 0,-2.77343 3.32032,0 1.13281,-5.50782 2.34375,0 0,5.50782 8.4375,0 0,2.77343 -8.4375,0 0,12.73438 q 0,1.54297 0.82031,2.28515 0.83984,0.74219 2.73438,0.74219 0.78125,0 1.60156,-0.0586 0.83984,-0.0781 1.60156,-0.17578 0.78125,-0.0977 1.44531,-0.21485 0.6836,-0.11718 1.15235,-0.21484 l 0,2.67578 q -0.42969,0.11719 -1.11328,0.27344 -0.6836,0.15625 -1.54297,0.29297 -0.83985,0.13672 -1.83594,0.23437 -0.99609,0.0977 -2.05078,0.0977 -3.16406,0 -4.7461,-1.32813 -1.58203,-1.34765 -1.58203,-4.23828 l 0,-13.10547 -3.28125,0 z"
         style=""
         id="path3450" />
      <path
         d="m 477.86832,404.47995 q 0.29297,0 0.58593,-0.0391 0.29297,-0.0391 0.56641,-0.0977 l 0,2.1875 q -0.66406,0.15625 -1.32812,0.23438 -0.64454,0.0781 -1.38672,0.0781 -0.9961,0 -1.71875,-0.25391 -0.70313,-0.27343 -1.15235,-0.80078 -0.44922,-0.54687 -0.68359,-1.32812 -0.23438,-0.80078 -0.29297,-1.85547 l -0.11719,0 q -0.54687,1.01562 -1.21093,1.83594 -0.66407,0.82031 -1.52344,1.40625 -0.85938,0.5664 -1.97266,0.8789 -1.11328,0.3125 -2.55859,0.3125 -3.08594,0 -4.64844,-1.67968 -1.5625,-1.67969 -1.5625,-4.60938 0,-2.08984 0.76172,-3.41797 0.78125,-1.34765 2.03125,-2.10937 1.25,-0.76172 2.83203,-1.05469 1.60156,-0.3125 3.24219,-0.33203 l 4.60937,-0.0781 0,-1.15234 q 0,-1.30859 -0.27343,-2.22656 -0.25391,-0.91797 -0.80079,-1.48438 -0.52734,-0.5664 -1.34765,-0.82031 -0.82031,-0.27344 -1.91406,-0.27344 -0.97657,0 -1.77735,0.15625 -0.78125,0.13672 -1.34765,0.52735 -0.56641,0.37109 -0.9375,1.03515 -0.35157,0.64453 -0.46875,1.64063 l -3.67188,-0.33203 q 0.19531,-1.25 0.72266,-2.28516 0.54687,-1.05469 1.52343,-1.81641 0.97657,-0.76172 2.44141,-1.17187 1.48438,-0.42969 3.57422,-0.42969 3.90625,0 5.85937,1.83594 1.97266,1.8164 1.97266,5.27344 l 0,9.10156 q 0,1.5625 0.41016,2.36328 0.41015,0.78125 1.5625,0.78125 z m -11.89453,-0.11719 q 1.62109,0 2.8125,-0.60547 1.1914,-0.625 1.97265,-1.5625 0.80078,-0.9375 1.19141,-2.07031 0.39062,-1.13281 0.39062,-2.16797 l 0,-1.73828 -3.71093,0.0781 q -1.07422,0.0195 -2.16797,0.17578 -1.07422,0.13672 -1.95313,0.60547 -0.85937,0.46875 -1.40625,1.36718 -0.54687,0.87891 -0.54687,2.36328 0,1.60157 0.85937,2.57813 0.87891,0.97656 2.5586,0.97656 z"
         style=""
         id="path3452" />
      <path
         d="m 498.20035,406.64792 -7.14844,-9.7461 -2.57812,1.91407 0,7.83203 -3.51563,0 0,-28.98438 3.51563,0 0,18.10547 9.27734,-10.2539 4.12109,0 -8.57422,9.08203 9.02344,12.05078 -4.12109,0 z"
         style=""
         id="path3454" />
      <path
         d="m 525.75894,396.06198 q 0,2.77344 -0.66406,4.84375 -0.64453,2.05078 -1.875,3.41797 -1.23047,1.36719 -3.00781,2.05078 -1.75782,0.66406 -3.98438,0.66406 -2.1289,0 -3.86719,-0.66406 -1.71875,-0.66406 -2.94921,-2.03125 -1.21094,-1.36719 -1.875,-3.41797 -0.66407,-2.07031 -0.66407,-4.86328 0,-5.44922 2.46094,-8.18359 2.48047,-2.75391 7.01172,-2.75391 4.76562,0 7.08984,2.71484 2.32422,2.71485 2.32422,8.22266 z m -3.6914,0 q 0,-2.46094 -0.42969,-4.0625 -0.41016,-1.60156 -1.17188,-2.55859 -0.74218,-0.95703 -1.77734,-1.32813 -1.03516,-0.39062 -2.28516,-0.39062 -1.26953,0 -2.34375,0.41015 -1.07422,0.39063 -1.85547,1.36719 -0.76171,0.95703 -1.21093,2.55859 -0.42969,1.60157 -0.42969,4.00391 0,2.46094 0.44922,4.08203 0.46875,1.60156 1.23047,2.5586 0.78125,0.95703 1.79687,1.34765 1.03516,0.39063 2.14844,0.39063 1.26953,0 2.34375,-0.3711 1.09375,-0.39062 1.875,-1.34765 0.78125,-0.95703 1.21094,-2.57813 0.44922,-1.62109 0.44922,-4.08203 z"
         style=""
         id="path3456" />
      <path
         d="m 549.74332,396.06198 q 0,2.77344 -0.66407,4.84375 -0.64453,2.05078 -1.875,3.41797 -1.23046,1.36719 -3.00781,2.05078 -1.75781,0.66406 -3.98437,0.66406 -2.12891,0 -3.86719,-0.66406 -1.71875,-0.66406 -2.94922,-2.03125 -1.21094,-1.36719 -1.875,-3.41797 -0.66406,-2.07031 -0.66406,-4.86328 0,-5.44922 2.46094,-8.18359 2.48046,-2.75391 7.01171,-2.75391 4.76563,0 7.08985,2.71484 2.32422,2.71485 2.32422,8.22266 z m -3.69141,0 q 0,-2.46094 -0.42969,-4.0625 -0.41015,-1.60156 -1.17187,-2.55859 -0.74219,-0.95703 -1.77735,-1.32813 -1.03515,-0.39062 -2.28515,-0.39062 -1.26953,0 -2.34375,0.41015 -1.07422,0.39063 -1.85547,1.36719 -0.76172,0.95703 -1.21094,2.55859 -0.42969,1.60157 -0.42969,4.00391 0,2.46094 0.44922,4.08203 0.46875,1.60156 1.23047,2.5586 0.78125,0.95703 1.79688,1.34765 1.03515,0.39063 2.14843,0.39063 1.26954,0 2.34375,-0.3711 1.09375,-0.39062 1.875,-1.34765 0.78125,-0.95703 1.21094,-2.57813 0.44922,-1.62109 0.44922,-4.08203 z"
         style=""
         id="path3458" />
      <path
         d="m 556.01285,388.28854 0,-2.77343 3.32031,0 1.13281,-5.50782 2.34375,0 0,5.50782 8.4375,0 0,2.77343 -8.4375,0 0,12.73438 q 0,1.54297 0.82032,2.28515 0.83984,0.74219 2.73437,0.74219 0.78125,0 1.60156,-0.0586 0.83985,-0.0781 1.60157,-0.17578 0.78125,-0.0977 1.44531,-0.21485 0.68359,-0.11718 1.15234,-0.21484 l 0,2.67578 q -0.42969,0.11719 -1.11328,0.27344 -0.68359,0.15625 -1.54297,0.29297 -0.83984,0.13672 -1.83594,0.23437 -0.99609,0.0977 -2.05078,0.0977 -3.16406,0 -4.74609,-1.32813 -1.58203,-1.34765 -1.58203,-4.23828 l 0,-13.10547 -3.28125,0 z"
         style=""
         id="path3460" />
      <path
         d="m 280.19254,468.28854 0,-2.77343 3.32031,0 1.13281,-5.50782 2.34375,0 0,5.50782 8.4375,0 0,2.77343 -8.4375,0 0,12.73438 q 0,1.54297 0.82031,2.28515 0.83985,0.74219 2.73438,0.74219 0.78125,0 1.60156,-0.0586 0.83984,-0.0781 1.60156,-0.17578 0.78125,-0.0977 1.44532,-0.21485 0.68359,-0.11718 1.15234,-0.21484 l 0,2.67578 q -0.42969,0.11719 -1.11328,0.27344 -0.6836,0.15625 -1.54297,0.29297 -0.83984,0.13672 -1.83594,0.23437 -0.99609,0.0977 -2.05078,0.0977 -3.16406,0 -4.74609,-1.32813 -1.58203,-1.34765 -1.58203,-4.23828 l 0,-13.10547 -3.28125,0 z"
         style=""
         id="path3462" />
      <path
         d="m 321.89175,476.06198 q 0,2.77344 -0.66406,4.84375 -0.64453,2.05078 -1.875,3.41797 -1.23047,1.36719 -3.00781,2.05078 -1.75781,0.66406 -3.98438,0.66406 -2.1289,0 -3.86718,-0.66406 -1.71875,-0.66406 -2.94922,-2.03125 -1.21094,-1.36719 -1.875,-3.41797 -0.66406,-2.07031 -0.66406,-4.86328 0,-5.44922 2.46093,-8.18359 2.48047,-2.75391 7.01172,-2.75391 4.76563,0 7.08985,2.71484 2.32421,2.71485 2.32421,8.22266 z m -3.6914,0 q 0,-2.46094 -0.42969,-4.0625 -0.41016,-1.60156 -1.17187,-2.55859 -0.74219,-0.95703 -1.77735,-1.32813 -1.03515,-0.39062 -2.28515,-0.39062 -1.26954,0 -2.34375,0.41015 -1.07422,0.39063 -1.85547,1.36719 -0.76172,0.95703 -1.21094,2.55859 -0.42969,1.60157 -0.42969,4.00391 0,2.46094 0.44922,4.08203 0.46875,1.60156 1.23047,2.5586 0.78125,0.95703 1.79687,1.34765 1.03516,0.39063 2.14844,0.39063 1.26953,0 2.34375,-0.3711 1.09375,-0.39062 1.875,-1.34765 0.78125,-0.95703 1.21094,-2.57813 0.44922,-1.62109 0.44922,-4.08203 z"
         style=""
         id="path3464" />
      <path
         d="m 339.00113,483.87448 7.42187,0 0,2.77344 -19.17968,0 0,-2.77344 8.24218,0 0,-15.58594 -6.23046,0 0,-2.77343 9.74609,0 0,18.35937 z m -3.90625,-22.46094 0,-3.75 3.90625,0 0,3.75 -3.90625,0 z"
         style=""
         id="path3466" />
      <path
         d="m 358.80582,486.64792 0,-13.39844 q 0,-1.54297 -0.11719,-2.57812 -0.11719,-1.03516 -0.39063,-1.66016 -0.2539,-0.64453 -0.68359,-0.89844 -0.41016,-0.27344 -1.03516,-0.27344 -0.64453,0 -1.15234,0.50782 -0.50781,0.48828 -0.87891,1.40625 -0.37109,0.89843 -0.5664,2.1875 -0.19531,1.26953 -0.19531,2.85156 l 0,11.85547 -3.30079,0 0,-16.6211 q 0,-0.66406 -0.0195,-1.38671 0,-0.74219 -0.0195,-1.38672 -0.0195,-0.66407 -0.0391,-1.13282 -0.0195,-0.46875 -0.0391,-0.60546 l 2.91015,0 q 0.0195,0.0976 0.0391,0.50781 0.0195,0.39062 0.0391,0.91797 0.0195,0.50781 0.0195,1.05468 0.0195,0.54688 0.0195,0.9375 l 0.0391,0 q 0.25391,-0.76171 0.60547,-1.44531 0.35156,-0.70312 0.83985,-1.23047 0.50781,-0.52734 1.1914,-0.82031 0.6836,-0.3125 1.58203,-0.3125 1.71875,0 2.5586,0.9375 0.85937,0.9375 1.23047,2.89063 l 0.0391,0 q 0.35156,-0.91797 0.76172,-1.6211 0.42968,-0.72265 0.97656,-1.21094 0.54687,-0.48828 1.25,-0.74218 0.70312,-0.25391 1.62109,-0.25391 1.19141,0 2.01172,0.42969 0.82031,0.42969 1.32813,1.32812 0.50781,0.89844 0.72265,2.30469 0.23438,1.40625 0.23438,3.37891 l 0,14.08203 -3.28125,0 0,-13.39844 q 0,-1.54297 -0.11719,-2.57812 -0.11719,-1.03516 -0.39062,-1.66016 -0.25391,-0.64453 -0.6836,-0.89844 -0.41015,-0.27344 -1.03515,-0.27344 -1.28907,0 -2.05079,1.64063 -0.74218,1.64062 -0.74218,4.92187 l 0,12.2461 -3.28125,0 z"
         style=""
         id="path3468" />
      <path
         d="m 378.70816,476.8237 q 0,1.66016 0.37109,3.06641 0.3711,1.38671 1.11329,2.40234 0.74218,0.99609 1.83593,1.5625 1.11328,0.54687 2.5586,0.54687 1.07422,0 1.97265,-0.23437 0.91797,-0.25391 1.64063,-0.68359 0.72265,-0.42969 1.21094,-1.01563 0.48828,-0.60547 0.72265,-1.30859 l 3.08594,0.8789 q -0.3125,0.87891 -0.9375,1.77735 -0.625,0.8789 -1.66016,1.60156 -1.03515,0.70312 -2.51953,1.17187 -1.48437,0.44922 -3.51562,0.44922 -2.2461,0 -4.02344,-0.70312 -1.77734,-0.70313 -3.00781,-2.08985 -1.23047,-1.38671 -1.89453,-3.45703 -0.64454,-2.08984 -0.64454,-4.84375 0,-3.04687 0.76172,-5.11718 0.78125,-2.07032 2.08985,-3.33985 1.30859,-1.26953 3.00781,-1.8164 1.71875,-0.54688 3.59375,-0.54688 2.55859,0 4.31641,0.82031 1.77734,0.82032 2.89062,2.30469 1.11328,1.46484 1.60156,3.53516 0.50782,2.07031 0.50782,4.57031 l 0,0.46875 -15.07813,0 z m 5.80078,-9.10156 q -0.89844,0 -1.89453,0.29297 -0.97656,0.27343 -1.81641,0.99609 -0.83984,0.72266 -1.42578,1.97266 -0.5664,1.23046 -0.625,3.14453 l 11.40625,0 q -0.15625,-1.83594 -0.66406,-3.06641 -0.50781,-1.23047 -1.26953,-1.97266 -0.74219,-0.74218 -1.69922,-1.05468 -0.95703,-0.3125 -2.01172,-0.3125 z"
         style=""
         id="path3470" />
      <path
         d="m 413.3566,486.64792 0,-13.57422 q 0,-1.5625 -0.33203,-2.55859 -0.3125,-1.01563 -0.89844,-1.60157 -0.56641,-0.60547 -1.34766,-0.83984 -0.78125,-0.23438 -1.71875,-0.23438 -1.15234,0 -2.16797,0.44922 -0.99609,0.42969 -1.75781,1.26953 -0.74219,0.82032 -1.17187,2.05079 -0.42969,1.21093 -0.42969,2.79296 l 0,12.2461 -3.51563,0 0,-16.6211 q 0,-0.66406 -0.0195,-1.38671 0,-0.74219 -0.0195,-1.38672 -0.0195,-0.66407 -0.0391,-1.13282 -0.0195,-0.46875 -0.0391,-0.60546 l 3.32031,0 q 0.0195,0.0976 0.0391,0.52734 0.0195,0.42969 0.0391,0.99609 0.0391,0.54688 0.0586,1.13282 0.0195,0.5664 0.0195,0.95703 l 0.0586,0 q 0.46875,-0.91797 1.09375,-1.66016 0.64453,-0.74219 1.46485,-1.25 0.83984,-0.52734 1.875,-0.80078 1.03515,-0.29297 2.32422,-0.29297 1.62109,0 2.87109,0.42969 1.25,0.42969 2.08984,1.32812 0.85938,0.89844 1.28907,2.30469 0.44921,1.40625 0.44921,3.37891 l 0,14.08203 -3.53515,0 z"
         style=""
         id="path3472" />
      <path
         d="m 441.67691,475.98386 q 0,2.40234 -0.39062,4.43359 -0.39063,2.03125 -1.28907,3.49609 -0.89843,1.46485 -2.36328,2.30469 -1.46484,0.82031 -3.61328,0.82031 -1.07422,0 -2.05078,-0.19531 -0.97656,-0.19531 -1.81641,-0.625 -0.83984,-0.42969 -1.5039,-1.11328 -0.64453,-0.68359 -1.09375,-1.66016 l -0.0977,0 q 0.0195,0.0391 0.0195,0.35157 0.0195,0.29296 0.0195,0.74218 0.0195,0.44922 0.0195,1.01563 0.0195,0.5664 0.0195,1.13281 l 0,8.26172 -3.53516,0 0,-25.05859 q 0,-0.78125 -0.0195,-1.50391 0,-0.72266 -0.0195,-1.28906 -0.0195,-0.58594 -0.0391,-0.9961 -0.0195,-0.41015 -0.0391,-0.58593 l 3.41797,0 q 0.0195,0.0586 0.0391,0.42968 0.0391,0.35157 0.0586,0.85938 0.0391,0.50781 0.0586,1.09375 0.0391,0.58594 0.0391,1.09375 l 0.0781,0 q 0.48828,-1.01563 1.09375,-1.75781 0.625,-0.74219 1.40625,-1.21094 0.78125,-0.48828 1.75781,-0.70313 0.97656,-0.23437 2.1875,-0.23437 2.14844,0 3.61328,0.78125 1.46485,0.78125 2.36328,2.22656 0.89844,1.42578 1.28907,3.4375 0.39062,2.01172 0.39062,4.45313 z m -3.63281,0 q 0,-1.95313 -0.23438,-3.47657 -0.23437,-1.52343 -0.82031,-2.55859 -0.56641,-1.05469 -1.52344,-1.60156 -0.9375,-0.54688 -2.36328,-0.54688 -1.15234,0 -2.16797,0.3711 -1.01562,0.35156 -1.77734,1.30859 -0.74219,0.9375 -1.19141,2.61719 -0.42968,1.67968 -0.42968,4.3164 0,2.2461 0.35156,3.78907 0.37109,1.52343 1.07422,2.48046 0.70312,0.9375 1.73828,1.34766 1.03515,0.41016 2.36328,0.41016 1.42578,0 2.38281,-0.54688 0.95703,-0.5664 1.52344,-1.64062 0.58594,-1.07422 0.82031,-2.65625 0.25391,-1.58203 0.25391,-3.61328 z"
         style=""
         id="path3474" />
      <path
         d="m 458.923,483.87448 7.42188,0 0,2.77344 -19.17969,0 0,-2.77344 8.24219,0 0,-15.58594 -6.23047,0 0,-2.77343 9.74609,0 0,18.35937 z m -3.90625,-22.46094 0,-3.75 3.90625,0 0,3.75 -3.90625,0 z"
         style=""
         id="path3476" />
      <path
         d="m 472.06754,468.28854 0,-2.77343 3.32031,0 1.13281,-5.50782 2.34375,0 0,5.50782 8.4375,0 0,2.77343 -8.4375,0 0,12.73438 q 0,1.54297 0.82031,2.28515 0.83985,0.74219 2.73438,0.74219 0.78125,0 1.60156,-0.0586 0.83984,-0.0781 1.60156,-0.17578 0.78125,-0.0977 1.44532,-0.21485 0.68359,-0.11718 1.15234,-0.21484 l 0,2.67578 q -0.42969,0.11719 -1.11328,0.27344 -0.6836,0.15625 -1.54297,0.29297 -0.83984,0.13672 -1.83594,0.23437 -0.99609,0.0977 -2.05078,0.0977 -3.16406,0 -4.74609,-1.32813 -1.58203,-1.34765 -1.58203,-4.23828 l 0,-13.10547 -3.28125,0 z"
         style=""
         id="path3478" />
      <path
         d="m 498.63004,476.8237 q 0,1.66016 0.37109,3.06641 0.37109,1.38671 1.11328,2.40234 0.74219,0.99609 1.83594,1.5625 1.11328,0.54687 2.55859,0.54687 1.07422,0 1.97266,-0.23437 0.91797,-0.25391 1.64062,-0.68359 0.72266,-0.42969 1.21094,-1.01563 0.48828,-0.60547 0.72266,-1.30859 l 3.08593,0.8789 q -0.3125,0.87891 -0.9375,1.77735 -0.625,0.8789 -1.66015,1.60156 -1.03516,0.70312 -2.51953,1.17187 -1.48438,0.44922 -3.51563,0.44922 -2.24609,0 -4.02344,-0.70312 -1.77734,-0.70313 -3.00781,-2.08985 -1.23047,-1.38671 -1.89453,-3.45703 -0.64453,-2.08984 -0.64453,-4.84375 0,-3.04687 0.76172,-5.11718 0.78125,-2.07032 2.08984,-3.33985 1.3086,-1.26953 3.00781,-1.8164 1.71875,-0.54688 3.59375,-0.54688 2.5586,0 4.31641,0.82031 1.77734,0.82032 2.89063,2.30469 1.11328,1.46484 1.60156,3.53516 0.50781,2.07031 0.50781,4.57031 l 0,0.46875 -15.07812,0 z m 5.80078,-9.10156 q -0.89844,0 -1.89453,0.29297 -0.97657,0.27343 -1.81641,0.99609 -0.83984,0.72266 -1.42578,1.97266 -0.56641,1.23046 -0.625,3.14453 l 11.40625,0 q -0.15625,-1.83594 -0.66406,-3.06641 -0.50782,-1.23047 -1.26954,-1.97266 -0.74218,-0.74218 -1.69921,-1.05468 -0.95704,-0.3125 -2.01172,-0.3125 z"
         style=""
         id="path3480" />
      <path
         d="m 522.61441,476.8237 q 0,1.66016 0.37109,3.06641 0.3711,1.38671 1.11329,2.40234 0.74218,0.99609 1.83593,1.5625 1.11328,0.54687 2.5586,0.54687 1.07422,0 1.97265,-0.23437 0.91797,-0.25391 1.64063,-0.68359 0.72265,-0.42969 1.21094,-1.01563 0.48828,-0.60547 0.72265,-1.30859 l 3.08594,0.8789 q -0.3125,0.87891 -0.9375,1.77735 -0.625,0.8789 -1.66016,1.60156 -1.03515,0.70312 -2.51953,1.17187 -1.48437,0.44922 -3.51562,0.44922 -2.2461,0 -4.02344,-0.70312 -1.77734,-0.70313 -3.00781,-2.08985 -1.23047,-1.38671 -1.89453,-3.45703 -0.64454,-2.08984 -0.64454,-4.84375 0,-3.04687 0.76172,-5.11718 0.78125,-2.07032 2.08985,-3.33985 1.30859,-1.26953 3.00781,-1.8164 1.71875,-0.54688 3.59375,-0.54688 2.55859,0 4.31641,0.82031 1.77734,0.82032 2.89062,2.30469 1.11328,1.46484 1.60156,3.53516 0.50782,2.07031 0.50782,4.57031 l 0,0.46875 -15.07813,0 z m 5.80078,-9.10156 q -0.89844,0 -1.89453,0.29297 -0.97656,0.27343 -1.81641,0.99609 -0.83984,0.72266 -1.42578,1.97266 -0.5664,1.23046 -0.625,3.14453 l 11.40625,0 q -0.15625,-1.83594 -0.66406,-3.06641 -0.50781,-1.23047 -1.26953,-1.97266 -0.74219,-0.74218 -1.69922,-1.05468 -0.95703,-0.3125 -2.01172,-0.3125 z"
         style=""
         id="path3482" />
      <path
         d="m 544.02066,468.28854 0,-2.77343 3.32031,0 1.13282,-5.50782 2.34375,0 0,5.50782 8.4375,0 0,2.77343 -8.4375,0 0,12.73438 q 0,1.54297 0.82031,2.28515 0.83984,0.74219 2.73437,0.74219 0.78125,0 1.60157,-0.0586 0.83984,-0.0781 1.60156,-0.17578 0.78125,-0.0977 1.44531,-0.21485 0.68359,-0.11718 1.15234,-0.21484 l 0,2.67578 q -0.42968,0.11719 -1.11328,0.27344 -0.68359,0.15625 -1.54297,0.29297 -0.83984,0.13672 -1.83593,0.23437 -0.9961,0.0977 -2.05078,0.0977 -3.16407,0 -4.7461,-1.32813 -1.58203,-1.34765 -1.58203,-4.23828 l 0,-13.10547 -3.28125,0 z"
         style=""
         id="path3484" />
      <path
         d="m 273.20035,520.61276 q 0,1.48438 -0.58594,2.67578 -0.56641,1.19141 -1.66016,2.03125 -1.09375,0.82032 -2.69531,1.26953 -1.58203,0.44922 -3.63281,0.44922 -1.83594,0 -3.32031,-0.27343 -1.46485,-0.25391 -2.57813,-0.85938 -1.11328,-0.60547 -1.875,-1.60156 -0.74219,-1.01563 -1.09375,-2.5 l 3.10547,-0.60547 q 0.23438,1.07422 0.74219,1.71875 0.52734,0.625 1.25,0.95703 0.74219,0.33203 1.69922,0.44922 0.95703,0.0977 2.07031,0.0977 1.13281,0 2.08984,-0.15625 0.97657,-0.17579 1.67969,-0.56641 0.70313,-0.41016 1.09375,-1.03516 0.41016,-0.64453 0.41016,-1.58203 0,-0.97656 -0.50782,-1.5625 -0.48828,-0.60547 -1.34765,-1.01562 -0.85938,-0.41016 -2.05078,-0.70313 -1.17188,-0.29297 -2.5586,-0.66406 -1.25,-0.33203 -2.48047,-0.72266 -1.23046,-0.39062 -2.20703,-1.01562 -0.95703,-0.64453 -1.5625,-1.6211 -0.58593,-0.97656 -0.58593,-2.48046 0,-2.8711 2.07031,-4.49219 2.07031,-1.6211 5.99609,-1.6211 1.54297,0 2.89063,0.29297 1.34765,0.27344 2.40234,0.89844 1.05469,0.60547 1.75781,1.58203 0.72266,0.95703 0.9961,2.30469 l -3.16407,0.39062 q -0.13671,-0.8789 -0.58593,-1.42578 -0.44922,-0.54687 -1.11328,-0.85937 -0.64454,-0.33203 -1.46485,-0.44922 -0.82031,-0.11719 -1.71875,-0.11719 -4.78515,0 -4.78515,2.94922 0,0.89844 0.41015,1.46484 0.42969,0.54688 1.19141,0.91797 0.76172,0.3711 1.8164,0.64453 1.05469,0.25391 2.32422,0.58594 1.26953,0.3125 2.59766,0.72266 1.34766,0.41015 2.44141,1.09375 1.11328,0.68359 1.8164,1.75781 0.72266,1.05469 0.72266,2.67578 z"
         style=""
         id="path3486" />
      <path
         d="m 283.6105,505.51511 0,13.39843 q 0,1.54297 0.21485,2.57813 0.23437,1.03515 0.74219,1.67969 0.52734,0.625 1.34765,0.89843 0.83985,0.25391 2.07031,0.25391 1.25,0 2.2461,-0.42969 1.01562,-0.44922 1.71875,-1.26953 0.72265,-0.83984 1.09375,-2.05078 0.39062,-1.23047 0.39062,-2.8125 l 0,-12.24609 3.53516,0 0,16.62109 q 0,0.66406 0,1.40625 0.0195,0.72266 0.0391,1.38672 0.0195,0.64453 0.0391,1.11328 0.0195,0.46875 0.0391,0.60547 l -3.32032,0 q -0.0195,-0.0977 -0.0391,-0.52735 -0.0195,-0.42968 -0.0586,-0.97656 -0.0195,-0.5664 -0.0391,-1.13281 -0.0195,-0.58594 -0.0195,-0.97656 l -0.0586,0 q -0.50781,0.91797 -1.11328,1.66015 -0.60547,0.74219 -1.40625,1.26953 -0.80078,0.50782 -1.83594,0.78125 -1.03515,0.29297 -2.40234,0.29297 -1.75781,0 -3.02735,-0.42968 -1.26953,-0.42969 -2.08984,-1.32813 -0.82031,-0.89844 -1.21094,-2.30469 -0.37109,-1.42578 -0.37109,-3.3789 l 0,-14.08203 3.51562,0 z"
         style=""
         id="path3488" />
      <path
         d="m 321.89175,516.06198 q 0,2.77344 -0.66406,4.84375 -0.64453,2.05078 -1.875,3.41797 -1.23047,1.36719 -3.00781,2.05078 -1.75781,0.66406 -3.98438,0.66406 -2.1289,0 -3.86718,-0.66406 -1.71875,-0.66406 -2.94922,-2.03125 -1.21094,-1.36719 -1.875,-3.41797 -0.66406,-2.07031 -0.66406,-4.86328 0,-5.44922 2.46093,-8.18359 2.48047,-2.75391 7.01172,-2.75391 4.76563,0 7.08985,2.71484 2.32421,2.71485 2.32421,8.22266 z m -3.6914,0 q 0,-2.46094 -0.42969,-4.0625 -0.41016,-1.60156 -1.17187,-2.55859 -0.74219,-0.95703 -1.77735,-1.32813 -1.03515,-0.39062 -2.28515,-0.39062 -1.26954,0 -2.34375,0.41015 -1.07422,0.39063 -1.85547,1.36719 -0.76172,0.95703 -1.21094,2.55859 -0.42969,1.60157 -0.42969,4.00391 0,2.46094 0.44922,4.08203 0.46875,1.60156 1.23047,2.5586 0.78125,0.95703 1.79687,1.34765 1.03516,0.39063 2.14844,0.39063 1.26953,0 2.34375,-0.3711 1.09375,-0.39062 1.875,-1.34765 0.78125,-0.95703 1.21094,-2.57813 0.44922,-1.62109 0.44922,-4.08203 z"
         style=""
         id="path3490" />
      <path
         d="m 344.8605,508.71823 q -0.91796,-0.15625 -1.93359,-0.25391 -0.99609,-0.11718 -2.20703,-0.11718 -1.64063,0 -2.94922,0.66406 -1.30859,0.66406 -2.20703,1.81641 -0.89844,1.13281 -1.38672,2.65625 -0.46875,1.52343 -0.46875,3.24218 l 0,9.92188 -3.51562,0 0,-13.69141 q 0,-1.09375 -0.11719,-2.22656 -0.11719,-1.13281 -0.27344,-2.12891 -0.15625,-1.01562 -0.33203,-1.8164 -0.17578,-0.80078 -0.29297,-1.26953 l 3.33984,0 q 0.13672,0.46875 0.27344,1.07421 0.15625,0.60547 0.29297,1.26954 0.13672,0.64453 0.23438,1.30859 0.0976,0.66406 0.13671,1.23047 l 0.0977,0 q 0.54688,-1.21094 1.15234,-2.1875 0.60547,-0.97656 1.42579,-1.66016 0.83984,-0.68359 1.97265,-1.05469 1.13281,-0.37109 2.73438,-0.37109 1.09375,0 2.14843,0.0977 1.05469,0.0976 1.875,0.23437 l 0,3.26172 z"
         style=""
         id="path3492" />
      <path
         d="m 362.9855,523.87448 7.42188,0 0,2.77344 -19.17969,0 0,-2.77344 8.24219,0 0,-15.58594 -6.23047,0 0,-2.77343 9.74609,0 0,18.35937 z m -3.90625,-22.46094 0,-3.75 3.90625,0 0,3.75 -3.90625,0 z"
         style=""
         id="path3494" />
      <path
         d="m 376.13004,508.28854 0,-2.77343 3.32031,0 1.13281,-5.50782 2.34375,0 0,5.50782 8.4375,0 0,2.77343 -8.4375,0 0,12.73438 q 0,1.54297 0.82031,2.28515 0.83985,0.74219 2.73438,0.74219 0.78125,0 1.60156,-0.0586 0.83984,-0.0781 1.60156,-0.17578 0.78125,-0.0977 1.44532,-0.21485 0.68359,-0.11718 1.15234,-0.21484 l 0,2.67578 q -0.42969,0.11719 -1.11328,0.27344 -0.6836,0.15625 -1.54297,0.29297 -0.83984,0.13672 -1.83594,0.23437 -0.99609,0.0977 -2.05078,0.0977 -3.16406,0 -4.74609,-1.32813 -1.58203,-1.34765 -1.58203,-4.23828 l 0,-13.10547 -3.28125,0 z"
         style=""
         id="path3496" />
      <path
         d="m 402.69254,516.8237 q 0,1.66016 0.37109,3.06641 0.37109,1.38671 1.11328,2.40234 0.74219,0.99609 1.83594,1.5625 1.11328,0.54687 2.55859,0.54687 1.07422,0 1.97266,-0.23437 0.91797,-0.25391 1.64062,-0.68359 0.72266,-0.42969 1.21094,-1.01563 0.48828,-0.60547 0.72266,-1.30859 l 3.08593,0.8789 q -0.3125,0.87891 -0.9375,1.77735 -0.625,0.8789 -1.66015,1.60156 -1.03516,0.70312 -2.51953,1.17187 -1.48438,0.44922 -3.51563,0.44922 -2.24609,0 -4.02344,-0.70312 -1.77734,-0.70313 -3.00781,-2.08985 -1.23047,-1.38671 -1.89453,-3.45703 -0.64453,-2.08984 -0.64453,-4.84375 0,-3.04687 0.76172,-5.11718 0.78125,-2.07032 2.08984,-3.33985 1.3086,-1.26953 3.00781,-1.8164 1.71875,-0.54688 3.59375,-0.54688 2.5586,0 4.31641,0.82031 1.77734,0.82032 2.89063,2.30469 1.11328,1.46484 1.60156,3.53516 0.50781,2.07031 0.50781,4.57031 l 0,0.46875 -15.07812,0 z m 5.80078,-9.10156 q -0.89844,0 -1.89453,0.29297 -0.97657,0.27343 -1.81641,0.99609 -0.83984,0.72266 -1.42578,1.97266 -0.56641,1.23046 -0.625,3.14453 l 11.40625,0 q -0.15625,-1.83594 -0.66406,-3.06641 -0.50782,-1.23047 -1.26954,-1.97266 -0.74218,-0.74218 -1.69921,-1.05468 -0.95704,-0.3125 -2.01172,-0.3125 z"
         style=""
         id="path3498" />
      <path
         d="m 424.09879,508.28854 0,-2.77343 3.32031,0 1.13281,-5.50782 2.34375,0 0,5.50782 8.4375,0 0,2.77343 -8.4375,0 0,12.73438 q 0,1.54297 0.82031,2.28515 0.83985,0.74219 2.73438,0.74219 0.78125,0 1.60156,-0.0586 0.83984,-0.0781 1.60156,-0.17578 0.78125,-0.0977 1.44532,-0.21485 0.68359,-0.11718 1.15234,-0.21484 l 0,2.67578 q -0.42969,0.11719 -1.11328,0.27344 -0.6836,0.15625 -1.54297,0.29297 -0.83984,0.13672 -1.83594,0.23437 -0.99609,0.0977 -2.05078,0.0977 -3.16406,0 -4.74609,-1.32813 -1.58203,-1.34765 -1.58203,-4.23828 l 0,-13.10547 -3.28125,0 z"
         style=""
         id="path3500" />
      <path
         d="m 448.08316,508.28854 0,-2.77343 3.32031,0 1.13282,-5.50782 2.34375,0 0,5.50782 8.4375,0 0,2.77343 -8.4375,0 0,12.73438 q 0,1.54297 0.82031,2.28515 0.83984,0.74219 2.73437,0.74219 0.78125,0 1.60157,-0.0586 0.83984,-0.0781 1.60156,-0.17578 0.78125,-0.0977 1.44531,-0.21485 0.68359,-0.11718 1.15234,-0.21484 l 0,2.67578 q -0.42968,0.11719 -1.11328,0.27344 -0.68359,0.15625 -1.54297,0.29297 -0.83984,0.13672 -1.83593,0.23437 -0.9961,0.0977 -2.05078,0.0977 -3.16407,0 -4.7461,-1.32813 -1.58203,-1.34765 -1.58203,-4.23828 l 0,-13.10547 -3.28125,0 z"
         style=""
         id="path3502" />
      <path
         d="m 489.8605,524.47995 q 0.29297,0 0.58594,-0.0391 0.29297,-0.0391 0.56641,-0.0977 l 0,2.1875 q -0.66406,0.15625 -1.32813,0.23438 -0.64453,0.0781 -1.38672,0.0781 -0.99609,0 -1.71875,-0.25391 -0.70312,-0.27343 -1.15234,-0.80078 -0.44922,-0.54687 -0.68359,-1.32812 -0.23438,-0.80078 -0.29297,-1.85547 l -0.11719,0 q -0.54687,1.01562 -1.21094,1.83594 -0.66406,0.82031 -1.52343,1.40625 -0.85938,0.5664 -1.97266,0.8789 -1.11328,0.3125 -2.55859,0.3125 -3.08594,0 -4.64844,-1.67968 -1.5625,-1.67969 -1.5625,-4.60938 0,-2.08984 0.76172,-3.41797 0.78125,-1.34765 2.03125,-2.10937 1.25,-0.76172 2.83203,-1.05469 1.60156,-0.3125 3.24219,-0.33203 l 4.60937,-0.0781 0,-1.15234 q 0,-1.30859 -0.27344,-2.22656 -0.2539,-0.91797 -0.80078,-1.48438 -0.52734,-0.5664 -1.34765,-0.82031 -0.82032,-0.27344 -1.91407,-0.27344 -0.97656,0 -1.77734,0.15625 -0.78125,0.13672 -1.34766,0.52735 -0.5664,0.37109 -0.9375,1.03515 -0.35156,0.64453 -0.46875,1.64063 l -3.67187,-0.33203 q 0.19531,-1.25 0.72265,-2.28516 0.54688,-1.05469 1.52344,-1.81641 0.97656,-0.76172 2.44141,-1.17187 1.48437,-0.42969 3.57422,-0.42969 3.90625,0 5.85937,1.83594 1.97266,1.8164 1.97266,5.27344 l 0,9.10156 q 0,1.5625 0.41015,2.36328 0.41016,0.78125 1.5625,0.78125 z m -11.89453,-0.11719 q 1.6211,0 2.8125,-0.60547 1.19141,-0.625 1.97266,-1.5625 0.80078,-0.9375 1.19141,-2.07031 0.39062,-1.13281 0.39062,-2.16797 l 0,-1.73828 -3.71094,0.0781 q -1.07422,0.0195 -2.16797,0.17578 -1.07421,0.13672 -1.95312,0.60547 -0.85938,0.46875 -1.40625,1.36718 -0.54688,0.87891 -0.54688,2.36328 0,1.60157 0.85938,2.57813 0.87891,0.97656 2.55859,0.97656 z"
         style=""
         id="path3504" />
      <path
         d="m 510.19254,526.64792 -7.14844,-9.7461 -2.57813,1.91407 0,7.83203 -3.51562,0 0,-28.98438 3.51562,0 0,18.10547 9.27735,-10.2539 4.12109,0 -8.57422,9.08203 9.02344,12.05078 -4.12109,0 z"
         style=""
         id="path3506" />
      <path
         d="m 537.75113,516.06198 q 0,2.77344 -0.66406,4.84375 -0.64453,2.05078 -1.875,3.41797 -1.23047,1.36719 -3.00782,2.05078 -1.75781,0.66406 -3.98437,0.66406 -2.12891,0 -3.86719,-0.66406 -1.71875,-0.66406 -2.94922,-2.03125 -1.21093,-1.36719 -1.875,-3.41797 -0.66406,-2.07031 -0.66406,-4.86328 0,-5.44922 2.46094,-8.18359 2.48047,-2.75391 7.01172,-2.75391 4.76562,0 7.08984,2.71484 2.32422,2.71485 2.32422,8.22266 z m -3.69141,0 q 0,-2.46094 -0.42968,-4.0625 -0.41016,-1.60156 -1.17188,-2.55859 -0.74219,-0.95703 -1.77734,-1.32813 -1.03516,-0.39062 -2.28516,-0.39062 -1.26953,0 -2.34375,0.41015 -1.07422,0.39063 -1.85547,1.36719 -0.76172,0.95703 -1.21094,2.55859 -0.42968,1.60157 -0.42968,4.00391 0,2.46094 0.44922,4.08203 0.46875,1.60156 1.23046,2.5586 0.78125,0.95703 1.79688,1.34765 1.03516,0.39063 2.14844,0.39063 1.26953,0 2.34375,-0.3711 1.09375,-0.39062 1.875,-1.34765 0.78125,-0.95703 1.21093,-2.57813 0.44922,-1.62109 0.44922,-4.08203 z"
         style=""
         id="path3508" />
      <path
         d="m 561.7355,516.06198 q 0,2.77344 -0.66406,4.84375 -0.64453,2.05078 -1.875,3.41797 -1.23047,1.36719 -3.00781,2.05078 -1.75781,0.66406 -3.98438,0.66406 -2.1289,0 -3.86718,-0.66406 -1.71875,-0.66406 -2.94922,-2.03125 -1.21094,-1.36719 -1.875,-3.41797 -0.66406,-2.07031 -0.66406,-4.86328 0,-5.44922 2.46093,-8.18359 2.48047,-2.75391 7.01172,-2.75391 4.76563,0 7.08985,2.71484 2.32421,2.71485 2.32421,8.22266 z m -3.6914,0 q 0,-2.46094 -0.42969,-4.0625 -0.41016,-1.60156 -1.17187,-2.55859 -0.74219,-0.95703 -1.77735,-1.32813 -1.03515,-0.39062 -2.28515,-0.39062 -1.26954,0 -2.34375,0.41015 -1.07422,0.39063 -1.85547,1.36719 -0.76172,0.95703 -1.21094,2.55859 -0.42969,1.60157 -0.42969,4.00391 0,2.46094 0.44922,4.08203 0.46875,1.60156 1.23047,2.5586 0.78125,0.95703 1.79687,1.34765 1.03516,0.39063 2.14844,0.39063 1.26953,0 2.34375,-0.3711 1.09375,-0.39062 1.875,-1.34765 0.78125,-0.95703 1.21094,-2.57813 0.44922,-1.62109 0.44922,-4.08203 z"
         style=""
         id="path3510" />
      <path
         d="m 568.00504,508.28854 0,-2.77343 3.32031,0 1.13281,-5.50782 2.34375,0 0,5.50782 8.4375,0 0,2.77343 -8.4375,0 0,12.73438 q 0,1.54297 0.82031,2.28515 0.83985,0.74219 2.73438,0.74219 0.78125,0 1.60156,-0.0586 0.83984,-0.0781 1.60156,-0.17578 0.78125,-0.0977 1.44532,-0.21485 0.68359,-0.11718 1.15234,-0.21484 l 0,2.67578 q -0.42969,0.11719 -1.11328,0.27344 -0.6836,0.15625 -1.54297,0.29297 -0.83984,0.13672 -1.83594,0.23437 -0.99609,0.0977 -2.05078,0.0977 -3.16406,0 -4.74609,-1.32813 -1.58203,-1.34765 -1.58203,-4.23828 l 0,-13.10547 -3.28125,0 z"
         style=""
         id="path3512" />
    </g>
  </g>
</svg>
