<?xml version="1.0" encoding="UTF-8" standalone="no"?>
<svg
   xmlns:dc="http://purl.org/dc/elements/1.1/"
   xmlns:cc="http://creativecommons.org/ns#"
   xmlns:rdf="http://www.w3.org/1999/02/22-rdf-syntax-ns#"
   xmlns:svg="http://www.w3.org/2000/svg"
   xmlns="http://www.w3.org/2000/svg"
   version="1.1"
   id="svg2816"
   height="32px"
   width="32px">
  <defs
     id="defs2818">
    <filter
       id="filter4084">
      <feGaussianBlur
         id="feGaussianBlur4086"
         stdDeviation="0.27636363" />
    </filter>
    <filter
       id="filter4088">
      <feGaussianBlur
         id="feGaussianBlur4090"
         stdDeviation="0.27636363" />
    </filter>
    <filter
       height="4.7049995"
       y="-1.8524998"
       width="5.2342858"
       x="-2.1171429"
       id="filter4227">
      <feGaussianBlur
         id="feGaussianBlur4229"
         stdDeviation="0.27636363" />
    </filter>
    <filter
       height="4.7049995"
       y="-1.8524998"
       width="5.2342858"
       x="-2.1171429"
       id="filter4231">
      <feGaussianBlur
         id="feGaussianBlur4233"
         stdDeviation="0.27636363" />
    </filter>
    <filter
       height="4.7049995"
       y="-1.8524998"
       width="5.2342858"
       x="-2.1171429"
       id="filter4235">
      <feGaussianBlur
         id="feGaussianBlur4237"
         stdDeviation="0.27636363" />
    </filter>
    <filter
       id="filter4239">
      <feGaussianBlur
         id="feGaussianBlur4241"
         stdDeviation="0.27636363" />
    </filter>
    <filter
       id="filter4243">
      <feGaussianBlur
         id="feGaussianBlur4245"
         stdDeviation="0.27636363" />
    </filter>
    <filter
       id="filter4247">
      <feGaussianBlur
         id="feGaussianBlur4249"
         stdDeviation="0.27636363" />
    </filter>
    <filter
       id="filter4251">
      <feGaussianBlur
         id="feGaussianBlur4253"
         stdDeviation="0.27636363" />
    </filter>
    <filter
       id="filter4255">
      <feGaussianBlur
         id="feGaussianBlur4257"
         stdDeviation="0.27636363" />
    </filter>
    <filter
       id="filter4259">
      <feGaussianBlur
         id="feGaussianBlur4261"
         stdDeviation="0.27636363" />
    </filter>
    <filter
       id="filter4263">
      <feGaussianBlur
         id="feGaussianBlur4265"
         stdDeviation="0.27636363" />
    </filter>
    <filter
       id="filter4267">
      <feGaussianBlur
         id="feGaussianBlur4269"
         stdDeviation="0.27636363" />
    </filter>
    <filter
       id="filter4271">
      <feGaussianBlur
         id="feGaussianBlur4273"
         stdDeviation="0.27636363" />
    </filter>
    <filter
       id="filter4275">
      <feGaussianBlur
         id="feGaussianBlur4277"
         stdDeviation="0.27636363" />
    </filter>
    <filter
       id="filter4279">
      <feGaussianBlur
         id="feGaussianBlur4281"
         stdDeviation="0.27636363" />
    </filter>
    <filter
       height="1.1762952"
       y="-0.088147624"
       width="1.2187037"
       x="-0.10935185"
       id="filter4283">
      <feGaussianBlur
         id="feGaussianBlur4285"
         stdDeviation="0.27636363" />
    </filter>
    <filter
       id="filter4287">
      <feGaussianBlur
         id="feGaussianBlur4289"
         stdDeviation="0.27636363" />
    </filter>
  </defs>
  <metadata
     id="metadata2821">
    <rdf:RDF>
      <cc:Work
         rdf:about="">
        <dc:format>image/svg+xml</dc:format>
        <dc:type
           rdf:resource="http://purl.org/dc/dcmitype/StillImage" />
        <dc:title></dc:title>
      </cc:Work>
    </rdf:RDF>
  </metadata>
  <g
     id="layer1">
    <path
       id="path3920"
       d="m 7.6558656,20.126016 c 0,-0.174758 0.00373,-0.179021 0.1566434,-0.179021 0.1529137,0 0.1566433,0.0043 0.1566433,0.179021 0,0.174759 -0.00373,0.179021 -0.1566433,0.179021 -0.1529138,0 -0.1566434,-0.0043 -0.1566434,-0.179021 z"
       style="fill:none;filter:url(#filter4227)" />
    <path
       id="path3922"
       d="m 7.6558656,20.126016 c 0,-0.174758 0.00373,-0.179021 0.1566434,-0.179021 0.1529137,0 0.1566433,0.0043 0.1566433,0.179021 0,0.174759 -0.00373,0.179021 -0.1566433,0.179021 -0.1529138,0 -0.1566434,-0.0043 -0.1566434,-0.179021 z"
       style="fill:none;filter:url(#filter4231)" />
    <path
       id="path3924"
       d="m 7.6558656,20.126016 c 0,-0.174758 0.00373,-0.179021 0.1566434,-0.179021 0.1529137,0 0.1566433,0.0043 0.1566433,0.179021 0,0.174759 -0.00373,0.179021 -0.1566433,0.179021 -0.1529138,0 -0.1566434,-0.0043 -0.1566434,-0.179021 z"
       style="fill:none;filter:url(#filter4235)" />
    <path
       id="path3932"
       d=""
       style="fill:#ed0000;fill-opacity:1;filter:url(#filter4239)" />
    <path
       id="path4038"
       d="M 11.107356,25.995884 C 10.593734,25.241303 9.5901533,23.804558 8.877177,22.803118 L 7.5808566,20.982316 6.2645149,19.564868 C 5.5405271,18.785272 4.9418066,18.130428 4.9340251,18.109658 4.9148279,18.05842 5.7236696,17.136852 6.1395115,16.736166 L 6.475887,16.41205 7.86273,18.056446 c 2.824003,3.348453 3.084727,3.676222 3.728868,4.687752 0.329175,0.516923 0.99049,1.539977 1.469588,2.273452 0.479097,0.733475 0.86365,1.339865 0.854561,1.347533 -0.0091,0.0077 -0.434577,0.236403 -0.945529,0.508303 l -0.929004,0.494364 -0.933858,-1.371966 0,0 z"
       style="fill:#dfffcc;fill-opacity:1;stroke:#dfffcc;stroke-width:0.04475525000000000;stroke-opacity:1;filter:url(#filter4243)" />
    <path
       id="path2932"
       d="M 14.903497,13.65035 15.709091,12.307692 16.246154,10.248951 16.201399,7.8321678 15.977622,6.3552448 15.395804,5.2811189 14.67972,4.7888112 13.516084,4.7440559 12.218182,5.4601399 11.099301,7.1608392 10.06993,9.4881119 9.3986014,11.367832 8.3692308,13.381818 6.9818182,15.216783 5.4153846,16.693706 4.027972,18.304895 2.9090909,19.692308 2.013986,20.587413 l 6.937063,9.264335 2.148252,-1.387412 3.535664,-1.879721 3.132867,-2.148251 2.416783,-1.566434 2.998602,-1.700699 2.774825,-2.461539 2.103496,-3.311888 L 29.135664,12.71049 29.046154,9.2643357 28.553846,6.4 26.987413,4.2965035 25.062937,2.5958042 23.451748,1.7006993 22.109091,1.834965 20.184615,2.6853147 19.28951,3.6251748 18.170629,5.0125874 17.40979,6.3552448 16.917483,6.9818182 16.201399,7.3846154"
       style="fill:none;stroke:#000000;stroke-width:2;stroke-linecap:butt;stroke-linejoin:miter;stroke-opacity:1;marker-start:none;stroke-miterlimit:4;stroke-dasharray:none;filter:url(#filter4247)" />
    <path
       id="path3916"
       d="m 6.5342657,15.664336 2.9090909,3.446154 1.9692304,2.372027 1.655944,2.595805 1.655945,2.506293"
       style="fill:none;stroke:#000000;stroke-width:1.50000000000000000;stroke-linecap:butt;stroke-linejoin:miter;stroke-opacity:1;stroke-miterlimit:4;stroke-dasharray:none;filter:url(#filter4251)" />
    <path
       id="path3918"
       d="m 4.206993,18.125874 2.9538462,3.177623 2.5510489,3.580419 2.1034969,3.088112"
       style="fill:none;stroke:#000000;stroke-width:1.50000000000000000;stroke-linecap:butt;stroke-linejoin:miter;stroke-opacity:1;stroke-miterlimit:4;stroke-dasharray:none;filter:url(#filter4255)" />
    <path
       id="path3934"
       d="m 18.215385,5.5048951 3.401398,3.7146853 2.372028,2.5958046 3.714686,4.206993"
       style="fill:none;stroke:#000000;stroke-width:1.50000000000000000;stroke-linecap:butt;stroke-linejoin:miter;stroke-opacity:1;stroke-miterlimit:4;stroke-dasharray:none;filter:url(#filter4259)" />
    <path
       id="path3936"
       d="m 20.587413,2.6853147 3.311888,3.4013986 1.96923,2.7300699 2.103497,2.5958038 1.029371,1.611189"
       style="fill:none;stroke:#000000;stroke-width:1.50000000000000000;stroke-linecap:butt;stroke-linejoin:miter;stroke-opacity:1;stroke-miterlimit:4;stroke-dasharray:none;filter:url(#filter4263)" />
    <path
       id="path4036"
       d="m 26.072649,13.377433 c -1.396982,-1.584765 -2.882208,-3.224554 -6.14081,-6.7798644 -0.671785,-0.732954 -1.221428,-1.3500234 -1.221428,-1.3712655 0,-0.069456 1.101722,-1.406558 1.396991,-1.6954542 l 0.288099,-0.2818807 1.563049,1.6029755 1.56305,1.6029755 0.962238,1.3402328 c 0.52923,0.7371283 1.436209,1.9250135 2.015508,2.639744 0.677976,0.836479 1.207663,1.540682 1.486575,1.976359 l 0.433304,0.676848 -0.399892,0.996376 c -0.21994,0.548007 -0.405543,1.001507 -0.412449,1.007777 -0.0069,0.0063 -0.697312,-0.7654 -1.534235,-1.714823 z"
       style="fill:#dfffcc;fill-opacity:1;stroke:#dfffcc;stroke-width:0.04475525000000000;stroke-opacity:1;filter:url(#filter4267)" />
    <path
       id="path4040"
       d="M 11.82089,27.053427 C 10.2781,24.807542 9.5722906,23.796881 8.0144608,21.602939 7.7414615,21.218466 7.3135317,20.698631 6.9644451,20.327415 6.6403733,19.9828 6.0482167,19.342677 5.6485417,18.90492 l -0.726682,-0.795922 0.096968,-0.136179 c 0.1185241,-0.166451 0.9329207,-1.055651 1.2388457,-1.352634 l 0.2228341,-0.216321 0.690873,0.820517 c 3.3155425,3.937711 3.6180815,4.31262 4.2737365,5.296041 0.732466,1.098631 2.484208,3.835372 2.464941,3.85097 -0.006,0.0048 -0.252514,0.138959 -0.547899,0.298075 -0.295384,0.159116 -0.71262,0.383953 -0.92719,0.499637 l -0.390128,0.210335 -0.223951,-0.326012 0,0 z"
       style="fill:#8ec087;fill-opacity:1;stroke:#dfffcc;stroke-width:0.04475525000000000;stroke-opacity:1;filter:url(#filter4271)" />
    <path
       id="path4062"
       d="M 26.27106,13.605589 C 25.548639,12.797978 24.805664,11.96702 24.620003,11.759015 24.434343,11.551011 23.335818,10.342619 22.178836,9.0737006 20.00429,6.6887682 18.741652,5.2845105 18.720755,5.2277553 18.7016,5.1757306 19.635268,4.0285108 20.031245,3.6175261 l 0.360559,-0.3742244 1.560642,1.5944154 c 0.858353,0.8769286 1.6147,1.6696652 1.680771,1.7616371 0.970456,1.3509003 1.893511,2.6007688 2.238869,3.0315573 1.203497,1.5012005 1.942919,2.4896675 2.366637,3.1637475 l 0.188207,0.299412 -0.385874,0.953735 c -0.212231,0.524554 -0.401766,0.970032 -0.421189,0.989951 -0.01942,0.01992 -0.626386,-0.624557 -1.348807,-1.432168 l 0,0 z"
       style="fill:#8ec087;fill-opacity:1;stroke:#dfffcc;stroke-width:0.04475525000000000;stroke-opacity:1;filter:url(#filter4275)" />
    <path
       id="path4157"
       d="m 14.304858,24.545574 c -0.244593,-0.375372 -0.857795,-1.32697 -1.362672,-2.114663 -0.905563,-1.41283 -0.937111,-1.45513 -2.336564,-3.132867 C 9.8253889,18.36266 8.8640245,17.215092 8.4692569,16.747893 8.0350366,16.234003 7.766272,15.880407 7.7888978,15.852788 c 0.02057,-0.02511 0.3632406,-0.47866 0.7614901,-1.007891 0.6890608,-0.915687 0.7501694,-1.014116 1.2631713,-2.034617 0.4012548,-0.798206 0.6276868,-1.318841 0.8856438,-2.036364 0.190609,-0.530191 0.567187,-1.4574101 0.836839,-2.0604871 0.406367,-0.9088394 0.568322,-1.2146272 0.94629,-1.7866894 l 0.456014,-0.6901861 0.425556,-0.2351419 c 0.403446,-0.2229247 0.438872,-0.2340318 0.681837,-0.2137733 0.408846,0.03409 0.518335,0.1126192 0.747217,0.5359339 0.178216,0.3296088 0.210544,0.435521 0.288196,0.9441914 0.05763,0.3775107 0.09804,0.9545851 0.118484,1.6918193 l 0.03102,1.1188812 -0.235262,0.904709 -0.235261,0.90471 -0.371412,0.616969 c -0.281345,0.467354 -0.358598,0.629011 -0.318568,0.66663 0.07499,0.07047 1.639689,1.002087 1.683062,1.002087 0.01974,0 0.232035,-0.327273 0.471763,-0.727273 l 0.435868,-0.727273 0.308392,-1.180137 0.308392,-1.180138 -0.02777,-1.1918904 -0.02777,-1.1918902 0.195909,-0.102454 c 0.141714,-0.074112 0.294952,-0.2319138 0.55395,-0.5704484 0.196923,-0.2573969 0.369501,-0.4680759 0.383507,-0.4681754 0.04792,-3.401e-4 5.029727,5.4735284 6.607473,7.2601054 l 1.575595,1.784142 -0.459472,0.725338 c -0.25271,0.398936 -0.55893,0.882263 -0.680491,1.074058 -0.194139,0.306311 -0.378862,0.4888 -1.51892,1.500558 l -1.297902,1.151838 -1.454546,0.824679 c -1.537801,0.871882 -3.238068,1.948886 -5.125238,3.246493 -0.628846,0.432391 -1.167888,0.795346 -1.19787,0.806567 -0.03187,0.01193 -0.239251,-0.263111 -0.499228,-0.662094 l 0,0 z"
       style="fill:#dfffcc;fill-opacity:1;stroke:#dfffcc;stroke-width:0.06713287000000000;stroke-miterlimit:4;stroke-opacity:1;stroke-dasharray:none;filter:url(#filter4279)" />
    <path
       id="path4159"
       d="M 27.225684,9.2594917 C 26.776777,8.7006956 25.978271,7.6443591 25.451227,6.9120771 L 24.492965,5.5806553 23.239764,4.2944614 21.986563,3.0082674 22.217019,2.9122397 c 0.137038,-0.057102 0.388795,-0.1088168 0.62107,-0.1275779 l 0.390615,-0.03155 0.620235,0.3436633 c 0.560114,0.3103514 0.706047,0.4197591 1.505521,1.128707 0.856924,0.7598932 0.905887,0.8127003 1.528345,1.6483143 0.353683,0.4747989 0.663045,0.9101899 0.687472,0.9675356 0.08208,0.1926885 0.440073,2.4712893 0.464644,2.9574118 0.01337,0.2646152 0.02041,0.4801332 0.01564,0.4789302 -0.0048,-0.0012 -0.375967,-0.4593865 -0.824875,-1.0181821 l 0,0 z"
       style="fill:#dfffcc;fill-opacity:1;stroke:#dfffcc;stroke-width:0.06713287000000000;stroke-miterlimit:4;stroke-opacity:1;stroke-dasharray:none;filter:url(#filter4283)" />
    <path
       id="path4161"
       d="M 6.2763569,24.567974 3.3658924,20.685457 3.5792511,20.461681 c 0.1173472,-0.123077 0.3380679,-0.379074 0.4904902,-0.568883 0.1524224,-0.189809 0.2939302,-0.355489 0.3144619,-0.368178 0.020532,-0.01269 0.5195442,0.495056 1.1089169,1.128323 1.0476645,1.125691 1.0989726,1.189861 2.2983329,2.874472 1.3049761,1.832958 2.773504,3.963803 2.773504,4.024376 0,0.0326 -1.308804,0.898701 -1.3580693,0.898701 -0.011037,0 -1.3297754,-1.747133 -2.9305308,-3.882518 z"
       style="fill:#dfffcc;fill-opacity:1;stroke:#dfffcc;stroke-width:0.06713287000000000;stroke-miterlimit:4;stroke-opacity:1;stroke-dasharray:none;filter:url(#filter4287)" />
  </g>
</svg>
