<?xml version="1.0" encoding="UTF-8" standalone="no"?>
<svg
   xmlns:dc="http://purl.org/dc/elements/1.1/"
   xmlns:cc="http://creativecommons.org/ns#"
   xmlns:rdf="http://www.w3.org/1999/02/22-rdf-syntax-ns#"
   xmlns:svg="http://www.w3.org/2000/svg"
   xmlns="http://www.w3.org/2000/svg"
   version="1.1"
   id="svg4493"
   viewBox="0 0 138.07998 133.83999"
   height="37.772617mm"
   width="38.969238mm">
  <defs
     id="defs4495" />
  <metadata
     id="metadata4498">
    <rdf:RDF>
      <cc:Work
         rdf:about="">
        <dc:format>image/svg+xml</dc:format>
        <dc:type
           rdf:resource="http://purl.org/dc/dcmitype/StillImage" />
        <dc:title></dc:title>
      </cc:Work>
    </rdf:RDF>
  </metadata>
  <g
     transform="translate(-318.70286,-275.61362)"
     id="layer1">
    <g
       id="text4501"
       style="font-style:normal;font-variant:normal;font-weight:bold;font-stretch:normal;font-size:40px;line-height:89.99999762%;font-family:'Ubuntu Mono';-inkscape-font-specification:'Ubuntu Mono Bold';letter-spacing:0px;word-spacing:0px;fill:#000000;fill-opacity:1;stroke:none;stroke-width:1px;stroke-linecap:butt;stroke-linejoin:miter;stroke-opacity:1">
      <path
         id="path3342"
         style=""
         d="m 327.06285,301.45362 q -2.4,0 -4.04,-0.64 -1.6,-0.68 -2.56,-1.92 -0.96,-1.24 -1.36,-3 -0.4,-1.76 -0.4,-3.92 l 0,-15.8 4.96,0 0,15.48 q 0,1.56 0.16,2.64 0.16,1.04 0.52,1.68 0.4,0.64 1.08,0.92 0.68,0.28 1.72,0.28 1.04,0 1.72,-0.28 0.68,-0.28 1.08,-0.92 0.4,-0.68 0.56,-1.72 0.16,-1.08 0.16,-2.64 l 0,-15.44 4.92,0 0,15.8 q 0,2.16 -0.4,3.92 -0.4,1.76 -1.4,3 -1,1.24 -2.64,1.92 -1.64,0.64 -4.08,0.64 z" />
      <path
         id="path3344"
         style=""
         d="m 338.74285,288.41362 6.28,0 0,-6.96 4.24,0 0,6.96 6.28,0 0,4.04 -6.28,0 0,6.96 -4.24,0 0,-6.96 -6.28,0 0,-4.04 z" />
      <path
         id="path3346"
         style=""
         d="m 365.66285,296.85362 0,-13.84 q -1.12,0.8 -2.56,1.44 -1.44,0.6 -2.44,0.96 l -1.6,-4.08 q 0.96,-0.36 2.08,-0.92 1.12,-0.56 2.24,-1.24 1.12,-0.68 2.12,-1.44 1,-0.76 1.72,-1.56 l 3.36,0 0,20.68 4.92,0 0,4.08 -15.04,0 0,-4.08 5.2,0 z" />
      <path
         id="path3348"
         style=""
         d="m 379.66285,300.93362 0,-24.76 15.16,0 0,4.08 -10.24,0 0,6 8.96,0 0,4.08 -8.96,0 0,10.6 -4.92,0 z" />
      <path
         id="path3350"
         style=""
         d="m 405.66285,301.45362 q -0.92,0 -1.96,-0.16 -1,-0.12 -1.96,-0.32 -0.92,-0.2 -1.72,-0.44 -0.8,-0.24 -1.24,-0.44 l 0.96,-4.12 q 0.92,0.4 2.36,0.84 1.48,0.44 3.52,0.44 2.52,0 3.52,-1.08 1.04,-1.08 1.04,-2.68 0,-1.96 -1.56,-2.72 -1.56,-0.8 -3.96,-0.8 l -1.52,0 0,-4.08 1.84,0 q 0.76,0 1.52,-0.16 0.76,-0.16 1.36,-0.52 0.6,-0.36 0.96,-0.96 0.4,-0.6 0.4,-1.52 0,-1.36 -0.84,-2.12 -0.8,-0.8 -2.24,-0.8 -1.4,0 -2.8,0.48 -1.36,0.44 -2.36,1.12 l -1.76,-3.6 q 1.08,-0.72 2.84,-1.44 1.8,-0.76 4.04,-0.76 2.08,0 3.6,0.52 1.56,0.52 2.56,1.48 1,0.92 1.48,2.2 0.48,1.28 0.48,2.76 0,1.48 -0.84,2.84 -0.84,1.36 -2.24,2.08 1.92,0.8 2.96,2.36 1.08,1.56 1.08,3.72 0,1.72 -0.56,3.16 -0.56,1.44 -1.72,2.52 -1.16,1.04 -2.96,1.64 -1.8,0.56 -4.28,0.56 z" />
      <path
         id="path3352"
         style=""
         d="m 422.42285,300.93362 q 0.12,-2.56 0.84,-5.4 0.72,-2.88 1.72,-5.68 1.04,-2.8 2.24,-5.28 1.2,-2.52 2.28,-4.32 l -10.4,0 0,-4.08 16.16,0 0,3.72 q -1.08,1.24 -2.36,3.48 -1.28,2.24 -2.44,5.08 -1.12,2.84 -2,6.08 -0.84,3.2 -1.04,6.4 l -5,0 z" />
      <path
         id="path3354"
         style=""
         d="m 451.50285,300.93362 -1.16,-5.72 -6.6,0 -1.12,5.72 -5.12,0 q 1.76,-7.32 3.56,-13.32 1.8,-6.04 3.48,-11.44 l 5.36,0 q 1.76,5.44 3.48,11.56 1.76,6.08 3.4,13.2 l -5.28,0 z m -4.4,-19.96 q -0.4,1.4 -0.76,2.68 -0.32,1.24 -0.64,2.48 -0.28,1.2 -0.56,2.44 -0.24,1.24 -0.48,2.56 l 4.84,0 q -0.24,-1.32 -0.48,-2.56 -0.24,-1.24 -0.56,-2.44 -0.28,-1.24 -0.64,-2.48 -0.32,-1.28 -0.72,-2.68 z" />
      <path
         id="path3356"
         style="font-style:normal;font-variant:normal;font-weight:bold;font-stretch:normal;font-size:40px;line-height:89.99999762%;font-family:'Ubuntu Mono';-inkscape-font-specification:'Ubuntu Mono Bold'"
         d="m 327.06285,337.45362 q -2.4,0 -4.04,-0.64 -1.6,-0.68 -2.56,-1.92 -0.96,-1.24 -1.36,-3 -0.4,-1.76 -0.4,-3.92 l 0,-15.8 4.96,0 0,15.48 q 0,1.56 0.16,2.64 0.16,1.04 0.52,1.68 0.4,0.64 1.08,0.92 0.68,0.28 1.72,0.28 1.04,0 1.72,-0.28 0.68,-0.28 1.08,-0.92 0.4,-0.68 0.56,-1.72 0.16,-1.08 0.16,-2.64 l 0,-15.44 4.92,0 0,15.8 q 0,2.16 -0.4,3.92 -0.4,1.76 -1.4,3 -1,1.24 -2.64,1.92 -1.64,0.64 -4.08,0.64 z" />
      <path
         id="path3358"
         style="font-style:normal;font-variant:normal;font-weight:bold;font-stretch:normal;font-size:40px;line-height:89.99999762%;font-family:'Ubuntu Mono';-inkscape-font-specification:'Ubuntu Mono Bold'"
         d="m 338.74285,324.41362 6.28,0 0,-6.96 4.24,0 0,6.96 6.28,0 0,4.04 -6.28,0 0,6.96 -4.24,0 0,-6.96 -6.28,0 0,-4.04 z" />
      <path
         id="path3360"
         style="font-style:normal;font-variant:normal;font-weight:bold;font-stretch:normal;font-size:40px;line-height:89.99999762%;font-family:'Ubuntu Mono';-inkscape-font-specification:'Ubuntu Mono Bold'"
         d="m 374.50285,318.69362 q 0,1.28 -0.48,2.48 -0.48,1.16 -1.28,2.28 -0.8,1.12 -1.8,2.16 -1,1.04 -2.04,2 -0.52,0.48 -1.2,1.16 -0.68,0.64 -1.28,1.36 -0.6,0.68 -1.04,1.4 -0.4,0.72 -0.4,1.32 l 10.64,0 0,4.08 -16.16,0 q -0.12,-0.4 -0.12,-1 0.04,-0.6 0.04,-0.84 0,-2 0.72,-3.68 0.76,-1.68 1.88,-3.08 1.16,-1.44 2.44,-2.64 1.32,-1.24 2.44,-2.36 1.16,-1.12 1.88,-2.16 0.76,-1.04 0.76,-2.12 0,-1.52 -0.92,-2.32 -0.92,-0.84 -2.32,-0.84 -1.16,0 -2.44,0.56 -1.28,0.56 -2.52,1.88 l -2.44,-3.44 q 1.6,-1.68 3.68,-2.48 2.12,-0.8 4.2,-0.8 1.52,0 2.92,0.44 1.4,0.44 2.48,1.32 1.08,0.88 1.72,2.24 0.64,1.32 0.64,3.08 z" />
      <path
         id="path3362"
         style="font-style:normal;font-variant:normal;font-weight:bold;font-stretch:normal;font-size:40px;line-height:89.99999762%;font-family:'Ubuntu Mono';-inkscape-font-specification:'Ubuntu Mono Bold'"
         d="m 394.50285,318.69362 q 0,1.28 -0.48,2.48 -0.48,1.16 -1.28,2.28 -0.8,1.12 -1.8,2.16 -1,1.04 -2.04,2 -0.52,0.48 -1.2,1.16 -0.68,0.64 -1.28,1.36 -0.6,0.68 -1.04,1.4 -0.4,0.72 -0.4,1.32 l 10.64,0 0,4.08 -16.16,0 q -0.12,-0.4 -0.12,-1 0.04,-0.6 0.04,-0.84 0,-2 0.72,-3.68 0.76,-1.68 1.88,-3.08 1.16,-1.44 2.44,-2.64 1.32,-1.24 2.44,-2.36 1.16,-1.12 1.88,-2.16 0.76,-1.04 0.76,-2.12 0,-1.52 -0.92,-2.32 -0.92,-0.84 -2.32,-0.84 -1.16,0 -2.44,0.56 -1.28,0.56 -2.52,1.88 l -2.44,-3.44 q 1.6,-1.68 3.68,-2.48 2.12,-0.8 4.2,-0.8 1.52,0 2.92,0.44 1.4,0.44 2.48,1.32 1.08,0.88 1.72,2.24 0.64,1.32 0.64,3.08 z" />
      <path
         id="path3364"
         style="font-style:normal;font-variant:normal;font-weight:bold;font-stretch:normal;font-size:40px;line-height:89.99999762%;font-family:'Ubuntu Mono';-inkscape-font-specification:'Ubuntu Mono Bold'"
         d="m 414.50285,318.69362 q 0,1.28 -0.48,2.48 -0.48,1.16 -1.28,2.28 -0.8,1.12 -1.8,2.16 -1,1.04 -2.04,2 -0.52,0.48 -1.2,1.16 -0.68,0.64 -1.28,1.36 -0.6,0.68 -1.04,1.4 -0.4,0.72 -0.4,1.32 l 10.64,0 0,4.08 -16.16,0 q -0.12,-0.4 -0.12,-1 0.04,-0.6 0.04,-0.84 0,-2 0.72,-3.68 0.76,-1.68 1.88,-3.08 1.16,-1.44 2.44,-2.64 1.32,-1.24 2.44,-2.36 1.16,-1.12 1.88,-2.16 0.76,-1.04 0.76,-2.12 0,-1.52 -0.92,-2.32 -0.92,-0.84 -2.32,-0.84 -1.16,0 -2.44,0.56 -1.28,0.56 -2.52,1.88 l -2.44,-3.44 q 1.6,-1.68 3.68,-2.48 2.12,-0.8 4.2,-0.8 1.52,0 2.92,0.44 1.4,0.44 2.48,1.32 1.08,0.88 1.72,2.24 0.64,1.32 0.64,3.08 z" />
      <path
         id="path3366"
         style="font-style:normal;font-variant:normal;font-weight:bold;font-stretch:normal;font-size:40px;line-height:89.99999762%;font-family:'Ubuntu Mono';-inkscape-font-specification:'Ubuntu Mono Bold'"
         d="m 434.98285,318.05362 q 0,1.72 -0.84,3.4 -0.84,1.64 -2.64,2.76 2.28,1.32 3.2,2.88 0.96,1.56 0.96,3.44 0,1.2 -0.48,2.44 -0.44,1.24 -1.48,2.24 -1,0.96 -2.64,1.6 -1.64,0.64 -4.04,0.64 -1.88,0 -3.44,-0.48 -1.52,-0.44 -2.64,-1.28 -1.08,-0.88 -1.68,-2.12 -0.6,-1.28 -0.6,-2.84 0,-1.88 0.88,-3.52 0.88,-1.68 2.76,-2.96 -1.76,-1.2 -2.4,-2.56 -0.64,-1.36 -0.64,-2.88 0,-1.2 0.4,-2.48 0.44,-1.32 1.36,-2.36 0.92,-1.04 2.44,-1.72 1.52,-0.68 3.76,-0.68 3.56,0 5.64,1.76 2.12,1.76 2.12,4.72 z m -3.96,12.4 q 0,-0.8 -0.32,-1.4 -0.28,-0.6 -0.96,-1.08 -0.64,-0.52 -1.68,-1 -1.04,-0.52 -2.48,-1.08 -1.12,0.92 -1.72,2.08 -0.6,1.12 -0.6,2.16 0,1.6 1.12,2.44 1.16,0.8 2.72,0.8 1.8,0 2.84,-0.84 1.08,-0.88 1.08,-2.08 z m -3.88,-14.8 q -1.28,0 -2.28,0.72 -0.96,0.72 -0.96,2.12 0,1.4 0.92,2.28 0.92,0.88 3.24,1.84 1.24,-0.92 1.76,-2 0.52,-1.12 0.52,-2.16 0,-1.4 -0.96,-2.08 -0.92,-0.72 -2.24,-0.72 z" />
      <path
         id="path3368"
         style=""
         d="m 327.06285,373.45362 q -2.4,0 -4.04,-0.64 -1.6,-0.68 -2.56,-1.92 -0.96,-1.24 -1.36,-3 -0.4,-1.76 -0.4,-3.92 l 0,-15.8 4.96,0 0,15.48 q 0,1.56 0.16,2.64 0.16,1.04 0.52,1.68 0.4,0.64 1.08,0.92 0.68,0.28 1.72,0.28 1.04,0 1.72,-0.28 0.68,-0.28 1.08,-0.92 0.4,-0.68 0.56,-1.72 0.16,-1.08 0.16,-2.64 l 0,-15.44 4.92,0 0,15.8 q 0,2.16 -0.4,3.92 -0.4,1.76 -1.4,3 -1,1.24 -2.64,1.92 -1.64,0.64 -4.08,0.64 z" />
      <path
         id="path3370"
         style=""
         d="m 338.74285,360.41362 6.28,0 0,-6.96 4.24,0 0,6.96 6.28,0 0,4.04 -6.28,0 0,6.96 -4.24,0 0,-6.96 -6.28,0 0,-4.04 z" />
      <path
         id="path3372"
         style=""
         d="m 365.66285,368.85362 0,-13.84 q -1.12,0.8 -2.56,1.44 -1.44,0.6 -2.44,0.96 l -1.6,-4.08 q 0.96,-0.36 2.08,-0.92 1.12,-0.56 2.24,-1.24 1.12,-0.68 2.12,-1.44 1,-0.76 1.72,-1.56 l 3.36,0 0,20.68 4.92,0 0,4.08 -15.04,0 0,-4.08 5.2,0 z" />
      <path
         id="path3374"
         style=""
         d="m 379.66285,372.93362 0,-24.76 15.16,0 0,4.08 -10.24,0 0,6 8.96,0 0,4.08 -8.96,0 0,10.6 -4.92,0 z" />
      <path
         id="path3376"
         style=""
         d="m 408.54285,354.33362 q -0.72,0.92 -1.48,1.96 -0.76,1.04 -1.52,2.2 -0.72,1.12 -1.4,2.28 -0.68,1.16 -1.2,2.28 l 5.6,0 0,-8.72 z m 4.92,-6.16 0,14.88 2.68,0 0,4.04 -2.68,0 0,5.84 -4.92,0 0,-5.84 -10.32,0 0,-3.6 q 0.76,-1.56 1.96,-3.52 1.2,-2 2.64,-4.08 1.44,-2.08 3.04,-4.08 1.6,-2.04 3.2,-3.64 l 4.4,0 z" />
      <path
         id="path3378"
         style=""
         d="m 428.54285,354.33362 q -0.72,0.92 -1.48,1.96 -0.76,1.04 -1.52,2.2 -0.72,1.12 -1.4,2.28 -0.68,1.16 -1.2,2.28 l 5.6,0 0,-8.72 z m 4.92,-6.16 0,14.88 2.68,0 0,4.04 -2.68,0 0,5.84 -4.92,0 0,-5.84 -10.32,0 0,-3.6 q 0.76,-1.56 1.96,-3.52 1.2,-2 2.64,-4.08 1.44,-2.08 3.04,-4.08 1.6,-2.04 3.2,-3.64 l 4.4,0 z" />
      <path
         id="path3380"
         style=""
         d="m 451.50285,372.93362 -1.16,-5.72 -6.6,0 -1.12,5.72 -5.12,0 q 1.76,-7.32 3.56,-13.32 1.8,-6.04 3.48,-11.44 l 5.36,0 q 1.76,5.44 3.48,11.56 1.76,6.08 3.4,13.2 l -5.28,0 z m -4.4,-19.96 q -0.4,1.4 -0.76,2.68 -0.32,1.24 -0.64,2.48 -0.28,1.2 -0.56,2.44 -0.24,1.24 -0.48,2.56 l 4.84,0 q -0.24,-1.32 -0.48,-2.56 -0.24,-1.24 -0.56,-2.44 -0.28,-1.24 -0.64,-2.48 -0.32,-1.28 -0.72,-2.68 z" />
      <path
         id="path3382"
         style=""
         d="m 327.06285,409.45362 q -2.4,0 -4.04,-0.64 -1.6,-0.68 -2.56,-1.92 -0.96,-1.24 -1.36,-3 -0.4,-1.76 -0.4,-3.92 l 0,-15.8 4.96,0 0,15.48 q 0,1.56 0.16,2.64 0.16,1.04 0.52,1.68 0.4,0.64 1.08,0.92 0.68,0.28 1.72,0.28 1.04,0 1.72,-0.28 0.68,-0.28 1.08,-0.92 0.4,-0.68 0.56,-1.72 0.16,-1.08 0.16,-2.64 l 0,-15.44 4.92,0 0,15.8 q 0,2.16 -0.4,3.92 -0.4,1.76 -1.4,3 -1,1.24 -2.64,1.92 -1.64,0.64 -4.08,0.64 z" />
      <path
         id="path3384"
         style=""
         d="m 338.74285,396.41362 6.28,0 0,-6.96 4.24,0 0,6.96 6.28,0 0,4.04 -6.28,0 0,6.96 -4.24,0 0,-6.96 -6.28,0 0,-4.04 z" />
      <path
         id="path3386"
         style=""
         d="m 374.50285,390.69362 q 0,1.28 -0.48,2.48 -0.48,1.16 -1.28,2.28 -0.8,1.12 -1.8,2.16 -1,1.04 -2.04,2 -0.52,0.48 -1.2,1.16 -0.68,0.64 -1.28,1.36 -0.6,0.68 -1.04,1.4 -0.4,0.72 -0.4,1.32 l 10.64,0 0,4.08 -16.16,0 q -0.12,-0.4 -0.12,-1 0.04,-0.6 0.04,-0.84 0,-2 0.72,-3.68 0.76,-1.68 1.88,-3.08 1.16,-1.44 2.44,-2.64 1.32,-1.24 2.44,-2.36 1.16,-1.12 1.88,-2.16 0.76,-1.04 0.76,-2.12 0,-1.52 -0.92,-2.32 -0.92,-0.84 -2.32,-0.84 -1.16,0 -2.44,0.56 -1.28,0.56 -2.52,1.88 l -2.44,-3.44 q 1.6,-1.68 3.68,-2.48 2.12,-0.8 4.2,-0.8 1.52,0 2.92,0.44 1.4,0.44 2.48,1.32 1.08,0.88 1.72,2.24 0.64,1.32 0.64,3.08 z" />
      <path
         id="path3388"
         style=""
         d="m 382.42285,408.93362 q 0.12,-2.56 0.84,-5.4 0.72,-2.88 1.72,-5.68 1.04,-2.8 2.24,-5.28 1.2,-2.52 2.28,-4.32 l -10.4,0 0,-4.08 16.16,0 0,3.72 q -1.08,1.24 -2.36,3.48 -1.28,2.24 -2.44,5.08 -1.12,2.84 -2,6.08 -0.84,3.2 -1.04,6.4 l -5,0 z" />
      <path
         id="path3390"
         style=""
         d="m 409.98285,401.65362 q 0,-1.04 -0.36,-1.88 -0.32,-0.88 -1.36,-1.48 -1,-0.64 -2.88,-0.96 -1.88,-0.36 -4.92,-0.36 0.4,-3.36 0.64,-6.56 0.24,-3.24 0.36,-6.24 l 12.64,0 0,4.08 -8.52,0 q -0.08,1.28 -0.2,2.68 -0.12,1.4 -0.2,2.28 4.96,0.32 7.4,2.4 2.44,2.08 2.44,5.84 0,1.72 -0.6,3.2 -0.6,1.44 -1.84,2.52 -1.24,1.08 -3.08,1.68 -1.84,0.6 -4.28,0.6 -0.96,0 -1.96,-0.12 -1,-0.12 -1.92,-0.32 -0.92,-0.16 -1.68,-0.4 -0.72,-0.24 -1.12,-0.44 l 1,-4.08 q 0.88,0.44 2.24,0.8 1.36,0.36 3.4,0.36 1.44,0 2.36,-0.32 0.96,-0.32 1.48,-0.8 0.56,-0.52 0.76,-1.16 0.2,-0.64 0.2,-1.32 z" />
      <path
         id="path3392"
         style=""
         d="m 422.42285,408.93362 q 0.12,-2.56 0.84,-5.4 0.72,-2.88 1.72,-5.68 1.04,-2.8 2.24,-5.28 1.2,-2.52 2.28,-4.32 l -10.4,0 0,-4.08 16.16,0 0,3.72 q -1.08,1.24 -2.36,3.48 -1.28,2.24 -2.44,5.08 -1.12,2.84 -2,6.08 -0.84,3.2 -1.04,6.4 l -5,0 z" />
    </g>
    <text
       id="text4509"
       y="395.21936"
       x="-321.71429"
       style="font-style:normal;font-weight:normal;font-size:40px;line-height:125%;font-family:Sans;letter-spacing:0px;word-spacing:0px;fill:#000000;fill-opacity:1;stroke:none;stroke-width:1px;stroke-linecap:butt;stroke-linejoin:miter;stroke-opacity:1"
       xml:space="preserve"><tspan
         y="395.21936"
         x="-321.71429"
         id="tspan4511" /></text>
  </g>
</svg>
