<?xml version="1.0" encoding="UTF-8" standalone="no"?>
<!-- Created with Inkscape (http://www.inkscape.org/) -->

<svg
   xmlns:dc="http://purl.org/dc/elements/1.1/"
   xmlns:cc="http://creativecommons.org/ns#"
   xmlns:rdf="http://www.w3.org/1999/02/22-rdf-syntax-ns#"
   xmlns:svg="http://www.w3.org/2000/svg"
   xmlns="http://www.w3.org/2000/svg"
   xmlns:sodipodi="http://sodipodi.sourceforge.net/DTD/sodipodi-0.dtd"
   xmlns:inkscape="http://www.inkscape.org/namespaces/inkscape"
   width="168.5269mm"
   height="93.53627mm"
   viewBox="0 0 597.14256 331.42773"
   id="svg2"
   version="1.1"
   inkscape:version="0.91 r13725"
   sodipodi:docname="warning-seikkojen-huomiointi.svg">
  <defs
     id="defs4" />
  <sodipodi:namedview
     id="base"
     pagecolor="#ffffff"
     bordercolor="#666666"
     borderopacity="1.0"
     inkscape:pageopacity="0.0"
     inkscape:pageshadow="2"
     inkscape:zoom="2"
     inkscape:cx="393.67633"
     inkscape:cy="75.28484"
     inkscape:document-units="px"
     inkscape:current-layer="layer1"
     showgrid="false"
     inkscape:window-width="2151"
     inkscape:window-height="1403"
     inkscape:window-x="2200"
     inkscape:window-y="1024"
     inkscape:window-maximized="0"
     fit-margin-top="0"
     fit-margin-left="0"
     fit-margin-right="0"
     fit-margin-bottom="0" />
  <metadata
     id="metadata7">
    <rdf:RDF>
      <cc:Work
         rdf:about="">
        <dc:format>image/svg+xml</dc:format>
        <dc:type
           rdf:resource="http://purl.org/dc/dcmitype/StillImage" />
        <dc:title></dc:title>
      </cc:Work>
    </rdf:RDF>
  </metadata>
  <g
     inkscape:label="Layer 1"
     inkscape:groupmode="layer"
     id="layer1"
     transform="translate(-56.572266,-201.93359)">
    <g
       id="g4398">
      <g
         style="fill:#ffffff;fill-opacity:1"
         transform="translate(4,-4)"
         id="g4182">
        <g
           style="fill:#ffffff;fill-opacity:1"
           transform="translate(2,0)"
           id="g4185">
          <path
             inkscape:connector-curvature="0"
             style="fill:#ffffff;stroke:#000000;stroke-width:20;stroke-miterlimit:4;stroke-dasharray:none;stroke-opacity:1;fill-opacity:1"
             id="rect3373"
             d="m 60.572266,215.93359 0,311.42774 577.142574,0 0,-311.42774 -577.142574,0 z" />
        </g>
      </g>
      <g
         id="text3336"
         style="font-style:normal;font-variant:normal;font-weight:600;font-stretch:normal;font-size:40px;line-height:125%;font-family:FreeSans;-inkscape-font-specification:'FreeSans Semi-Bold';text-align:center;letter-spacing:0px;word-spacing:0px;text-anchor:middle;fill:#000000;fill-opacity:1;stroke:none;stroke-width:1px;stroke-linecap:butt;stroke-linejoin:miter;stroke-opacity:1">
        <path
           id="path4236"
           style=""
           d="m 139.23385,264.36792 -5.6,0 q -0.32,-4.56 -6.12,-4.56 -2.32,0 -3.68,1 -1.36,0.96 -1.36,2.6 0,1.6 1.16,2.4 1.16,0.76 4.36,1.4 l 4.56,0.88 q 4.04,0.8 5.88,2.72 1.84,1.88 1.84,5.32 0,4.44 -3.16,6.96 -3.16,2.48 -8.8,2.48 -5.6,0 -8.72,-2.48 -3.08,-2.48 -3.36,-7.16 l 5.84,0 q 0.16,2.36 1.84,3.6 1.68,1.24 4.72,1.24 2.72,0 4.28,-1.04 1.6,-1.04 1.6,-2.88 0,-1.76 -1.24,-2.72 -1.24,-0.96 -4.24,-1.52 l -4.08,-0.8 q -4.44,-0.84 -6.32,-2.64 -1.88,-1.8 -1.88,-5.2 0,-4.28 2.88,-6.6 2.92,-2.36 8.16,-2.36 1.52,0 2.92,0.2 1.44,0.2 3.04,0.84 1.6,0.6 2.76,1.6 1.16,0.96 1.92,2.72 0.8,1.72 0.8,4 z" />
        <path
           id="path4238"
           style=""
           d="m 153.49948,262.68792 q 1.4,0 2.72,0.32 1.32,0.32 2.68,1.16 1.4,0.84 2.4,2.16 1.04,1.28 1.68,3.44 0.64,2.12 0.64,4.88 0,0.48 -0.04,0.96 l -14.48,0 q 0.04,1.24 0.2,2.16 0.2,0.88 0.64,1.76 0.48,0.84 1.36,1.32 0.92,0.44 2.28,0.44 3.2,0 4.28,-2.72 l 5.52,0 q -0.92,3.2 -3.64,5.12 -2.72,1.88 -6.36,1.88 -4.6,0 -7.24,-2.96 -2.64,-3 -2.64,-8.2 0,-5.44 2.68,-8.56 2.68,-3.16 7.32,-3.16 z m 4.28,9.2 q -0.2,-2.36 -1.32,-3.64 -1.08,-1.28 -3.04,-1.28 -3.68,0 -4.24,4.92 l 8.6,0 z" />
        <path
           id="path4240"
           style=""
           d="m 173.65885,263.04792 0,21.6 -5.6,0 0,-21.6 5.6,0 z m 0,-7.56 0,5 -5.6,0 0,-5 5.6,0 z" />
        <path
           id="path4242"
           style=""
           d="m 184.63073,271.44792 7.08,-8.4 6.36,0 -7.36,8.16 7.88,13.44 -6.56,0 -5.16,-9.52 -2.24,2.44 0,7.08 -5.6,0 0,-29.16 5.6,0 0,15.96 z" />
        <path
           id="path4244"
           style=""
           d="m 207.20885,271.44792 7.08,-8.4 6.36,0 -7.36,8.16 7.88,13.44 -6.56,0 -5.16,-9.52 -2.24,2.44 0,7.08 -5.6,0 0,-29.16 5.6,0 0,15.96 z" />
        <path
           id="path4246"
           style=""
           d="m 233.82698,262.68792 q 5.08,0 7.88,3.08 2.84,3.04 2.84,8.52 0,5.2 -2.88,8.24 -2.88,3.04 -7.8,3.04 -5,0 -7.84,-3.04 -2.84,-3.08 -2.84,-8.4 0,-5.32 2.84,-8.36 2.84,-3.08 7.8,-3.08 z m 0.04,4.52 q -2.28,0 -3.68,1.92 -1.4,1.92 -1.4,5 0,3.08 1.4,5 1.4,1.92 3.68,1.92 2.24,0 3.64,-1.88 1.44,-1.92 1.44,-4.96 0,-3.2 -1.4,-5.08 -1.36,-1.92 -3.68,-1.92 z" />
        <path
           id="path4248"
           style=""
           d="m 254.51823,263.04792 0,25.36 q 0,2.64 -1.16,3.8 -1.16,1.16 -3.76,1.16 -1.44,0 -3.32,-0.2 l 0,-4.48 q 0.52,0.16 1,0.16 0.92,0 1.28,-0.4 0.36,-0.36 0.36,-1.28 l 0,-24.12 5.6,0 z m 0,-7.56 0,5 -5.6,0 0,-5 5.6,0 z" />
        <path
           id="path4250"
           style=""
           d="m 268.8901,262.68792 q 1.4,0 2.72,0.32 1.32,0.32 2.68,1.16 1.4,0.84 2.4,2.16 1.04,1.28 1.68,3.44 0.64,2.12 0.64,4.88 0,0.48 -0.04,0.96 l -14.48,0 q 0.04,1.24 0.2,2.16 0.2,0.88 0.64,1.76 0.48,0.84 1.36,1.32 0.92,0.44 2.28,0.44 3.2,0 4.28,-2.72 l 5.52,0 q -0.92,3.2 -3.64,5.12 -2.72,1.88 -6.36,1.88 -4.6,0 -7.24,-2.96 -2.64,-3 -2.64,-8.2 0,-5.44 2.68,-8.56 2.68,-3.16 7.32,-3.16 z m 4.28,9.2 q -0.2,-2.36 -1.32,-3.64 -1.08,-1.28 -3.04,-1.28 -3.68,0 -4.24,4.92 l 8.6,0 z" />
        <path
           id="path4252"
           style=""
           d="m 283.24948,263.04792 5.6,0 0,3.12 q 2.32,-3.48 6.48,-3.48 3.44,0 5.32,1.96 1.92,1.96 1.92,5.52 l 0,14.48 -5.6,0 0,-13.32 q 0,-3.88 -3.6,-3.88 -2.04,0 -3.28,1.16 -1.24,1.16 -1.24,3.08 l 0,12.96 -5.6,0 0,-21.6 z" />
        <path
           id="path4254"
           style=""
           d="m 332.23448,271.44792 q 0,-4 -3.44,-4 -1.88,0 -3.12,1.2 -1.2,1.2 -1.2,3.04 l 0,12.96 -5.6,0 0,-29.16 5.6,0 0,10.68 q 2.32,-3.48 6.32,-3.48 1.28,0 2.4,0.36 1.16,0.32 2.24,1.12 1.12,0.76 1.76,2.32 0.64,1.56 0.64,3.68 l 0,14.48 -5.6,0 0,-13.2 z" />
        <path
           id="path4256"
           style=""
           d="m 362.3351,284.64792 -5.6,0 0,-2.56 q -2.32,3.48 -6.48,3.48 -3.44,0 -5.36,-1.96 -1.88,-1.96 -1.88,-5.52 l 0,-15.04 5.6,0 0,13.88 q 0,3.88 3.6,3.88 2.04,0 3.28,-1.16 1.24,-1.16 1.24,-3.08 l 0,-13.52 5.6,0 0,21.6 z" />
        <path
           id="path4258"
           style=""
           d="m 377.18635,262.68792 q 5.08,0 7.88,3.08 2.84,3.04 2.84,8.52 0,5.2 -2.88,8.24 -2.88,3.04 -7.8,3.04 -5,0 -7.84,-3.04 -2.84,-3.08 -2.84,-8.4 0,-5.32 2.84,-8.36 2.84,-3.08 7.8,-3.08 z m 0.04,4.52 q -2.28,0 -3.68,1.92 -1.4,1.92 -1.4,5 0,3.08 1.4,5 1.4,1.92 3.68,1.92 2.24,0 3.64,-1.88 1.44,-1.92 1.44,-4.96 0,-3.2 -1.4,-5.08 -1.36,-1.92 -3.68,-1.92 z" />
        <path
           id="path4260"
           style=""
           d="m 392.0776,263.04792 5.56,0 0,2.68 q 1.4,-1.64 2.72,-2.32 1.36,-0.72 3.2,-0.72 4.24,0 5.88,3.2 2.4,-3.2 6.32,-3.2 3.24,0 5.04,1.76 1.84,1.76 1.84,4.92 l 0,15.28 -5.6,0 0,-14.4 q 0,-1.28 -0.84,-2.04 -0.8,-0.76 -2.2,-0.76 -1.8,0 -2.84,1.12 -1,1.12 -1,3.12 l 0,12.96 -5.6,0 0,-14.4 q 0,-1.28 -0.84,-2.04 -0.8,-0.76 -2.2,-0.76 -1.8,0 -2.84,1.12 -1,1.12 -1,3.12 l 0,12.96 -5.6,0 0,-21.6 z" />
        <path
           id="path4262"
           style=""
           d="m 433.65885,263.04792 0,21.6 -5.6,0 0,-21.6 5.6,0 z m 0,-7.56 0,5 -5.6,0 0,-5 5.6,0 z" />
        <path
           id="path4264"
           style=""
           d="m 448.67073,262.68792 q 5.08,0 7.88,3.08 2.84,3.04 2.84,8.52 0,5.2 -2.88,8.24 -2.88,3.04 -7.8,3.04 -5,0 -7.84,-3.04 -2.84,-3.08 -2.84,-8.4 0,-5.32 2.84,-8.36 2.84,-3.08 7.8,-3.08 z m 0.04,4.52 q -2.28,0 -3.68,1.92 -1.4,1.92 -1.4,5 0,3.08 1.4,5 1.4,1.92 3.68,1.92 2.24,0 3.64,-1.88 1.44,-1.92 1.44,-4.96 0,-3.2 -1.4,-5.08 -1.36,-1.92 -3.68,-1.92 z" />
        <path
           id="path4266"
           style=""
           d="m 469.36198,263.04792 0,21.6 -5.6,0 0,-21.6 5.6,0 z m 0,-7.56 0,5 -5.6,0 0,-5 5.6,0 z" />
        <path
           id="path4268"
           style=""
           d="m 474.73385,263.04792 5.56,0 0,2.68 q 1.4,-1.64 2.72,-2.32 1.36,-0.72 3.2,-0.72 4.24,0 5.88,3.2 2.4,-3.2 6.32,-3.2 3.24,0 5.04,1.76 1.84,1.76 1.84,4.92 l 0,15.28 -5.6,0 0,-14.4 q 0,-1.28 -0.84,-2.04 -0.8,-0.76 -2.2,-0.76 -1.8,0 -2.84,1.12 -1,1.12 -1,3.12 l 0,12.96 -5.6,0 0,-14.4 q 0,-1.28 -0.84,-2.04 -0.8,-0.76 -2.2,-0.76 -1.8,0 -2.84,1.12 -1,1.12 -1,3.12 l 0,12.96 -5.6,0 0,-21.6 z" />
        <path
           id="path4270"
           style=""
           d="m 516.3151,263.04792 0,21.6 -5.6,0 0,-21.6 5.6,0 z m 0,-7.56 0,5 -5.6,0 0,-5 5.6,0 z" />
        <path
           id="path4272"
           style=""
           d="m 521.68698,263.04792 5.6,0 0,3.12 q 2.32,-3.48 6.48,-3.48 3.44,0 5.32,1.96 1.92,1.96 1.92,5.52 l 0,14.48 -5.6,0 0,-13.32 q 0,-3.88 -3.6,-3.88 -2.04,0 -3.28,1.16 -1.24,1.16 -1.24,3.08 l 0,12.96 -5.6,0 0,-21.6 z" />
        <path
           id="path4274"
           style=""
           d="m 555.21823,262.68792 q 1.4,0 2.72,0.32 1.32,0.32 2.68,1.16 1.4,0.84 2.4,2.16 1.04,1.28 1.68,3.44 0.64,2.12 0.64,4.88 0,0.48 -0.04,0.96 l -14.48,0 q 0.04,1.24 0.2,2.16 0.2,0.88 0.64,1.76 0.48,0.84 1.36,1.32 0.92,0.44 2.28,0.44 3.2,0 4.28,-2.72 l 5.52,0 q -0.92,3.2 -3.64,5.12 -2.72,1.88 -6.36,1.88 -4.6,0 -7.24,-2.96 -2.64,-3 -2.64,-8.2 0,-5.44 2.68,-8.56 2.68,-3.16 7.32,-3.16 z m 4.28,9.2 q -0.2,-2.36 -1.32,-3.64 -1.08,-1.28 -3.04,-1.28 -3.68,0 -4.24,4.92 l 8.6,0 z" />
        <path
           id="path4276"
           style=""
           d="m 569.5776,263.04792 5.6,0 0,3.12 q 2.32,-3.48 6.48,-3.48 3.44,0 5.32,1.96 1.92,1.96 1.92,5.52 l 0,14.48 -5.6,0 0,-13.32 q 0,-3.88 -3.6,-3.88 -2.04,0 -3.28,1.16 -1.24,1.16 -1.24,3.08 l 0,12.96 -5.6,0 0,-21.6 z" />
        <path
           id="path4278"
           style=""
           d="m 151.87229,334.64792 -5.88,0 -7.56,-21.6 5.92,0 4.68,15.8 4.36,-15.8 5.92,0 -7.44,21.6 z" />
        <path
           id="path4280"
           style=""
           d="m 171.99104,312.68792 q 5.08,0 7.88,3.08 2.84,3.04 2.84,8.52 0,5.2 -2.88,8.24 -2.88,3.04 -7.8,3.04 -5,0 -7.84,-3.04 -2.84,-3.08 -2.84,-8.4 0,-5.32 2.84,-8.36 2.84,-3.08 7.8,-3.08 z m 0.04,4.52 q -2.28,0 -3.68,1.92 -1.4,1.92 -1.4,5 0,3.08 1.4,5 1.4,1.92 3.68,1.92 2.24,0 3.64,-1.88 1.44,-1.92 1.44,-4.96 0,-3.2 -1.4,-5.08 -1.36,-1.92 -3.68,-1.92 z" />
        <path
           id="path4282"
           style=""
           d="m 192.68229,313.04792 0,21.6 -5.6,0 0,-21.6 5.6,0 z m 0,-7.56 0,5 -5.6,0 0,-5 5.6,0 z" />
        <path
           id="path4284"
           style=""
           d="m 214.94791,313.04792 0,25.36 q 0,2.64 -1.16,3.8 -1.16,1.16 -3.76,1.16 -1.44,0 -3.32,-0.2 l 0,-4.48 q 0.52,0.16 1,0.16 0.92,0 1.28,-0.4 0.36,-0.36 0.36,-1.28 l 0,-24.12 5.6,0 z m 0,-7.56 0,5 -5.6,0 0,-5 5.6,0 z" />
        <path
           id="path4286"
           style=""
           d="m 229.95979,312.68792 q 5.08,0 7.88,3.08 2.84,3.04 2.84,8.52 0,5.2 -2.88,8.24 -2.88,3.04 -7.8,3.04 -5,0 -7.84,-3.04 -2.84,-3.08 -2.84,-8.4 0,-5.32 2.84,-8.36 2.84,-3.08 7.8,-3.08 z m 0.04,4.52 q -2.28,0 -3.68,1.92 -1.4,1.92 -1.4,5 0,3.08 1.4,5 1.4,1.92 3.68,1.92 2.24,0 3.64,-1.88 1.44,-1.92 1.44,-4.96 0,-3.2 -1.4,-5.08 -1.36,-1.92 -3.68,-1.92 z" />
        <path
           id="path4288"
           style=""
           d="m 258.21104,321.44792 q 0,-4 -3.44,-4 -1.88,0 -3.12,1.2 -1.2,1.2 -1.2,3.04 l 0,12.96 -5.6,0 0,-29.16 5.6,0 0,10.68 q 2.32,-3.48 6.32,-3.48 1.28,0 2.4,0.36 1.16,0.32 2.24,1.12 1.12,0.76 1.76,2.32 0.64,1.56 0.64,3.68 l 0,14.48 -5.6,0 0,-13.2 z" />
        <path
           id="path4290"
           style=""
           d="m 278.71166,313.48792 0,3.72 -3.12,0 0,11.76 q 0,1.44 0.36,1.92 0.36,0.44 1.48,0.44 0.44,0 1.28,-0.12 l 0,3.92 q -1.36,0.44 -3.24,0.44 -5.48,0 -5.48,-5.08 l 0,-13.28 -2.76,0 0,-3.72 2.76,0 0,-5.8 5.6,0 0,5.8 3.12,0 z" />
        <path
           id="path4292"
           style=""
           d="m 288.06729,335.56792 q -2.96,0 -4.76,-1.76 -1.8,-1.8 -1.8,-4.72 0,-5.72 6.36,-6.8 l 2.24,-0.4 q 0.08,0 0.8,-0.08 0.72,-0.12 0.92,-0.16 0.2,-0.08 0.76,-0.2 0.6,-0.12 0.84,-0.28 0.24,-0.16 0.56,-0.4 0.36,-0.28 0.48,-0.6 0.12,-0.36 0.12,-0.8 0,-2.16 -3.24,-2.16 -2.08,0 -2.92,0.64 -0.84,0.64 -1.04,2.32 l -5.4,0 q 0.52,-7.48 9.24,-7.48 8.84,0 8.84,6.64 l 0,12 q 0,1.48 1.28,2.64 l 0,0.68 -6.08,0 q -0.64,-0.8 -0.64,-2.16 -2.96,3.08 -6.56,3.08 z m 6.52,-9.6 0,-1.52 q -0.76,0.36 -2.36,0.68 l -1.92,0.36 q -1.76,0.36 -2.48,1.04 -0.72,0.68 -0.72,1.92 0,1.2 0.8,1.92 0.84,0.68 2.24,0.68 2.12,0 3.28,-1.32 1.16,-1.32 1.16,-3.76 z" />
        <path
           id="path4294"
           style=""
           d="m 310.72354,335.56792 q -2.96,0 -4.76,-1.76 -1.8,-1.8 -1.8,-4.72 0,-5.72 6.36,-6.8 l 2.24,-0.4 q 0.08,0 0.8,-0.08 0.72,-0.12 0.92,-0.16 0.2,-0.08 0.76,-0.2 0.6,-0.12 0.84,-0.28 0.24,-0.16 0.56,-0.4 0.36,-0.28 0.48,-0.6 0.12,-0.36 0.12,-0.8 0,-2.16 -3.24,-2.16 -2.08,0 -2.92,0.64 -0.84,0.64 -1.04,2.32 l -5.4,0 q 0.52,-7.48 9.24,-7.48 8.84,0 8.84,6.64 l 0,12 q 0,1.48 1.28,2.64 l 0,0.68 -6.08,0 q -0.64,-0.8 -0.64,-2.16 -2.96,3.08 -6.56,3.08 z m 6.52,-9.6 0,-1.52 q -0.76,0.36 -2.36,0.68 l -1.92,0.36 q -1.76,0.36 -2.48,1.04 -0.72,0.68 -0.72,1.92 0,1.2 0.8,1.92 0.84,0.68 2.24,0.68 2.12,0 3.28,-1.32 1.16,-1.32 1.16,-3.76 z" />
        <path
           id="path4296"
           style=""
           d="m 348.63354,313.48792 0,3.72 -3.12,0 0,11.76 q 0,1.44 0.36,1.92 0.36,0.44 1.48,0.44 0.44,0 1.28,-0.12 l 0,3.92 q -1.36,0.44 -3.24,0.44 -5.48,0 -5.48,-5.08 l 0,-13.28 -2.76,0 0,-3.72 2.76,0 0,-5.8 5.6,0 0,5.8 3.12,0 z" />
        <path
           id="path4298"
           style=""
           d="m 371.74916,334.64792 -5.6,0 0,-2.56 q -2.32,3.48 -6.48,3.48 -3.44,0 -5.36,-1.96 -1.88,-1.96 -1.88,-5.52 l 0,-15.04 5.6,0 0,13.88 q 0,3.88 3.6,3.88 2.04,0 3.28,-1.16 1.24,-1.16 1.24,-3.08 l 0,-13.52 5.6,0 0,21.6 z" />
        <path
           id="path4300"
           style=""
           d="m 381.04041,328.36792 q 0.28,1.36 1.12,2.08 0.88,0.72 3.28,0.72 1.96,0 3.04,-0.56 1.12,-0.56 1.12,-1.56 0,-0.64 -0.44,-1.04 -0.4,-0.4 -1.44,-0.72 l -6.68,-2.08 q -0.04,0 -0.48,-0.12 -0.44,-0.16 -0.64,-0.24 -0.16,-0.08 -0.64,-0.24 -0.48,-0.2 -0.76,-0.4 -0.24,-0.2 -0.64,-0.48 -0.4,-0.32 -0.64,-0.68 -0.2,-0.36 -0.44,-0.8 -0.24,-0.48 -0.36,-1.08 -0.12,-0.6 -0.12,-1.28 0,-3.32 2.36,-5.24 2.4,-1.96 6.52,-1.96 4.36,0 6.84,1.96 2.48,1.92 2.56,5.36 l -5.4,0 q -0.04,-2.92 -4.04,-2.92 -1.48,0 -2.36,0.56 -0.88,0.52 -0.88,1.44 0,0.64 0.4,1 0.4,0.32 1.56,0.68 l 7.08,2.04 q 4.24,1.24 4.24,5.44 0,1.24 -0.44,2.44 -0.44,1.16 -1.44,2.32 -0.96,1.16 -2.92,1.84 -1.96,0.72 -4.64,0.72 -9.96,0 -10.2,-7.2 l 5.48,0 z" />
        <path
           id="path4302"
           style=""
           d="m 404.82604,321.44792 7.08,-8.4 6.36,0 -7.36,8.16 7.88,13.44 -6.56,0 -5.16,-9.52 -2.24,2.44 0,7.08 -5.6,0 0,-29.16 5.6,0 0,15.96 z" />
        <path
           id="path4304"
           style=""
           d="m 427.36416,335.56792 q -2.96,0 -4.76,-1.76 -1.8,-1.8 -1.8,-4.72 0,-5.72 6.36,-6.8 l 2.24,-0.4 q 0.08,0 0.8,-0.08 0.72,-0.12 0.92,-0.16 0.2,-0.08 0.76,-0.2 0.6,-0.12 0.84,-0.28 0.24,-0.16 0.56,-0.4 0.36,-0.28 0.48,-0.6 0.12,-0.36 0.12,-0.8 0,-2.16 -3.24,-2.16 -2.08,0 -2.92,0.64 -0.84,0.64 -1.04,2.32 l -5.4,0 q 0.52,-7.48 9.24,-7.48 8.84,0 8.84,6.64 l 0,12 q 0,1.48 1.28,2.64 l 0,0.68 -6.08,0 q -0.64,-0.8 -0.64,-2.16 -2.96,3.08 -6.56,3.08 z m 6.52,-9.6 0,-1.52 q -0.76,0.36 -2.36,0.68 l -1.92,0.36 q -1.76,0.36 -2.48,1.04 -0.72,0.68 -0.72,1.92 0,1.2 0.8,1.92 0.84,0.68 2.24,0.68 2.12,0 3.28,-1.32 1.16,-1.32 1.16,-3.76 z" />
        <path
           id="path4306"
           style=""
           d="m 450.06041,305.48792 0,29.16 -5.6,0 0,-29.16 5.6,0 z" />
        <path
           id="path4308"
           style=""
           d="m 460.84166,305.48792 0,29.16 -5.6,0 0,-29.16 5.6,0 z" />
        <path
           id="path4310"
           style=""
           d="m 471.82291,313.04792 0,21.6 -5.6,0 0,-21.6 5.6,0 z m 0,-7.56 0,5 -5.6,0 0,-5 5.6,0 z" />
        <path
           id="path4312"
           style=""
           d="m 481.27479,328.36792 q 0.28,1.36 1.12,2.08 0.88,0.72 3.28,0.72 1.96,0 3.04,-0.56 1.12,-0.56 1.12,-1.56 0,-0.64 -0.44,-1.04 -0.4,-0.4 -1.44,-0.72 l -6.68,-2.08 q -0.04,0 -0.48,-0.12 -0.44,-0.16 -0.64,-0.24 -0.16,-0.08 -0.64,-0.24 -0.48,-0.2 -0.76,-0.4 -0.24,-0.2 -0.64,-0.48 -0.4,-0.32 -0.64,-0.68 -0.2,-0.36 -0.44,-0.8 -0.24,-0.48 -0.36,-1.08 -0.12,-0.6 -0.12,-1.28 0,-3.32 2.36,-5.24 2.4,-1.96 6.52,-1.96 4.36,0 6.84,1.96 2.48,1.92 2.56,5.36 l -5.4,0 q -0.04,-2.92 -4.04,-2.92 -1.48,0 -2.36,0.56 -0.88,0.52 -0.88,1.44 0,0.64 0.4,1 0.4,0.32 1.56,0.68 l 7.08,2.04 q 4.24,1.24 4.24,5.44 0,1.24 -0.44,2.44 -0.44,1.16 -1.44,2.32 -0.96,1.16 -2.92,1.84 -1.96,0.72 -4.64,0.72 -9.96,0 -10.2,-7.2 l 5.48,0 z" />
        <path
           id="path4314"
           style=""
           d="m 508.46041,312.68792 q 1.4,0 2.72,0.32 1.32,0.32 2.68,1.16 1.4,0.84 2.4,2.16 1.04,1.28 1.68,3.44 0.64,2.12 0.64,4.88 0,0.48 -0.04,0.96 l -14.48,0 q 0.04,1.24 0.2,2.16 0.2,0.88 0.64,1.76 0.48,0.84 1.36,1.32 0.92,0.44 2.28,0.44 3.2,0 4.28,-2.72 l 5.52,0 q -0.92,3.2 -3.64,5.12 -2.72,1.88 -6.36,1.88 -4.6,0 -7.24,-2.96 -2.64,-3 -2.64,-8.2 0,-5.44 2.68,-8.56 2.68,-3.16 7.32,-3.16 z m 4.28,9.2 q -0.2,-2.36 -1.32,-3.64 -1.08,-1.28 -3.04,-1.28 -3.68,0 -4.24,4.92 l 8.6,0 z" />
        <path
           id="path4316"
           style=""
           d="m 531.81979,312.68792 q 1.4,0 2.72,0.32 1.32,0.32 2.68,1.16 1.4,0.84 2.4,2.16 1.04,1.28 1.68,3.44 0.64,2.12 0.64,4.88 0,0.48 -0.04,0.96 l -14.48,0 q 0.04,1.24 0.2,2.16 0.2,0.88 0.64,1.76 0.48,0.84 1.36,1.32 0.92,0.44 2.28,0.44 3.2,0 4.28,-2.72 l 5.52,0 q -0.92,3.2 -3.64,5.12 -2.72,1.88 -6.36,1.88 -4.6,0 -7.24,-2.96 -2.64,-3 -2.64,-8.2 0,-5.44 2.68,-8.56 2.68,-3.16 7.32,-3.16 z m 4.28,9.2 q -0.2,-2.36 -1.32,-3.64 -1.08,-1.28 -3.04,-1.28 -3.68,0 -4.24,4.92 l 8.6,0 z" />
        <path
           id="path4318"
           style=""
           d="m 546.17916,313.04792 5.6,0 0,3.12 q 2.32,-3.48 6.48,-3.48 3.44,0 5.32,1.96 1.92,1.96 1.92,5.52 l 0,14.48 -5.6,0 0,-13.32 q 0,-3.88 -3.6,-3.88 -2.04,0 -3.28,1.16 -1.24,1.16 -1.24,3.08 l 0,12.96 -5.6,0 0,-21.6 z" />
        <path
           id="path4320"
           style=""
           d="m 220.5476,363.48792 0,3.72 -3.12,0 0,11.76 q 0,1.44 0.36,1.92 0.36,0.44 1.48,0.44 0.44,0 1.28,-0.12 l 0,3.92 q -1.36,0.44 -3.24,0.44 -5.48,0 -5.48,-5.08 l 0,-13.28 -2.76,0 0,-3.72 2.76,0 0,-5.8 5.6,0 0,5.8 3.12,0 z" />
        <path
           id="path4322"
           style=""
           d="m 233.98323,362.68792 q 5.08,0 7.88,3.08 2.84,3.04 2.84,8.52 0,5.2 -2.88,8.24 -2.88,3.04 -7.8,3.04 -5,0 -7.84,-3.04 -2.84,-3.08 -2.84,-8.4 0,-5.32 2.84,-8.36 2.84,-3.08 7.8,-3.08 z m 0.04,4.52 q -2.28,0 -3.68,1.92 -1.4,1.92 -1.4,5 0,3.08 1.4,5 1.4,1.92 3.68,1.92 2.24,0 3.64,-1.88 1.44,-1.92 1.44,-4.96 0,-3.2 -1.4,-5.08 -1.36,-1.92 -3.68,-1.92 z" />
        <path
           id="path4324"
           style=""
           d="m 254.67448,363.04792 0,21.6 -5.6,0 0,-21.6 5.6,0 z m 0,-7.56 0,5 -5.6,0 0,-5 5.6,0 z" />
        <path
           id="path4326"
           style=""
           d="m 260.04635,363.04792 5.56,0 0,2.68 q 1.4,-1.64 2.72,-2.32 1.36,-0.72 3.2,-0.72 4.24,0 5.88,3.2 2.4,-3.2 6.32,-3.2 3.24,0 5.04,1.76 1.84,1.76 1.84,4.92 l 0,15.28 -5.6,0 0,-14.4 q 0,-1.28 -0.84,-2.04 -0.8,-0.76 -2.2,-0.76 -1.8,0 -2.84,1.12 -1,1.12 -1,3.12 l 0,12.96 -5.6,0 0,-14.4 q 0,-1.28 -0.84,-2.04 -0.8,-0.76 -2.2,-0.76 -1.8,0 -2.84,1.12 -1,1.12 -1,3.12 l 0,12.96 -5.6,0 0,-21.6 z" />
        <path
           id="path4328"
           style=""
           d="m 304.8276,362.68792 q 1.4,0 2.72,0.32 1.32,0.32 2.68,1.16 1.4,0.84 2.4,2.16 1.04,1.28 1.68,3.44 0.64,2.12 0.64,4.88 0,0.48 -0.04,0.96 l -14.48,0 q 0.04,1.24 0.2,2.16 0.2,0.88 0.64,1.76 0.48,0.84 1.36,1.32 0.92,0.44 2.28,0.44 3.2,0 4.28,-2.72 l 5.52,0 q -0.92,3.2 -3.64,5.12 -2.72,1.88 -6.36,1.88 -4.6,0 -7.24,-2.96 -2.64,-3 -2.64,-8.2 0,-5.44 2.68,-8.56 2.68,-3.16 7.32,-3.16 z m 4.28,9.2 q -0.2,-2.36 -1.32,-3.64 -1.08,-1.28 -3.04,-1.28 -3.68,0 -4.24,4.92 l 8.6,0 z" />
        <path
           id="path4330"
           style=""
           d="m 319.18698,363.04792 5.6,0 0,3.12 q 2.32,-3.48 6.48,-3.48 3.44,0 5.32,1.96 1.92,1.96 1.92,5.52 l 0,14.48 -5.6,0 0,-13.32 q 0,-3.88 -3.6,-3.88 -2.04,0 -3.28,1.16 -1.24,1.16 -1.24,3.08 l 0,12.96 -5.6,0 0,-21.6 z" />
        <path
           id="path4332"
           style=""
           d="m 355.31823,362.68792 q 4.08,0 6.56,3.28 2.48,3.28 2.48,8.2 0,4.92 -2.6,8.2 -2.56,3.24 -6.44,3.24 -4,0 -6,-3.52 l 0,11.28 -5.6,0 0,-30.32 5.6,0 0,3.2 q 2,-3.56 6,-3.56 z m 2.12,6.6 q -1.28,-1.92 -3.4,-1.92 -2.12,0 -3.44,1.88 -1.28,1.88 -1.28,4.92 0,3.04 1.28,4.92 1.32,1.84 3.44,1.84 2.08,0 3.4,-1.88 1.32,-1.88 1.32,-4.8 0,-3.08 -1.32,-4.96 z" />
        <path
           id="path4334"
           style=""
           d="m 374.36198,363.04792 0,21.6 -5.6,0 0,-21.6 5.6,0 z m 0,-7.56 0,5 -5.6,0 0,-5 5.6,0 z" />
        <path
           id="path4336"
           style=""
           d="m 389.45385,363.48792 0,3.72 -3.12,0 0,11.76 q 0,1.44 0.36,1.92 0.36,0.44 1.48,0.44 0.44,0 1.28,-0.12 l 0,3.92 q -1.36,0.44 -3.24,0.44 -5.48,0 -5.48,-5.08 l 0,-13.28 -2.76,0 0,-3.72 2.76,0 0,-5.8 5.6,0 0,5.8 3.12,0 z" />
        <path
           id="path4338"
           style=""
           d="m 402.24948,362.68792 q 1.4,0 2.72,0.32 1.32,0.32 2.68,1.16 1.4,0.84 2.4,2.16 1.04,1.28 1.68,3.44 0.64,2.12 0.64,4.88 0,0.48 -0.04,0.96 l -14.48,0 q 0.04,1.24 0.2,2.16 0.2,0.88 0.64,1.76 0.48,0.84 1.36,1.32 0.92,0.44 2.28,0.44 3.2,0 4.28,-2.72 l 5.52,0 q -0.92,3.2 -3.64,5.12 -2.72,1.88 -6.36,1.88 -4.6,0 -7.24,-2.96 -2.64,-3 -2.64,-8.2 0,-5.44 2.68,-8.56 2.68,-3.16 7.32,-3.16 z m 4.28,9.2 q -0.2,-2.36 -1.32,-3.64 -1.08,-1.28 -3.04,-1.28 -3.68,0 -4.24,4.92 l 8.6,0 z" />
        <path
           id="path4340"
           style=""
           d="m 422.40885,363.04792 0,21.6 -5.6,0 0,-21.6 5.6,0 z m 0,-7.56 0,5 -5.6,0 0,-5 5.6,0 z" />
        <path
           id="path4342"
           style=""
           d="m 435.86073,385.56792 q -4,0 -6.56,-3.28 -2.52,-3.28 -2.52,-8.12 0,-4.88 2.6,-8.16 2.6,-3.32 6.48,-3.32 3.92,0 5.96,3.16 l 0,-10.36 5.6,0 0,29.16 -5.6,0 0,-2.2 q -2.08,3.12 -5.96,3.12 z m 1.24,-18.2 q -2.08,0 -3.4,1.92 -1.32,1.88 -1.32,4.88 0,2.96 1.32,4.84 1.32,1.88 3.4,1.88 2.08,0 3.4,-1.84 1.32,-1.84 1.32,-4.8 0,-3.08 -1.32,-4.96 -1.28,-1.92 -3.4,-1.92 z" />
        <path
           id="path4344"
           style=""
           d="m 461.62448,362.68792 q 1.4,0 2.72,0.32 1.32,0.32 2.68,1.16 1.4,0.84 2.4,2.16 1.04,1.28 1.68,3.44 0.64,2.12 0.64,4.88 0,0.48 -0.04,0.96 l -14.48,0 q 0.04,1.24 0.2,2.16 0.2,0.88 0.64,1.76 0.48,0.84 1.36,1.32 0.92,0.44 2.28,0.44 3.2,0 4.28,-2.72 l 5.52,0 q -0.92,3.2 -3.64,5.12 -2.72,1.88 -6.36,1.88 -4.6,0 -7.24,-2.96 -2.64,-3 -2.64,-8.2 0,-5.44 2.68,-8.56 2.68,-3.16 7.32,-3.16 z m 4.28,9.2 q -0.2,-2.36 -1.32,-3.64 -1.08,-1.28 -3.04,-1.28 -3.68,0 -4.24,4.92 l 8.6,0 z" />
        <path
           id="path4346"
           style=""
           d="m 475.98385,363.04792 5.6,0 0,3.12 q 2.32,-3.48 6.48,-3.48 3.44,0 5.32,1.96 1.92,1.96 1.92,5.52 l 0,14.48 -5.6,0 0,-13.32 q 0,-3.88 -3.6,-3.88 -2.04,0 -3.28,1.16 -1.24,1.16 -1.24,3.08 l 0,12.96 -5.6,0 0,-21.6 z" />
        <path
           id="path4348"
           style=""
           d="m 210.57166,428.36792 q 0.28,1.36 1.12,2.08 0.88,0.72 3.28,0.72 1.96,0 3.04,-0.56 1.12,-0.56 1.12,-1.56 0,-0.64 -0.44,-1.04 -0.4,-0.4 -1.44,-0.72 l -6.68,-2.08 q -0.04,0 -0.48,-0.12 -0.44,-0.16 -0.64,-0.24 -0.16,-0.08 -0.64,-0.24 -0.48,-0.2 -0.76,-0.4 -0.24,-0.2 -0.64,-0.48 -0.4,-0.32 -0.64,-0.68 -0.2,-0.36 -0.44,-0.8 -0.24,-0.48 -0.36,-1.08 -0.12,-0.6 -0.12,-1.28 0,-3.32 2.36,-5.24 2.4,-1.96 6.52,-1.96 4.36,0 6.84,1.96 2.48,1.92 2.56,5.36 l -5.4,0 q -0.04,-2.92 -4.04,-2.92 -1.48,0 -2.36,0.56 -0.88,0.52 -0.88,1.44 0,0.64 0.4,1 0.4,0.32 1.56,0.68 l 7.08,2.04 q 4.24,1.24 4.24,5.44 0,1.24 -0.44,2.44 -0.44,1.16 -1.44,2.32 -0.96,1.16 -2.92,1.84 -1.96,0.72 -4.64,0.72 -9.96,0 -10.2,-7.2 l 5.48,0 z" />
        <path
           id="path4350"
           style=""
           d="m 248.07729,434.64792 -5.6,0 0,-2.56 q -2.32,3.48 -6.48,3.48 -3.44,0 -5.36,-1.96 -1.88,-1.96 -1.88,-5.52 l 0,-15.04 5.6,0 0,13.88 q 0,3.88 3.6,3.88 2.04,0 3.28,-1.16 1.24,-1.16 1.24,-3.08 l 0,-13.52 5.6,0 0,21.6 z" />
        <path
           id="path4352"
           style=""
           d="m 262.92854,412.68792 q 5.08,0 7.88,3.08 2.84,3.04 2.84,8.52 0,5.2 -2.88,8.24 -2.88,3.04 -7.8,3.04 -5,0 -7.84,-3.04 -2.84,-3.08 -2.84,-8.4 0,-5.32 2.84,-8.36 2.84,-3.08 7.8,-3.08 z m 0.04,4.52 q -2.28,0 -3.68,1.92 -1.4,1.92 -1.4,5 0,3.08 1.4,5 1.4,1.92 3.68,1.92 2.24,0 3.64,-1.88 1.44,-1.92 1.44,-4.96 0,-3.2 -1.4,-5.08 -1.36,-1.92 -3.68,-1.92 z" />
        <path
           id="path4354"
           style=""
           d="m 277.81979,413.04792 5.6,0 0,4.24 q 0.88,-2.2 2.48,-3.4 1.6,-1.2 3.52,-1.2 0.36,0 0.68,0.04 l 0,5.68 q -1,-0.16 -1.76,-0.16 -4.92,0 -4.92,4.92 l 0,11.48 -5.6,0 0,-21.6 z" />
        <path
           id="path4356"
           style=""
           d="m 299.32291,413.04792 0,21.6 -5.6,0 0,-21.6 5.6,0 z m 0,-7.56 0,5 -5.6,0 0,-5 5.6,0 z" />
        <path
           id="path4358"
           style=""
           d="m 314.41479,413.48792 0,3.72 -3.12,0 0,11.76 q 0,1.44 0.36,1.92 0.36,0.44 1.48,0.44 0.44,0 1.28,-0.12 l 0,3.92 q -1.36,0.44 -3.24,0.44 -5.48,0 -5.48,-5.08 l 0,-13.28 -2.76,0 0,-3.72 2.76,0 0,-5.8 5.6,0 0,5.8 3.12,0 z" />
        <path
           id="path4360"
           style=""
           d="m 327.93041,413.48792 0,3.72 -3.12,0 0,11.76 q 0,1.44 0.36,1.92 0.36,0.44 1.48,0.44 0.44,0 1.28,-0.12 l 0,3.92 q -1.36,0.44 -3.24,0.44 -5.48,0 -5.48,-5.08 l 0,-13.28 -2.76,0 0,-3.72 2.76,0 0,-5.8 5.6,0 0,5.8 3.12,0 z" />
        <path
           id="path4362"
           style=""
           d="m 337.28604,435.56792 q -2.96,0 -4.76,-1.76 -1.8,-1.8 -1.8,-4.72 0,-5.72 6.36,-6.8 l 2.24,-0.4 q 0.08,0 0.8,-0.08 0.72,-0.12 0.92,-0.16 0.2,-0.08 0.76,-0.2 0.6,-0.12 0.84,-0.28 0.24,-0.16 0.56,-0.4 0.36,-0.28 0.48,-0.6 0.12,-0.36 0.12,-0.8 0,-2.16 -3.24,-2.16 -2.08,0 -2.92,0.64 -0.84,0.64 -1.04,2.32 l -5.4,0 q 0.52,-7.48 9.24,-7.48 8.84,0 8.84,6.64 l 0,12 q 0,1.48 1.28,2.64 l 0,0.68 -6.08,0 q -0.64,-0.8 -0.64,-2.16 -2.96,3.08 -6.56,3.08 z m 6.52,-9.6 0,-1.52 q -0.76,0.36 -2.36,0.68 l -1.92,0.36 q -1.76,0.36 -2.48,1.04 -0.72,0.68 -0.72,1.92 0,1.2 0.8,1.92 0.84,0.68 2.24,0.68 2.12,0 3.28,-1.32 1.16,-1.32 1.16,-3.76 z" />
        <path
           id="path4364"
           style=""
           d="m 354.38229,413.04792 5.56,0 0,2.68 q 1.4,-1.64 2.72,-2.32 1.36,-0.72 3.2,-0.72 4.24,0 5.88,3.2 2.4,-3.2 6.32,-3.2 3.24,0 5.04,1.76 1.84,1.76 1.84,4.92 l 0,15.28 -5.6,0 0,-14.4 q 0,-1.28 -0.84,-2.04 -0.8,-0.76 -2.2,-0.76 -1.8,0 -2.84,1.12 -1,1.12 -1,3.12 l 0,12.96 -5.6,0 0,-14.4 q 0,-1.28 -0.84,-2.04 -0.8,-0.76 -2.2,-0.76 -1.8,0 -2.84,1.12 -1,1.12 -1,3.12 l 0,12.96 -5.6,0 0,-21.6 z" />
        <path
           id="path4366"
           style=""
           d="m 395.96354,413.04792 0,21.6 -5.6,0 0,-21.6 5.6,0 z m 0,-7.56 0,5 -5.6,0 0,-5 5.6,0 z" />
        <path
           id="path4368"
           style=""
           d="m 405.41541,428.36792 q 0.28,1.36 1.12,2.08 0.88,0.72 3.28,0.72 1.96,0 3.04,-0.56 1.12,-0.56 1.12,-1.56 0,-0.64 -0.44,-1.04 -0.4,-0.4 -1.44,-0.72 l -6.68,-2.08 q -0.04,0 -0.48,-0.12 -0.44,-0.16 -0.64,-0.24 -0.16,-0.08 -0.64,-0.24 -0.48,-0.2 -0.76,-0.4 -0.24,-0.2 -0.64,-0.48 -0.4,-0.32 -0.64,-0.68 -0.2,-0.36 -0.44,-0.8 -0.24,-0.48 -0.36,-1.08 -0.12,-0.6 -0.12,-1.28 0,-3.32 2.36,-5.24 2.4,-1.96 6.52,-1.96 4.36,0 6.84,1.96 2.48,1.92 2.56,5.36 l -5.4,0 q -0.04,-2.92 -4.04,-2.92 -1.48,0 -2.36,0.56 -0.88,0.52 -0.88,1.44 0,0.64 0.4,1 0.4,0.32 1.56,0.68 l 7.08,2.04 q 4.24,1.24 4.24,5.44 0,1.24 -0.44,2.44 -0.44,1.16 -1.44,2.32 -0.96,1.16 -2.92,1.84 -1.96,0.72 -4.64,0.72 -9.96,0 -10.2,-7.2 l 5.48,0 z" />
        <path
           id="path4370"
           style=""
           d="m 432.60104,412.68792 q 1.4,0 2.72,0.32 1.32,0.32 2.68,1.16 1.4,0.84 2.4,2.16 1.04,1.28 1.68,3.44 0.64,2.12 0.64,4.88 0,0.48 -0.04,0.96 l -14.48,0 q 0.04,1.24 0.2,2.16 0.2,0.88 0.64,1.76 0.48,0.84 1.36,1.32 0.92,0.44 2.28,0.44 3.2,0 4.28,-2.72 l 5.52,0 q -0.92,3.2 -3.64,5.12 -2.72,1.88 -6.36,1.88 -4.6,0 -7.24,-2.96 -2.64,-3 -2.64,-8.2 0,-5.44 2.68,-8.56 2.68,-3.16 7.32,-3.16 z m 4.28,9.2 q -0.2,-2.36 -1.32,-3.64 -1.08,-1.28 -3.04,-1.28 -3.68,0 -4.24,4.92 l 8.6,0 z" />
        <path
           id="path4372"
           style=""
           d="m 455.96041,412.68792 q 1.4,0 2.72,0.32 1.32,0.32 2.68,1.16 1.4,0.84 2.4,2.16 1.04,1.28 1.68,3.44 0.64,2.12 0.64,4.88 0,0.48 -0.04,0.96 l -14.48,0 q 0.04,1.24 0.2,2.16 0.2,0.88 0.64,1.76 0.48,0.84 1.36,1.32 0.92,0.44 2.28,0.44 3.2,0 4.28,-2.72 l 5.52,0 q -0.92,3.2 -3.64,5.12 -2.72,1.88 -6.36,1.88 -4.6,0 -7.24,-2.96 -2.64,-3 -2.64,-8.2 0,-5.44 2.68,-8.56 2.68,-3.16 7.32,-3.16 z m 4.28,9.2 q -0.2,-2.36 -1.32,-3.64 -1.08,-1.28 -3.04,-1.28 -3.68,0 -4.24,4.92 l 8.6,0 z" />
        <path
           id="path4374"
           style=""
           d="m 470.31979,413.04792 5.6,0 0,3.12 q 2.32,-3.48 6.48,-3.48 3.44,0 5.32,1.96 1.92,1.96 1.92,5.52 l 0,14.48 -5.6,0 0,-13.32 q 0,-3.88 -3.6,-3.88 -2.04,0 -3.28,1.16 -1.24,1.16 -1.24,3.08 l 0,12.96 -5.6,0 0,-21.6 z" />
        <path
           id="path4376"
           style=""
           d="m 500.25104,428.80792 0,5.84 -6,0 0,-5.84 6,0 z" />
        <path
           id="path4378"
           style=""
           d="m 279.48416,448.64792 0,4.88 -4.4,0 0,-4.88 4.4,0 z m -7.84,0 0,4.88 -4.4,0 0,-4.88 4.4,0 z m 6.96,30.12 -10.92,0 -1.96,5.88 -6.12,0 10.36,-29.16 6.64,0 10.08,29.16 -6.16,0 -1.92,-5.88 z m -1.64,-5 -3.8,-11.4 -3.8,11.4 7.6,0 z" />
        <path
           id="path4380"
           style=""
           d="m 295.29479,455.48792 0,29.16 -5.6,0 0,-29.16 5.6,0 z" />
        <path
           id="path4382"
           style=""
           d="m 314.87604,454.92792 0,4.88 -4.4,0 0,-4.88 4.4,0 z m -7.84,0 0,4.88 -4.4,0 0,-4.88 4.4,0 z m -1,30.64 q -2.96,0 -4.76,-1.76 -1.8,-1.8 -1.8,-4.72 0,-5.72 6.36,-6.8 l 2.24,-0.4 q 0.08,0 0.8,-0.08 0.72,-0.12 0.92,-0.16 0.2,-0.08 0.76,-0.2 0.6,-0.12 0.84,-0.28 0.24,-0.16 0.56,-0.4 0.36,-0.28 0.48,-0.6 0.12,-0.36 0.12,-0.8 0,-2.16 -3.24,-2.16 -2.08,0 -2.92,0.64 -0.84,0.64 -1.04,2.32 l -5.4,0 q 0.52,-7.48 9.24,-7.48 8.84,0 8.84,6.64 l 0,12 q 0,1.48 1.28,2.64 l 0,0.68 -6.08,0 q -0.64,-0.8 -0.64,-2.16 -2.96,3.08 -6.56,3.08 z m 6.52,-9.6 0,-1.52 q -0.76,0.36 -2.36,0.68 l -1.92,0.36 q -1.76,0.36 -2.48,1.04 -0.72,0.68 -0.72,1.92 0,1.2 0.8,1.92 0.84,0.68 2.24,0.68 2.12,0 3.28,-1.32 1.16,-1.32 1.16,-3.76 z" />
        <path
           id="path4384"
           style=""
           d="m 339.78604,485.56792 q -2.96,0 -4.76,-1.76 -1.8,-1.8 -1.8,-4.72 0,-5.72 6.36,-6.8 l 2.24,-0.4 q 0.08,0 0.8,-0.08 0.72,-0.12 0.92,-0.16 0.2,-0.08 0.76,-0.2 0.6,-0.12 0.84,-0.28 0.24,-0.16 0.56,-0.4 0.36,-0.28 0.48,-0.6 0.12,-0.36 0.12,-0.8 0,-2.16 -3.24,-2.16 -2.08,0 -2.92,0.64 -0.84,0.64 -1.04,2.32 l -5.4,0 q 0.52,-7.48 9.24,-7.48 8.84,0 8.84,6.64 l 0,12 q 0,1.48 1.28,2.64 l 0,0.68 -6.08,0 q -0.64,-0.8 -0.64,-2.16 -2.96,3.08 -6.56,3.08 z m 6.52,-9.6 0,-1.52 q -0.76,0.36 -2.36,0.68 l -1.92,0.36 q -1.76,0.36 -2.48,1.04 -0.72,0.68 -0.72,1.92 0,1.2 0.8,1.92 0.84,0.68 2.24,0.68 2.12,0 3.28,-1.32 1.16,-1.32 1.16,-3.76 z" />
        <path
           id="path4386"
           style=""
           d="m 362.48229,455.48792 0,29.16 -5.6,0 0,-29.16 5.6,0 z" />
        <path
           id="path4388"
           style=""
           d="m 377.30354,462.68792 q 5.08,0 7.88,3.08 2.84,3.04 2.84,8.52 0,5.2 -2.88,8.24 -2.88,3.04 -7.8,3.04 -5,0 -7.84,-3.04 -2.84,-3.08 -2.84,-8.4 0,-5.32 2.84,-8.36 2.84,-3.08 7.8,-3.08 z m 0.04,4.52 q -2.28,0 -3.68,1.92 -1.4,1.92 -1.4,5 0,3.08 1.4,5 1.4,1.92 3.68,1.92 2.24,0 3.64,-1.88 1.44,-1.92 1.44,-4.96 0,-3.2 -1.4,-5.08 -1.36,-1.92 -3.68,-1.92 z" />
        <path
           id="path4390"
           style=""
           d="m 397.99479,463.04792 0,21.6 -5.6,0 0,-21.6 5.6,0 z m 0,-7.56 0,5 -5.6,0 0,-5 5.6,0 z" />
        <path
           id="path4392"
           style=""
           d="m 413.08666,463.48792 0,3.72 -3.12,0 0,11.76 q 0,1.44 0.36,1.92 0.36,0.44 1.48,0.44 0.44,0 1.28,-0.12 l 0,3.92 q -1.36,0.44 -3.24,0.44 -5.48,0 -5.48,-5.08 l 0,-13.28 -2.76,0 0,-3.72 2.76,0 0,-5.8 5.6,0 0,5.8 3.12,0 z" />
        <path
           id="path4394"
           style=""
           d="m 422.44229,485.56792 q -2.96,0 -4.76,-1.76 -1.8,-1.8 -1.8,-4.72 0,-5.72 6.36,-6.8 l 2.24,-0.4 q 0.08,0 0.8,-0.08 0.72,-0.12 0.92,-0.16 0.2,-0.08 0.76,-0.2 0.6,-0.12 0.84,-0.28 0.24,-0.16 0.56,-0.4 0.36,-0.28 0.48,-0.6 0.12,-0.36 0.12,-0.8 0,-2.16 -3.24,-2.16 -2.08,0 -2.92,0.64 -0.84,0.64 -1.04,2.32 l -5.4,0 q 0.52,-7.48 9.24,-7.48 8.84,0 8.84,6.64 l 0,12 q 0,1.48 1.28,2.64 l 0,0.68 -6.08,0 q -0.64,-0.8 -0.64,-2.16 -2.96,3.08 -6.56,3.08 z m 6.52,-9.6 0,-1.52 q -0.76,0.36 -2.36,0.68 l -1.92,0.36 q -1.76,0.36 -2.48,1.04 -0.72,0.68 -0.72,1.92 0,1.2 0.8,1.92 0.84,0.68 2.24,0.68 2.12,0 3.28,-1.32 1.16,-1.32 1.16,-3.76 z" />
        <path
           id="path4396"
           style=""
           d="m 444.93854,478.80792 0,5.84 -6,0 0,-5.84 6,0 z" />
      </g>
    </g>
  </g>
</svg>
